ISO-10303-21;
HEADER;
/* Generated by software containing ST-Developer
 * from STEP Tools, Inc. (www.steptools.com) 
 */

FILE_DESCRIPTION(
/* description */ ('KiCad electronic assembly'),
/* implementation_level */ '2;1');

FILE_NAME(
/* name */ 'Bottom of case.step',
/* time_stamp */ '2026-08-17T23:20:37-04:00',
/* author */ (''),
/* organization */ (''),
/* preprocessor_version */ 'ST-DEVELOPER v20.1',
/* originating_system */ 'Autodesk Translation Framework v15.8.0.0',
/* authorisation */ '');

FILE_SCHEMA (('AUTOMOTIVE_DESIGN { 1 0 10303 214 3 1 1 }'));
ENDSEC;

DATA;
#10=MECHANICAL_DESIGN_GEOMETRIC_PRESENTATION_REPRESENTATION('',(#13),#575);
#11=SHAPE_REPRESENTATION_RELATIONSHIP('SRR','None',#581,#12);
#12=ADVANCED_BREP_SHAPE_REPRESENTATION('',(#14),#574);
#13=STYLED_ITEM('',(#590),#14);
#14=MANIFOLD_SOLID_BREP('Body1',#351);
#15=CIRCLE('',#363,2.);
#16=CIRCLE('',#364,2.);
#17=CIRCLE('',#367,2.);
#18=CIRCLE('',#368,2.);
#19=CIRCLE('',#369,2.);
#20=CIRCLE('',#371,2.);
#21=CIRCLE('',#375,2.);
#22=CIRCLE('',#377,2.);
#23=CYLINDRICAL_SURFACE('',#362,2.);
#24=CYLINDRICAL_SURFACE('',#370,2.);
#25=CYLINDRICAL_SURFACE('',#374,2.);
#26=CYLINDRICAL_SURFACE('',#378,2.);
#27=FACE_OUTER_BOUND('',#45,.T.);
#28=FACE_OUTER_BOUND('',#46,.T.);
#29=FACE_OUTER_BOUND('',#47,.T.);
#30=FACE_OUTER_BOUND('',#48,.T.);
#31=FACE_OUTER_BOUND('',#49,.T.);
#32=FACE_OUTER_BOUND('',#50,.T.);
#33=FACE_OUTER_BOUND('',#51,.T.);
#34=FACE_OUTER_BOUND('',#52,.T.);
#35=FACE_OUTER_BOUND('',#53,.T.);
#36=FACE_OUTER_BOUND('',#54,.T.);
#37=FACE_OUTER_BOUND('',#55,.T.);
#38=FACE_OUTER_BOUND('',#56,.T.);
#39=FACE_OUTER_BOUND('',#57,.T.);
#40=FACE_OUTER_BOUND('',#58,.T.);
#41=FACE_OUTER_BOUND('',#59,.T.);
#42=FACE_OUTER_BOUND('',#60,.T.);
#43=FACE_OUTER_BOUND('',#61,.T.);
#44=FACE_OUTER_BOUND('',#62,.T.);
#45=EDGE_LOOP('',(#223,#224,#225,#226));
#46=EDGE_LOOP('',(#227,#228,#229,#230));
#47=EDGE_LOOP('',(#231,#232,#233,#234,#235,#236,#237,#238));
#48=EDGE_LOOP('',(#239,#240,#241,#242));
#49=EDGE_LOOP('',(#243,#244,#245,#246));
#50=EDGE_LOOP('',(#247,#248,#249,#250));
#51=EDGE_LOOP('',(#251,#252,#253,#254));
#52=EDGE_LOOP('',(#255,#256,#257,#258));
#53=EDGE_LOOP('',(#259,#260,#261,#262));
#54=EDGE_LOOP('',(#263,#264,#265,#266));
#55=EDGE_LOOP('',(#267,#268,#269,#270));
#56=EDGE_LOOP('',(#271,#272,#273,#274,#275,#276,#277,#278));
#57=EDGE_LOOP('',(#279,#280,#281,#282));
#58=EDGE_LOOP('',(#283,#284,#285,#286));
#59=EDGE_LOOP('',(#287,#288,#289,#290,#291,#292,#293,#294));
#60=EDGE_LOOP('',(#295,#296,#297,#298));
#61=EDGE_LOOP('',(#299,#300,#301,#302,#303,#304,#305,#306,#307,#308,#309,
#310,#311,#312,#313,#314));
#62=EDGE_LOOP('',(#315,#316,#317,#318));
#63=LINE('',#477,#103);
#64=LINE('',#479,#104);
#65=LINE('',#481,#105);
#66=LINE('',#482,#106);
#67=LINE('',#485,#107);
#68=LINE('',#487,#108);
#69=LINE('',#488,#109);
#70=LINE('',#492,#110);
#71=LINE('',#493,#111);
#72=LINE('',#495,#112);
#73=LINE('',#497,#113);
#74=LINE('',#499,#114);
#75=LINE('',#501,#115);
#76=LINE('',#502,#116);
#77=LINE('',#504,#117);
#78=LINE('',#505,#118);
#79=LINE('',#510,#119);
#80=LINE('',#511,#120);
#81=LINE('',#512,#121);
#82=LINE('',#515,#122);
#83=LINE('',#516,#123);
#84=LINE('',#519,#124);
#85=LINE('',#520,#125);
#86=LINE('',#524,#126);
#87=LINE('',#526,#127);
#88=LINE('',#528,#128);
#89=LINE('',#529,#129);
#90=LINE('',#535,#130);
#91=LINE('',#538,#131);
#92=LINE('',#541,#132);
#93=LINE('',#543,#133);
#94=LINE('',#544,#134);
#95=LINE('',#549,#135);
#96=LINE('',#552,#136);
#97=LINE('',#557,#137);
#98=LINE('',#560,#138);
#99=LINE('',#561,#139);
#100=LINE('',#563,#140);
#101=LINE('',#565,#141);
#102=LINE('',#566,#142);
#103=VECTOR('',#383,10.);
#104=VECTOR('',#384,10.);
#105=VECTOR('',#385,10.);
#106=VECTOR('',#386,10.);
#107=VECTOR('',#389,10.);
#108=VECTOR('',#390,10.);
#109=VECTOR('',#391,10.);
#110=VECTOR('',#394,10.);
#111=VECTOR('',#395,10.);
#112=VECTOR('',#396,10.);
#113=VECTOR('',#397,10.);
#114=VECTOR('',#398,10.);
#115=VECTOR('',#399,10.);
#116=VECTOR('',#400,10.);
#117=VECTOR('',#403,10.);
#118=VECTOR('',#404,10.);
#119=VECTOR('',#409,10.);
#120=VECTOR('',#410,10.);
#121=VECTOR('',#411,10.);
#122=VECTOR('',#414,10.);
#123=VECTOR('',#415,10.);
#124=VECTOR('',#418,10.);
#125=VECTOR('',#419,10.);
#126=VECTOR('',#422,10.);
#127=VECTOR('',#423,10.);
#128=VECTOR('',#424,10.);
#129=VECTOR('',#425,10.);
#130=VECTOR('',#430,10.);
#131=VECTOR('',#433,10.);
#132=VECTOR('',#436,10.);
#133=VECTOR('',#437,10.);
#134=VECTOR('',#438,10.);
#135=VECTOR('',#443,10.);
#136=VECTOR('',#446,10.);
#137=VECTOR('',#453,10.);
#138=VECTOR('',#456,10.);
#139=VECTOR('',#457,10.);
#140=VECTOR('',#460,10.);
#141=VECTOR('',#461,10.);
#142=VECTOR('',#462,10.);
#143=VERTEX_POINT('',#475);
#144=VERTEX_POINT('',#476);
#145=VERTEX_POINT('',#478);
#146=VERTEX_POINT('',#480);
#147=VERTEX_POINT('',#484);
#148=VERTEX_POINT('',#486);
#149=VERTEX_POINT('',#490);
#150=VERTEX_POINT('',#491);
#151=VERTEX_POINT('',#494);
#152=VERTEX_POINT('',#496);
#153=VERTEX_POINT('',#498);
#154=VERTEX_POINT('',#500);
#155=VERTEX_POINT('',#508);
#156=VERTEX_POINT('',#509);
#157=VERTEX_POINT('',#514);
#158=VERTEX_POINT('',#518);
#159=VERTEX_POINT('',#522);
#160=VERTEX_POINT('',#523);
#161=VERTEX_POINT('',#525);
#162=VERTEX_POINT('',#527);
#163=VERTEX_POINT('',#531);
#164=VERTEX_POINT('',#532);
#165=VERTEX_POINT('',#534);
#166=VERTEX_POINT('',#536);
#167=VERTEX_POINT('',#540);
#168=VERTEX_POINT('',#542);
#169=VERTEX_POINT('',#546);
#170=VERTEX_POINT('',#548);
#171=VERTEX_POINT('',#551);
#172=VERTEX_POINT('',#555);
#173=VERTEX_POINT('',#559);
#174=VERTEX_POINT('',#564);
#175=EDGE_CURVE('',#143,#144,#63,.T.);
#176=EDGE_CURVE('',#145,#143,#64,.T.);
#177=EDGE_CURVE('',#145,#146,#65,.T.);
#178=EDGE_CURVE('',#144,#146,#66,.T.);
#179=EDGE_CURVE('',#147,#145,#67,.T.);
#180=EDGE_CURVE('',#148,#147,#68,.T.);
#181=EDGE_CURVE('',#146,#148,#69,.T.);
#182=EDGE_CURVE('',#149,#150,#70,.T.);
#183=EDGE_CURVE('',#148,#150,#71,.T.);
#184=EDGE_CURVE('',#151,#147,#72,.T.);
#185=EDGE_CURVE('',#151,#152,#73,.T.);
#186=EDGE_CURVE('',#153,#152,#74,.T.);
#187=EDGE_CURVE('',#154,#153,#75,.T.);
#188=EDGE_CURVE('',#154,#149,#76,.T.);
#189=EDGE_CURVE('',#143,#151,#77,.T.);
#190=EDGE_CURVE('',#152,#144,#78,.T.);
#191=EDGE_CURVE('',#155,#156,#79,.T.);
#192=EDGE_CURVE('',#149,#155,#80,.T.);
#193=EDGE_CURVE('',#156,#154,#81,.T.);
#194=EDGE_CURVE('',#157,#153,#82,.T.);
#195=EDGE_CURVE('',#156,#157,#83,.T.);
#196=EDGE_CURVE('',#158,#155,#84,.T.);
#197=EDGE_CURVE('',#150,#158,#85,.T.);
#198=EDGE_CURVE('',#159,#160,#86,.T.);
#199=EDGE_CURVE('',#161,#159,#87,.T.);
#200=EDGE_CURVE('',#162,#161,#88,.T.);
#201=EDGE_CURVE('',#160,#162,#89,.T.);
#202=EDGE_CURVE('',#163,#164,#15,.T.);
#203=EDGE_CURVE('',#163,#165,#90,.T.);
#204=EDGE_CURVE('',#165,#166,#16,.T.);
#205=EDGE_CURVE('',#166,#164,#91,.T.);
#206=EDGE_CURVE('',#164,#167,#92,.T.);
#207=EDGE_CURVE('',#168,#166,#93,.T.);
#208=EDGE_CURVE('',#167,#168,#94,.T.);
#209=EDGE_CURVE('',#169,#161,#17,.T.);
#210=EDGE_CURVE('',#169,#170,#95,.T.);
#211=EDGE_CURVE('',#168,#170,#18,.T.);
#212=EDGE_CURVE('',#165,#171,#96,.T.);
#213=EDGE_CURVE('',#162,#171,#19,.T.);
#214=EDGE_CURVE('',#167,#172,#20,.T.);
#215=EDGE_CURVE('',#170,#172,#97,.T.);
#216=EDGE_CURVE('',#173,#163,#98,.T.);
#217=EDGE_CURVE('',#171,#173,#99,.T.);
#218=EDGE_CURVE('',#172,#157,#100,.T.);
#219=EDGE_CURVE('',#174,#169,#101,.T.);
#220=EDGE_CURVE('',#158,#174,#102,.T.);
#221=EDGE_CURVE('',#160,#173,#21,.T.);
#222=EDGE_CURVE('',#174,#159,#22,.T.);
#223=ORIENTED_EDGE('',*,*,#175,.F.);
#224=ORIENTED_EDGE('',*,*,#176,.F.);
#225=ORIENTED_EDGE('',*,*,#177,.T.);
#226=ORIENTED_EDGE('',*,*,#178,.F.);
#227=ORIENTED_EDGE('',*,*,#177,.F.);
#228=ORIENTED_EDGE('',*,*,#179,.F.);
#229=ORIENTED_EDGE('',*,*,#180,.F.);
#230=ORIENTED_EDGE('',*,*,#181,.F.);
#231=ORIENTED_EDGE('',*,*,#182,.T.);
#232=ORIENTED_EDGE('',*,*,#183,.F.);
#233=ORIENTED_EDGE('',*,*,#180,.T.);
#234=ORIENTED_EDGE('',*,*,#184,.F.);
#235=ORIENTED_EDGE('',*,*,#185,.T.);
#236=ORIENTED_EDGE('',*,*,#186,.F.);
#237=ORIENTED_EDGE('',*,*,#187,.F.);
#238=ORIENTED_EDGE('',*,*,#188,.T.);
#239=ORIENTED_EDGE('',*,*,#185,.F.);
#240=ORIENTED_EDGE('',*,*,#189,.F.);
#241=ORIENTED_EDGE('',*,*,#175,.T.);
#242=ORIENTED_EDGE('',*,*,#190,.F.);
#243=ORIENTED_EDGE('',*,*,#189,.T.);
#244=ORIENTED_EDGE('',*,*,#184,.T.);
#245=ORIENTED_EDGE('',*,*,#179,.T.);
#246=ORIENTED_EDGE('',*,*,#176,.T.);
#247=ORIENTED_EDGE('',*,*,#191,.F.);
#248=ORIENTED_EDGE('',*,*,#192,.F.);
#249=ORIENTED_EDGE('',*,*,#188,.F.);
#250=ORIENTED_EDGE('',*,*,#193,.F.);
#251=ORIENTED_EDGE('',*,*,#194,.F.);
#252=ORIENTED_EDGE('',*,*,#195,.F.);
#253=ORIENTED_EDGE('',*,*,#193,.T.);
#254=ORIENTED_EDGE('',*,*,#187,.T.);
#255=ORIENTED_EDGE('',*,*,#182,.F.);
#256=ORIENTED_EDGE('',*,*,#192,.T.);
#257=ORIENTED_EDGE('',*,*,#196,.F.);
#258=ORIENTED_EDGE('',*,*,#197,.F.);
#259=ORIENTED_EDGE('',*,*,#198,.F.);
#260=ORIENTED_EDGE('',*,*,#199,.F.);
#261=ORIENTED_EDGE('',*,*,#200,.F.);
#262=ORIENTED_EDGE('',*,*,#201,.F.);
#263=ORIENTED_EDGE('',*,*,#202,.F.);
#264=ORIENTED_EDGE('',*,*,#203,.T.);
#265=ORIENTED_EDGE('',*,*,#204,.T.);
#266=ORIENTED_EDGE('',*,*,#205,.T.);
#267=ORIENTED_EDGE('',*,*,#206,.F.);
#268=ORIENTED_EDGE('',*,*,#205,.F.);
#269=ORIENTED_EDGE('',*,*,#207,.F.);
#270=ORIENTED_EDGE('',*,*,#208,.F.);
#271=ORIENTED_EDGE('',*,*,#209,.F.);
#272=ORIENTED_EDGE('',*,*,#210,.T.);
#273=ORIENTED_EDGE('',*,*,#211,.F.);
#274=ORIENTED_EDGE('',*,*,#207,.T.);
#275=ORIENTED_EDGE('',*,*,#204,.F.);
#276=ORIENTED_EDGE('',*,*,#212,.T.);
#277=ORIENTED_EDGE('',*,*,#213,.F.);
#278=ORIENTED_EDGE('',*,*,#200,.T.);
#279=ORIENTED_EDGE('',*,*,#214,.F.);
#280=ORIENTED_EDGE('',*,*,#208,.T.);
#281=ORIENTED_EDGE('',*,*,#211,.T.);
#282=ORIENTED_EDGE('',*,*,#215,.T.);
#283=ORIENTED_EDGE('',*,*,#216,.F.);
#284=ORIENTED_EDGE('',*,*,#217,.F.);
#285=ORIENTED_EDGE('',*,*,#212,.F.);
#286=ORIENTED_EDGE('',*,*,#203,.F.);
#287=ORIENTED_EDGE('',*,*,#218,.F.);
#288=ORIENTED_EDGE('',*,*,#215,.F.);
#289=ORIENTED_EDGE('',*,*,#210,.F.);
#290=ORIENTED_EDGE('',*,*,#219,.F.);
#291=ORIENTED_EDGE('',*,*,#220,.F.);
#292=ORIENTED_EDGE('',*,*,#196,.T.);
#293=ORIENTED_EDGE('',*,*,#191,.T.);
#294=ORIENTED_EDGE('',*,*,#195,.T.);
#295=ORIENTED_EDGE('',*,*,#221,.F.);
#296=ORIENTED_EDGE('',*,*,#201,.T.);
#297=ORIENTED_EDGE('',*,*,#213,.T.);
#298=ORIENTED_EDGE('',*,*,#217,.T.);
#299=ORIENTED_EDGE('',*,*,#197,.T.);
#300=ORIENTED_EDGE('',*,*,#220,.T.);
#301=ORIENTED_EDGE('',*,*,#222,.T.);
#302=ORIENTED_EDGE('',*,*,#198,.T.);
#303=ORIENTED_EDGE('',*,*,#221,.T.);
#304=ORIENTED_EDGE('',*,*,#216,.T.);
#305=ORIENTED_EDGE('',*,*,#202,.T.);
#306=ORIENTED_EDGE('',*,*,#206,.T.);
#307=ORIENTED_EDGE('',*,*,#214,.T.);
#308=ORIENTED_EDGE('',*,*,#218,.T.);
#309=ORIENTED_EDGE('',*,*,#194,.T.);
#310=ORIENTED_EDGE('',*,*,#186,.T.);
#311=ORIENTED_EDGE('',*,*,#190,.T.);
#312=ORIENTED_EDGE('',*,*,#178,.T.);
#313=ORIENTED_EDGE('',*,*,#181,.T.);
#314=ORIENTED_EDGE('',*,*,#183,.T.);
#315=ORIENTED_EDGE('',*,*,#222,.F.);
#316=ORIENTED_EDGE('',*,*,#219,.T.);
#317=ORIENTED_EDGE('',*,*,#209,.T.);
#318=ORIENTED_EDGE('',*,*,#199,.T.);
#319=PLANE('',#353);
#320=PLANE('',#354);
#321=PLANE('',#355);
#322=PLANE('',#356);
#323=PLANE('',#357);
#324=PLANE('',#358);
#325=PLANE('',#359);
#326=PLANE('',#360);
#327=PLANE('',#361);
#328=PLANE('',#365);
#329=PLANE('',#366);
#330=PLANE('',#372);
#331=PLANE('',#373);
#332=PLANE('',#376);
#333=ADVANCED_FACE('',(#27),#319,.T.);
#334=ADVANCED_FACE('',(#28),#320,.T.);
#335=ADVANCED_FACE('',(#29),#321,.T.);
#336=ADVANCED_FACE('',(#30),#322,.T.);
#337=ADVANCED_FACE('',(#31),#323,.F.);
#338=ADVANCED_FACE('',(#32),#324,.F.);
#339=ADVANCED_FACE('',(#33),#325,.F.);
#340=ADVANCED_FACE('',(#34),#326,.F.);
#341=ADVANCED_FACE('',(#35),#327,.T.);
#342=ADVANCED_FACE('',(#36),#23,.T.);
#343=ADVANCED_FACE('',(#37),#328,.T.);
#344=ADVANCED_FACE('',(#38),#329,.T.);
#345=ADVANCED_FACE('',(#39),#24,.T.);
#346=ADVANCED_FACE('',(#40),#330,.T.);
#347=ADVANCED_FACE('',(#41),#331,.T.);
#348=ADVANCED_FACE('',(#42),#25,.T.);
#349=ADVANCED_FACE('',(#43),#332,.F.);
#350=ADVANCED_FACE('',(#44),#26,.T.);
#351=CLOSED_SHELL('',(#333,#334,#335,#336,#337,#338,#339,#340,#341,#342,
#343,#344,#345,#346,#347,#348,#349,#350));
#352=AXIS2_PLACEMENT_3D('',#473,#379,#380);
#353=AXIS2_PLACEMENT_3D('',#474,#381,#382);
#354=AXIS2_PLACEMENT_3D('',#483,#387,#388);
#355=AXIS2_PLACEMENT_3D('',#489,#392,#393);
#356=AXIS2_PLACEMENT_3D('',#503,#401,#402);
#357=AXIS2_PLACEMENT_3D('',#506,#405,#406);
#358=AXIS2_PLACEMENT_3D('',#507,#407,#408);
#359=AXIS2_PLACEMENT_3D('',#513,#412,#413);
#360=AXIS2_PLACEMENT_3D('',#517,#416,#417);
#361=AXIS2_PLACEMENT_3D('',#521,#420,#421);
#362=AXIS2_PLACEMENT_3D('',#530,#426,#427);
#363=AXIS2_PLACEMENT_3D('',#533,#428,#429);
#364=AXIS2_PLACEMENT_3D('',#537,#431,#432);
#365=AXIS2_PLACEMENT_3D('',#539,#434,#435);
#366=AXIS2_PLACEMENT_3D('',#545,#439,#440);
#367=AXIS2_PLACEMENT_3D('',#547,#441,#442);
#368=AXIS2_PLACEMENT_3D('',#550,#444,#445);
#369=AXIS2_PLACEMENT_3D('',#553,#447,#448);
#370=AXIS2_PLACEMENT_3D('',#554,#449,#450);
#371=AXIS2_PLACEMENT_3D('',#556,#451,#452);
#372=AXIS2_PLACEMENT_3D('',#558,#454,#455);
#373=AXIS2_PLACEMENT_3D('',#562,#458,#459);
#374=AXIS2_PLACEMENT_3D('',#567,#463,#464);
#375=AXIS2_PLACEMENT_3D('',#568,#465,#466);
#376=AXIS2_PLACEMENT_3D('',#569,#467,#468);
#377=AXIS2_PLACEMENT_3D('',#570,#469,#470);
#378=AXIS2_PLACEMENT_3D('',#571,#471,#472);
#379=DIRECTION('axis',(0.,0.,1.));
#380=DIRECTION('refdir',(1.,0.,0.));
#381=DIRECTION('center_axis',(0.,1.,0.));
#382=DIRECTION('ref_axis',(-1.,0.,0.));
#383=DIRECTION('',(0.,0.,1.));
#384=DIRECTION('',(1.,0.,0.));
#385=DIRECTION('',(0.,0.,1.));
#386=DIRECTION('',(-1.,0.,0.));
#387=DIRECTION('center_axis',(1.,-1.43637658344664E-16,0.));
#388=DIRECTION('ref_axis',(1.43637658344664E-16,1.,0.));
#389=DIRECTION('',(-1.43637658344664E-16,-1.,0.));
#390=DIRECTION('',(0.,0.,-1.));
#391=DIRECTION('',(1.43637658344664E-16,1.,0.));
#392=DIRECTION('center_axis',(-1.40336077435537E-17,-1.,0.));
#393=DIRECTION('ref_axis',(1.,-1.40336077435537E-17,0.));
#394=DIRECTION('',(0.,0.,1.));
#395=DIRECTION('',(1.,-1.40336077435537E-17,0.));
#396=DIRECTION('',(-1.,1.40336077435537E-17,0.));
#397=DIRECTION('',(0.,0.,1.));
#398=DIRECTION('',(1.,-1.40336077435537E-17,0.));
#399=DIRECTION('',(0.,0.,1.));
#400=DIRECTION('',(-1.,1.40336077435537E-17,0.));
#401=DIRECTION('center_axis',(-1.,0.,0.));
#402=DIRECTION('ref_axis',(0.,-1.,0.));
#403=DIRECTION('',(0.,1.,0.));
#404=DIRECTION('',(0.,-1.,0.));
#405=DIRECTION('center_axis',(0.,0.,-1.));
#406=DIRECTION('ref_axis',(-1.,0.,0.));
#407=DIRECTION('center_axis',(0.,0.,-1.));
#408=DIRECTION('ref_axis',(-1.,0.,0.));
#409=DIRECTION('',(1.,0.,0.));
#410=DIRECTION('',(0.,1.,0.));
#411=DIRECTION('',(0.,-1.,0.));
#412=DIRECTION('center_axis',(1.,0.,0.));
#413=DIRECTION('ref_axis',(0.,-1.,0.));
#414=DIRECTION('',(0.,-1.,0.));
#415=DIRECTION('',(0.,0.,1.));
#416=DIRECTION('center_axis',(-1.,0.,0.));
#417=DIRECTION('ref_axis',(0.,1.,0.));
#418=DIRECTION('',(0.,0.,-1.));
#419=DIRECTION('',(0.,1.,0.));
#420=DIRECTION('center_axis',(-1.,1.23644662144377E-16,0.));
#421=DIRECTION('ref_axis',(1.23644662144377E-16,1.,0.));
#422=DIRECTION('',(-1.23644662144377E-16,-1.,0.));
#423=DIRECTION('',(0.,0.,1.));
#424=DIRECTION('',(1.23644662144377E-16,1.,0.));
#425=DIRECTION('',(0.,0.,-1.));
#426=DIRECTION('center_axis',(0.,0.,1.));
#427=DIRECTION('ref_axis',(0.707106781186548,-0.707106781186548,0.));
#428=DIRECTION('center_axis',(0.,0.,1.));
#429=DIRECTION('ref_axis',(0.707106781186548,-0.707106781186548,0.));
#430=DIRECTION('',(0.,0.,-1.));
#431=DIRECTION('center_axis',(0.,0.,1.));
#432=DIRECTION('ref_axis',(0.707106781186548,-0.707106781186548,0.));
#433=DIRECTION('',(0.,0.,1.));
#434=DIRECTION('center_axis',(1.,0.,0.));
#435=DIRECTION('ref_axis',(0.,-1.,0.));
#436=DIRECTION('',(0.,1.,0.));
#437=DIRECTION('',(0.,-1.,0.));
#438=DIRECTION('',(0.,0.,-1.));
#439=DIRECTION('center_axis',(0.,0.,-1.));
#440=DIRECTION('ref_axis',(-1.,0.,0.));
#441=DIRECTION('center_axis',(0.,0.,1.));
#442=DIRECTION('ref_axis',(-0.707106781186549,0.707106781186546,0.));
#443=DIRECTION('',(1.,0.,0.));
#444=DIRECTION('center_axis',(0.,0.,1.));
#445=DIRECTION('ref_axis',(0.707106781186552,0.707106781186543,0.));
#446=DIRECTION('',(-1.,0.,0.));
#447=DIRECTION('center_axis',(0.,0.,1.));
#448=DIRECTION('ref_axis',(-0.707106781186544,-0.707106781186551,0.));
#449=DIRECTION('center_axis',(0.,0.,1.));
#450=DIRECTION('ref_axis',(0.707106781186552,0.707106781186543,0.));
#451=DIRECTION('center_axis',(0.,0.,1.));
#452=DIRECTION('ref_axis',(0.707106781186552,0.707106781186543,0.));
#453=DIRECTION('',(0.,0.,1.));
#454=DIRECTION('center_axis',(0.,-1.,0.));
#455=DIRECTION('ref_axis',(-1.,0.,0.));
#456=DIRECTION('',(1.,0.,0.));
#457=DIRECTION('',(0.,0.,1.));
#458=DIRECTION('center_axis',(0.,1.,0.));
#459=DIRECTION('ref_axis',(1.,0.,0.));
#460=DIRECTION('',(-1.,0.,0.));
#461=DIRECTION('',(0.,0.,-1.));
#462=DIRECTION('',(-1.,0.,0.));
#463=DIRECTION('center_axis',(0.,0.,-1.));
#464=DIRECTION('ref_axis',(-0.707106781186544,-0.707106781186551,0.));
#465=DIRECTION('center_axis',(0.,0.,1.));
#466=DIRECTION('ref_axis',(-0.707106781186544,-0.707106781186551,0.));
#467=DIRECTION('center_axis',(0.,0.,-1.));
#468=DIRECTION('ref_axis',(1.,0.,0.));
#469=DIRECTION('center_axis',(0.,0.,1.));
#470=DIRECTION('ref_axis',(-0.707106781186549,0.707106781186546,0.));
#471=DIRECTION('center_axis',(0.,0.,-1.));
#472=DIRECTION('ref_axis',(-0.707106781186549,0.707106781186546,0.));
#473=CARTESIAN_POINT('',(0.,0.,0.));
#474=CARTESIAN_POINT('Origin',(387.546929204225,-156.885054987144,-40.));
#475=CARTESIAN_POINT('',(387.546929204225,-156.885054987144,-42.));
#476=CARTESIAN_POINT('',(387.546929204225,-156.885054987144,-34.99));
#477=CARTESIAN_POINT('',(387.546929204225,-156.885054987144,-35.5));
#478=CARTESIAN_POINT('',(71.0999984040856,-156.885054987144,-42.));
#479=CARTESIAN_POINT('',(150.21173110412,-156.885054987144,-42.));
#480=CARTESIAN_POINT('',(71.0999984040856,-156.885054987144,-34.99));
#481=CARTESIAN_POINT('',(71.0999984040856,-156.885054987144,-40.));
#482=CARTESIAN_POINT('',(308.427418175034,-156.885054987144,-34.99));
#483=CARTESIAN_POINT('Origin',(71.0999984040856,-156.885054987144,-40.));
#484=CARTESIAN_POINT('',(71.0999984040856,-33.2157568468318,-42.));
#485=CARTESIAN_POINT('',(71.0999984040856,-64.1330813819098,-42.));
#486=CARTESIAN_POINT('',(71.0999984040856,-33.2157568468318,-34.99));
#487=CARTESIAN_POINT('',(71.0999984040856,-33.2157568468318,-40.));
#488=CARTESIAN_POINT('',(71.0999984040856,-126.087250434834,-34.99));
#489=CARTESIAN_POINT('Origin',(71.0999984040856,-33.2157568468318,-40.));
#490=CARTESIAN_POINT('',(361.360363839078,-33.2157568468318,-40.5));
#491=CARTESIAN_POINT('',(361.360363839078,-33.2157568468318,-34.99));
#492=CARTESIAN_POINT('',(361.360363839078,-33.2157568468318,-35.5));
#493=CARTESIAN_POINT('',(150.203952774964,-33.2157568468318,-34.99));
#494=CARTESIAN_POINT('',(387.546929204225,-33.2157568468318,-42.));
#495=CARTESIAN_POINT('',(308.43519650419,-33.2157568468318,-42.));
#496=CARTESIAN_POINT('',(387.546929204225,-33.2157568468318,-34.99));
#497=CARTESIAN_POINT('',(387.546929204225,-33.2157568468318,-35.5));
#498=CARTESIAN_POINT('',(382.467079716271,-33.2157568468318,-34.99));
#499=CARTESIAN_POINT('',(305.887493431057,-33.2157568468318,-34.99));
#500=CARTESIAN_POINT('',(382.467079716271,-33.2157568468318,-40.5));
#501=CARTESIAN_POINT('',(382.467079716271,-33.2157568468318,-35.5));
#502=CARTESIAN_POINT('',(221.50686009088,-33.2157568468318,-40.5));
#503=CARTESIAN_POINT('Origin',(387.546929204225,-33.2157568468318,-40.));
#504=CARTESIAN_POINT('',(387.546929204225,-125.967730452066,-42.));
#505=CARTESIAN_POINT('',(387.546929204225,-64.2526013646784,-34.99));
#506=CARTESIAN_POINT('Origin',(229.323463804155,-95.0504059169877,-42.));
#507=CARTESIAN_POINT('Origin',(371.913721777675,-28.2165119038429,-40.5));
#508=CARTESIAN_POINT('',(361.360363839078,-23.217266960854,-40.5));
#509=CARTESIAN_POINT('',(382.467079716271,-23.217266960854,-40.5));
#510=CARTESIAN_POINT('',(216.507615147891,-23.217266960854,-40.5));
#511=CARTESIAN_POINT('',(361.360363839078,-33.2157568468318,-40.5));
#512=CARTESIAN_POINT('',(382.467079716271,-23.217266960854,-40.5));
#513=CARTESIAN_POINT('Origin',(382.467079716271,-23.217266960854,-35.5));
#514=CARTESIAN_POINT('',(382.467079716271,-23.217266960854,-34.99));
#515=CARTESIAN_POINT('',(382.467079716271,-59.1338318293909,-34.99));
#516=CARTESIAN_POINT('',(382.467079716271,-23.217266960854,-35.5));
#517=CARTESIAN_POINT('Origin',(361.360363839078,-33.2157568468318,-35.5));
#518=CARTESIAN_POINT('',(361.360363839078,-23.217266960854,-34.99));
#519=CARTESIAN_POINT('',(361.360363839078,-23.217266960854,-37.75));
#520=CARTESIAN_POINT('',(361.360363839078,-64.2526013646784,-34.99));
#521=CARTESIAN_POINT('Origin',(61.1015085181078,-166.883544873121,-40.));
#522=CARTESIAN_POINT('',(61.1015085181079,-25.217266960854,-34.99));
#523=CARTESIAN_POINT('',(61.1015085181078,-164.883544873121,-34.99));
#524=CARTESIAN_POINT('',(61.1015085181078,-130.966970785525,-34.99));
#525=CARTESIAN_POINT('',(61.1015085181079,-25.217266960854,-45.));
#526=CARTESIAN_POINT('',(61.1015085181079,-25.217266960854,-40.));
#527=CARTESIAN_POINT('',(61.1015085181078,-164.883544873121,-45.));
#528=CARTESIAN_POINT('',(61.1015085181078,-166.883544873121,-45.));
#529=CARTESIAN_POINT('',(61.1015085181078,-164.883544873121,-40.));
#530=CARTESIAN_POINT('Origin',(395.545419090202,-164.883544873121,-40.));
#531=CARTESIAN_POINT('',(395.545419090202,-166.883544873121,-34.99));
#532=CARTESIAN_POINT('',(397.545419090202,-164.883544873121,-34.99));
#533=CARTESIAN_POINT('Origin',(395.545419090202,-164.883544873121,-34.99));
#534=CARTESIAN_POINT('',(395.545419090202,-166.883544873121,-45.));
#535=CARTESIAN_POINT('',(395.545419090202,-166.883544873121,-40.));
#536=CARTESIAN_POINT('',(397.545419090202,-164.883544873121,-45.));
#537=CARTESIAN_POINT('Origin',(395.545419090202,-164.883544873121,-45.));
#538=CARTESIAN_POINT('',(397.545419090202,-164.883544873121,-40.));
#539=CARTESIAN_POINT('Origin',(397.545419090202,-23.217266960854,-40.));
#540=CARTESIAN_POINT('',(397.545419090202,-25.217266960854,-34.99));
#541=CARTESIAN_POINT('',(397.545419090202,-59.1338318293909,-34.99));
#542=CARTESIAN_POINT('',(397.545419090202,-25.217266960854,-45.));
#543=CARTESIAN_POINT('',(397.545419090202,-23.217266960854,-45.));
#544=CARTESIAN_POINT('',(397.545419090202,-25.217266960854,-40.));
#545=CARTESIAN_POINT('Origin',(229.323463804155,-95.0504059169877,-45.));
#546=CARTESIAN_POINT('',(63.1015085181079,-23.217266960854,-45.));
#547=CARTESIAN_POINT('Origin',(63.1015085181079,-25.217266960854,-45.));
#548=CARTESIAN_POINT('',(395.545419090202,-23.217266960854,-45.));
#549=CARTESIAN_POINT('',(61.1015085181079,-23.217266960854,-45.));
#550=CARTESIAN_POINT('Origin',(395.545419090202,-25.217266960854,-45.));
#551=CARTESIAN_POINT('',(63.1015085181079,-166.883544873121,-45.));
#552=CARTESIAN_POINT('',(397.545419090202,-166.883544873121,-45.));
#553=CARTESIAN_POINT('Origin',(63.1015085181079,-164.883544873121,-45.));
#554=CARTESIAN_POINT('Origin',(395.545419090202,-25.217266960854,-40.));
#555=CARTESIAN_POINT('',(395.545419090202,-23.217266960854,-34.99));
#556=CARTESIAN_POINT('Origin',(395.545419090202,-25.217266960854,-34.99));
#557=CARTESIAN_POINT('',(395.545419090202,-23.217266960854,-40.));
#558=CARTESIAN_POINT('Origin',(397.545419090202,-166.883544873121,-40.));
#559=CARTESIAN_POINT('',(63.1015085181079,-166.883544873121,-34.99));
#560=CARTESIAN_POINT('',(313.434441447179,-166.883544873121,-34.99));
#561=CARTESIAN_POINT('',(63.1015085181079,-166.883544873121,-40.));
#562=CARTESIAN_POINT('Origin',(61.1015085181079,-23.217266960854,-40.));
#563=CARTESIAN_POINT('',(145.212486161131,-23.217266960854,-34.99));
#564=CARTESIAN_POINT('',(63.1015085181079,-23.217266960854,-34.99));
#565=CARTESIAN_POINT('',(63.1015085181079,-23.217266960854,-40.));
#566=CARTESIAN_POINT('',(295.334135492461,-23.217266960854,-34.99));
#567=CARTESIAN_POINT('Origin',(63.1015085181079,-164.883544873121,-40.));
#568=CARTESIAN_POINT('Origin',(63.1015085181079,-164.883544873121,-34.99));
#569=CARTESIAN_POINT('Origin',(361.36027986546,-22.8086501110463,-34.99));
#570=CARTESIAN_POINT('Origin',(63.1015085181079,-25.217266960854,-34.99));
#571=CARTESIAN_POINT('Origin',(63.1015085181079,-25.217266960854,-40.));
#572=UNCERTAINTY_MEASURE_WITH_UNIT(LENGTH_MEASURE(0.01),#576,
'DISTANCE_ACCURACY_VALUE',
'Maximum model space distance between geometric entities at asserted c
onnectivities');
#573=UNCERTAINTY_MEASURE_WITH_UNIT(LENGTH_MEASURE(0.01),#576,
'DISTANCE_ACCURACY_VALUE',
'Maximum model space distance between geometric entities at asserted c
onnectivities');
#574=(
GEOMETRIC_REPRESENTATION_CONTEXT(3)
GLOBAL_UNCERTAINTY_ASSIGNED_CONTEXT((#572))
GLOBAL_UNIT_ASSIGNED_CONTEXT((#576,#577,#578))
REPRESENTATION_CONTEXT('','3D')
);
#575=(
GEOMETRIC_REPRESENTATION_CONTEXT(3)
GLOBAL_UNCERTAINTY_ASSIGNED_CONTEXT((#573))
GLOBAL_UNIT_ASSIGNED_CONTEXT((#576,#577,#578))
REPRESENTATION_CONTEXT('','3D')
);
#576=(
LENGTH_UNIT()
NAMED_UNIT(*)
SI_UNIT(.MILLI.,.METRE.)
);
#577=(
NAMED_UNIT(*)
PLANE_ANGLE_UNIT()
SI_UNIT($,.RADIAN.)
);
#578=(
NAMED_UNIT(*)
SI_UNIT($,.STERADIAN.)
SOLID_ANGLE_UNIT()
);
#579=SHAPE_DEFINITION_REPRESENTATION(#580,#581);
#580=PRODUCT_DEFINITION_SHAPE('',$,#583);
#581=SHAPE_REPRESENTATION('',(#352),#574);
#582=PRODUCT_DEFINITION_CONTEXT('part definition',#587,'design');
#583=PRODUCT_DEFINITION('pcb3d 1','actual 67% keyboard',#584,#582);
#584=PRODUCT_DEFINITION_FORMATION('',$,#589);
#585=PRODUCT_RELATED_PRODUCT_CATEGORY('actual 67% keyboard',
'actual 67% keyboard',(#589));
#586=APPLICATION_PROTOCOL_DEFINITION('international standard',
'automotive_design',2009,#587);
#587=APPLICATION_CONTEXT(
'Core Data for Automotive Mechanical Design Process');
#588=PRODUCT_CONTEXT('part definition',#587,'mechanical');
#589=PRODUCT('pcb3d 1','actual 67% keyboard',
'KiCad electronic assembly',(#588));
#590=PRESENTATION_STYLE_ASSIGNMENT((#591));
#591=SURFACE_STYLE_USAGE(.BOTH.,#592);
#592=SURFACE_SIDE_STYLE('',(#593));
#593=SURFACE_STYLE_FILL_AREA(#594);
#594=FILL_AREA_STYLE('Steel - Satin',(#595));
#595=FILL_AREA_STYLE_COLOUR('Steel - Satin',#596);
#596=COLOUR_RGB('Steel - Satin',0.627450980392157,0.627450980392157,0.627450980392157);
ENDSEC;
END-ISO-10303-21;
