%TF.GenerationSoftware,KiCad,Pcbnew,10.0.4*%
%TF.CreationDate,2026-08-13T14:30:01-04:00*%
%TF.ProjectId,keyboard,6b657962-6f61-4726-942e-6b696361645f,rev?*%
%TF.SameCoordinates,Original*%
%TF.FileFunction,Copper,L2,Bot*%
%TF.FilePolarity,Positive*%
%FSLAX46Y46*%
G04 Gerber Fmt 4.6, Leading zero omitted, Abs format (unit mm)*
G04 Created by KiCad (PCBNEW 10.0.4) date 2026-08-13 14:30:01*
%MOMM*%
%LPD*%
G01*
G04 APERTURE LIST*
G04 Aperture macros list*
%AMRoundRect*
0 Rectangle with rounded corners*
0 $1 Rounding radius*
0 $2 $3 $4 $5 $6 $7 $8 $9 X,Y pos of 4 corners*
0 Add a 4 corners polygon primitive as box body*
4,1,4,$2,$3,$4,$5,$6,$7,$8,$9,$2,$3,0*
0 Add four circle primitives for the rounded corners*
1,1,$1+$1,$2,$3*
1,1,$1+$1,$4,$5*
1,1,$1+$1,$6,$7*
1,1,$1+$1,$8,$9*
0 Add four rect primitives between the rounded corners*
20,1,$1+$1,$2,$3,$4,$5,0*
20,1,$1+$1,$4,$5,$6,$7,0*
20,1,$1+$1,$6,$7,$8,$9,0*
20,1,$1+$1,$8,$9,$2,$3,0*%
G04 Aperture macros list end*
%TA.AperFunction,ComponentPad*%
%ADD10C,2.200000*%
%TD*%
%TA.AperFunction,ComponentPad*%
%ADD11RoundRect,0.170000X0.680000X-0.680000X0.680000X0.680000X-0.680000X0.680000X-0.680000X-0.680000X0*%
%TD*%
%TA.AperFunction,ComponentPad*%
%ADD12C,1.700000*%
%TD*%
%TA.AperFunction,ComponentPad*%
%ADD13RoundRect,0.200000X-0.600000X-0.600000X0.600000X-0.600000X0.600000X0.600000X-0.600000X0.600000X0*%
%TD*%
%TA.AperFunction,ComponentPad*%
%ADD14C,1.600000*%
%TD*%
%TA.AperFunction,ComponentPad*%
%ADD15R,2.000000X2.000000*%
%TD*%
%TA.AperFunction,ComponentPad*%
%ADD16C,2.000000*%
%TD*%
%TA.AperFunction,ComponentPad*%
%ADD17R,3.200000X2.000000*%
%TD*%
%TA.AperFunction,ComponentPad*%
%ADD18RoundRect,0.250000X0.550000X-0.550000X0.550000X0.550000X-0.550000X0.550000X-0.550000X-0.550000X0*%
%TD*%
%TA.AperFunction,ComponentPad*%
%ADD19RoundRect,0.250000X-0.550000X-0.550000X0.550000X-0.550000X0.550000X0.550000X-0.550000X0.550000X0*%
%TD*%
%TA.AperFunction,ComponentPad*%
%ADD20RoundRect,0.250000X-0.550000X0.550000X-0.550000X-0.550000X0.550000X-0.550000X0.550000X0.550000X0*%
%TD*%
%TA.AperFunction,ViaPad*%
%ADD21C,0.600000*%
%TD*%
%TA.AperFunction,Conductor*%
%ADD22C,0.200000*%
%TD*%
G04 APERTURE END LIST*
D10*
%TO.P,F9,1,1_1*%
%TO.N,/C5*%
X175585000Y-102370000D03*
%TO.P,F9,2,2_2*%
%TO.N,Net-(D43-A)*%
X169235000Y-104910000D03*
%TD*%
%TO.P,B1,1,1_1*%
%TO.N,/C6*%
X204335000Y-121645000D03*
%TO.P,B1,2,2_2*%
%TO.N,Net-(D57-A)*%
X197985000Y-124185000D03*
%TD*%
%TO.P,CMD1,1,1_1*%
%TO.N,/C4*%
X144595000Y-140670000D03*
%TO.P,CMD1,2,2_2*%
%TO.N,Net-(D67-A)*%
X138245000Y-143210000D03*
%TD*%
%TO.P,SPACE1,1,1_1*%
%TO.N,/C5*%
X216215000Y-140762500D03*
%TO.P,SPACE1,2,2_2*%
%TO.N,Net-(D68-A)*%
X209865000Y-143302500D03*
%TD*%
%TO.P,P1,1,1_1*%
%TO.N,/C11*%
X286440000Y-83195000D03*
%TO.P,P1,2,2_2*%
%TO.N,Net-(D35-A)*%
X280090000Y-85735000D03*
%TD*%
%TO.P,>1,1,1_1*%
%TO.N,/C10*%
X281315000Y-121470000D03*
%TO.P,>1,2,2_2*%
%TO.N,Net-(D61-A)*%
X274965000Y-124010000D03*
%TD*%
%TO.P,N9,1,1_1*%
%TO.N,/C10*%
X257135000Y-63970000D03*
%TO.P,N9,2,2_2*%
%TO.N,Net-(D19-A)*%
X250785000Y-66510000D03*
%TD*%
%TO.P,RCMD1,1,1_1*%
%TO.N,/C6*%
X287765000Y-140770000D03*
%TO.P,RCMD1,2,2_2*%
%TO.N,Net-(D69-A)*%
X281415000Y-143310000D03*
%TD*%
%TO.P,N0,1,1_1*%
%TO.N,/C11*%
X276515000Y-63895000D03*
%TO.P,N0,2,2_2*%
%TO.N,Net-(D20-A)*%
X270165000Y-66435000D03*
%TD*%
%TO.P,M1,1,1_1*%
%TO.N,/C8*%
X242860000Y-121470000D03*
%TO.P,M1,2,2_2*%
%TO.N,Net-(D59-A)*%
X236510000Y-124010000D03*
%TD*%
%TO.P,X1,1,1_1*%
%TO.N,/C3*%
X146815000Y-121545000D03*
%TO.P,X1,2,2_2*%
%TO.N,Net-(D54-A)*%
X140465000Y-124085000D03*
%TD*%
%TO.P,V1,1,1_1*%
%TO.N,/C5*%
X185115000Y-121570000D03*
%TO.P,V1,2,2_2*%
%TO.N,Net-(D56-A)*%
X178765000Y-124110000D03*
%TD*%
%TO.P,N3,1,1_1*%
%TO.N,/C4*%
X142345000Y-63970000D03*
%TO.P,N3,2,2_2*%
%TO.N,Net-(D13-A)*%
X135995000Y-66510000D03*
%TD*%
%TO.P,E1,1,1_1*%
%TO.N,/C4*%
X151675000Y-83275000D03*
%TO.P,E1,2,2_2*%
%TO.N,Net-(D28-A)*%
X145325000Y-85815000D03*
%TD*%
%TO.P,R1,1,1_1*%
%TO.N,/C5*%
X171020000Y-83345000D03*
%TO.P,R1,2,2_2*%
%TO.N,Net-(D29-A)*%
X164670000Y-85885000D03*
%TD*%
%TO.P,W1,1,1_1*%
%TO.N,/C3*%
X132415000Y-83195000D03*
%TO.P,W1,2,2_2*%
%TO.N,Net-(D27-A)*%
X126065000Y-85735000D03*
%TD*%
%TO.P,{1,1,1_1*%
%TO.N,/C12*%
X305550000Y-83200000D03*
%TO.P,{1,2,2_2*%
%TO.N,Net-(D36-A)*%
X299200000Y-85740000D03*
%TD*%
%TO.P,N1,1,1_1*%
%TO.N,/C2*%
X103925000Y-64010000D03*
%TO.P,N1,2,2_2*%
%TO.N,Net-(D11-A)*%
X97575000Y-66550000D03*
%TD*%
%TO.P,LFN1,1,1_1*%
%TO.N,/C1*%
X84725000Y-140635000D03*
%TO.P,LFN1,2,2_2*%
%TO.N,Net-(D64-A)*%
X78375000Y-143175000D03*
%TD*%
%TO.P,F4,1,1_1*%
%TO.N,/C5*%
X208595000Y-40325000D03*
%TO.P,F4,2,2_2*%
%TO.N,Net-(D5-A)*%
X202245000Y-42865000D03*
%TD*%
%TO.P,N6,1,1_1*%
%TO.N,/C7*%
X199735000Y-63945000D03*
%TO.P,N6,2,2_2*%
%TO.N,Net-(D16-A)*%
X193385000Y-66485000D03*
%TD*%
%TO.P,L1,1,1_1*%
%TO.N,/C10*%
X272040000Y-102395000D03*
%TO.P,L1,2,2_2*%
%TO.N,Net-(D48-A)*%
X265690000Y-104935000D03*
%TD*%
%TO.P,N7,1,1_1*%
%TO.N,/C8*%
X218840000Y-63945000D03*
%TO.P,N7,2,2_2*%
%TO.N,Net-(D17-A)*%
X212490000Y-66485000D03*
%TD*%
%TO.P,ROPTION1,1,1_1*%
%TO.N,/C7*%
X309395000Y-140795000D03*
%TO.P,ROPTION1,2,2_2*%
%TO.N,Net-(D70-A)*%
X303045000Y-143335000D03*
%TD*%
%TO.P,G1,1,1_1*%
%TO.N,/C6*%
X194810000Y-102370000D03*
%TO.P,G1,2,2_2*%
%TO.N,Net-(D44-A)*%
X188460000Y-104910000D03*
%TD*%
%TO.P,DELL1,1,1_1*%
%TO.N,/C13*%
X339095000Y-63920000D03*
%TO.P,DELL1,2,2_2*%
%TO.N,Net-(D152-A)*%
X332745000Y-66460000D03*
%TD*%
%TO.P,O1,1,1_1*%
%TO.N,/C10*%
X267210000Y-83220000D03*
%TO.P,O1,2,2_2*%
%TO.N,Net-(D34-A)*%
X260860000Y-85760000D03*
%TD*%
%TO.P,-1,1,1_1*%
%TO.N,/C12*%
X295820000Y-63995000D03*
%TO.P,-1,2,2_2*%
%TO.N,Net-(D21-A)*%
X289470000Y-66535000D03*
%TD*%
%TO.P,F3,1,1_1*%
%TO.N,/C4*%
X172325000Y-40185000D03*
%TO.P,F3,2,2_2*%
%TO.N,Net-(D4-A)*%
X165975000Y-42725000D03*
%TD*%
%TO.P,?/1,1,1_1*%
%TO.N,/C11*%
X300585000Y-121620000D03*
%TO.P,?/1,2,2_2*%
%TO.N,Net-(D62-A)*%
X294235000Y-124160000D03*
%TD*%
%TO.P,RSHIFT3,1,1_1*%
%TO.N,/C13*%
X378030000Y-109155000D03*
%TO.P,RSHIFT3,2,2_2*%
%TO.N,Net-(D99-A)*%
X371680000Y-111695000D03*
%TD*%
%TO.P,LEFT1,1,1_1*%
%TO.N,/C8*%
X338625000Y-140750000D03*
%TO.P,LEFT1,2,2_2*%
%TO.N,Net-(D71-A)*%
X332275000Y-143290000D03*
%TD*%
%TO.P,S1,1,1_1*%
%TO.N,/C3*%
X137240000Y-102345000D03*
%TO.P,S1,2,2_2*%
%TO.N,Net-(D41-A)*%
X130890000Y-104885000D03*
%TD*%
%TO.P,Q1,1,1_1*%
%TO.N,/C2*%
X113240000Y-83195000D03*
%TO.P,Q1,2,2_2*%
%TO.N,Net-(D26-A)*%
X106890000Y-85735000D03*
%TD*%
D11*
%TO.P,U1,1,GND_1*%
%TO.N,GND*%
X262275000Y-49335000D03*
D12*
%TO.P,U1,2,VCC_2*%
%TO.N,+3.3V*%
X262275000Y-46795000D03*
%TO.P,U1,3,SCL_3*%
%TO.N,/SCL*%
X262275000Y-44255000D03*
%TO.P,U1,4,SDA_4*%
%TO.N,/SDA*%
X262275000Y-41715000D03*
%TD*%
D10*
%TO.P,N8,1,1_1*%
%TO.N,/C9*%
X238040000Y-63970000D03*
%TO.P,N8,2,2_2*%
%TO.N,Net-(D18-A)*%
X231690000Y-66510000D03*
%TD*%
%TO.P,ENTER1,1,1_1*%
%TO.N,/C13*%
X336770000Y-102470000D03*
%TO.P,ENTER1,2,2_2*%
%TO.N,Net-(D51-A)*%
X330420000Y-105010000D03*
%TD*%
%TO.P,CAPS1,1,1_1*%
%TO.N,/C1*%
X91770000Y-102270000D03*
%TO.P,CAPS1,2,2_2*%
%TO.N,Net-(D39-A)*%
X85420000Y-104810000D03*
%TD*%
%TO.P,K1,1,1_1*%
%TO.N,/C9*%
X252810000Y-102445000D03*
%TO.P,K1,2,2_2*%
%TO.N,Net-(D47-A)*%
X246460000Y-104985000D03*
%TD*%
%TO.P,Y1,1,1_1*%
%TO.N,/C7*%
X209210000Y-83145000D03*
%TO.P,Y1,2,2_2*%
%TO.N,Net-(D31-A)*%
X202860000Y-85685000D03*
%TD*%
%TO.P,abovetab1,1,1_1*%
%TO.N,/C1*%
X84640000Y-64045000D03*
%TO.P,abovetab1,2,2_2*%
%TO.N,Net-(D10-A)*%
X78290000Y-66585000D03*
%TD*%
%TO.P,Tab1,1,1_1*%
%TO.N,/C1*%
X89370000Y-83145000D03*
%TO.P,Tab1,2,2_2*%
%TO.N,Net-(D25-A)*%
X83020000Y-85685000D03*
%TD*%
%TO.P,=2,1,1_1*%
%TO.N,/C13*%
X315145000Y-63920000D03*
%TO.P,=2,2,2_2*%
%TO.N,Net-(D24-A)*%
X308795000Y-66460000D03*
%TD*%
%TO.P,A2,1,1_1*%
%TO.N,/C2*%
X118085000Y-102345000D03*
%TO.P,A2,2,2_2*%
%TO.N,Net-(D40-A)*%
X111735000Y-104885000D03*
%TD*%
%TO.P,DOWN1,1,1_1*%
%TO.N,/C10*%
X357815000Y-140820000D03*
%TO.P,DOWN1,2,2_2*%
%TO.N,Net-(D73-A)*%
X351465000Y-143360000D03*
%TD*%
%TO.P,ESC1,1,1_1*%
%TO.N,/C1*%
X89105000Y-40095000D03*
%TO.P,ESC1,2,2_2*%
%TO.N,Net-(D1-A)*%
X82755000Y-42635000D03*
%TD*%
%TO.P,RSHIFT2,1,1_1*%
%TO.N,/C13*%
X378015000Y-90045000D03*
%TO.P,RSHIFT2,2,2_2*%
%TO.N,Net-(D98-A)*%
X371665000Y-92585000D03*
%TD*%
%TO.P,OPTION1,1,1_1*%
%TO.N,/C3*%
X122960000Y-140670000D03*
%TO.P,OPTION1,2,2_2*%
%TO.N,Net-(D66-A)*%
X116610000Y-143210000D03*
%TD*%
%TO.P,:;1,1,1_1*%
%TO.N,/C11*%
X291215000Y-102445000D03*
%TO.P,:;1,2,2_2*%
%TO.N,Net-(D49-A)*%
X284865000Y-104985000D03*
%TD*%
%TO.P,Z1,1,1_1*%
%TO.N,/C2*%
X127575000Y-121535000D03*
%TO.P,Z1,2,2_2*%
%TO.N,Net-(D53-A)*%
X121225000Y-124075000D03*
%TD*%
%TO.P,LCRTL1,1,1_1*%
%TO.N,/C2*%
X103785000Y-140545000D03*
%TO.P,LCRTL1,2,2_2*%
%TO.N,Net-(D65-A)*%
X97435000Y-143085000D03*
%TD*%
%TO.P,N5,1,1_1*%
%TO.N,/C6*%
X180715000Y-64020000D03*
%TO.P,N5,2,2_2*%
%TO.N,Net-(D15-A)*%
X174365000Y-66560000D03*
%TD*%
%TO.P,}1,1,1_1*%
%TO.N,/C13*%
X324740000Y-83070000D03*
%TO.P,}1,2,2_2*%
%TO.N,Net-(D37-A)*%
X318390000Y-85610000D03*
%TD*%
%TO.P,H1,1,1_1*%
%TO.N,/C7*%
X214035000Y-102370000D03*
%TO.P,H1,2,2_2*%
%TO.N,Net-(D45-A)*%
X207685000Y-104910000D03*
%TD*%
%TO.P,RSHIFT1,1,1_1*%
%TO.N,/C12*%
X331640000Y-121637500D03*
%TO.P,RSHIFT1,2,2_2*%
%TO.N,Net-(D63-A)*%
X325290000Y-124177500D03*
%TD*%
%TO.P,J1,1,1_1*%
%TO.N,/C8*%
X233515000Y-102345000D03*
%TO.P,J1,2,2_2*%
%TO.N,Net-(D46-A)*%
X227165000Y-104885000D03*
%TD*%
%TO.P,N4,1,1_1*%
%TO.N,/C5*%
X161415000Y-63995000D03*
%TO.P,N4,2,2_2*%
%TO.N,Net-(D14-A)*%
X155065000Y-66535000D03*
%TD*%
%TO.P,<1,1,1_1*%
%TO.N,/C9*%
X262140000Y-121570000D03*
%TO.P,<1,2,2_2*%
%TO.N,Net-(D60-A)*%
X255790000Y-124110000D03*
%TD*%
%TO.P,LSHIFT1,1,1_1*%
%TO.N,/C1*%
X96515000Y-121455000D03*
%TO.P,LSHIFT1,2,2_2*%
%TO.N,Net-(D52-A)*%
X90165000Y-123995000D03*
%TD*%
%TO.P,D151,1,1_1*%
%TO.N,/C4*%
X156400000Y-102375000D03*
%TO.P,D151,2,2_2*%
%TO.N,Net-(D42-A)*%
X150050000Y-104915000D03*
%TD*%
D13*
%TO.P,A1,D1*%
%TO.N,N/C*%
X372394100Y-54955000D03*
D14*
%TO.P,A1,D2*%
X374934100Y-54955000D03*
%TO.P,A1,D3*%
X377474100Y-54955000D03*
%TD*%
D10*
%TO.P,F5,1,1_1*%
%TO.N,/C6*%
X227775000Y-40350000D03*
%TO.P,F5,2,2_2*%
%TO.N,Net-(D6-A)*%
X221425000Y-42890000D03*
%TD*%
%TO.P,I1,1,1_1*%
%TO.N,/C9*%
X247915000Y-83070000D03*
%TO.P,I1,2,2_2*%
%TO.N,Net-(D33-A)*%
X241565000Y-85610000D03*
%TD*%
%TO.P,F6,1,1_1*%
%TO.N,/C7*%
X246985000Y-40370000D03*
%TO.P,F6,2,2_2*%
%TO.N,Net-(D7-A)*%
X240635000Y-42910000D03*
%TD*%
%TO.P,T1,1,1_1*%
%TO.N,/C6*%
X190060000Y-83320000D03*
%TO.P,T1,2,2_2*%
%TO.N,Net-(D30-A)*%
X183710000Y-85860000D03*
%TD*%
%TO.P,F1,1,1_1*%
%TO.N,/C2*%
X133990000Y-40160000D03*
%TO.P,F1,2,2_2*%
%TO.N,Net-(D2-A)*%
X127640000Y-42700000D03*
%TD*%
%TO.P,UP1,1,1_1*%
%TO.N,/C9*%
X357810000Y-121670000D03*
%TO.P,UP1,2,2_2*%
%TO.N,Net-(D72-A)*%
X351460000Y-124210000D03*
%TD*%
%TO.P,N2,1,1_1*%
%TO.N,/C3*%
X123190000Y-63995000D03*
%TO.P,N2,2,2_2*%
%TO.N,Net-(D12-A)*%
X116840000Y-66535000D03*
%TD*%
%TO.P,U2,1,1_1*%
%TO.N,/C8*%
X228625000Y-83100000D03*
%TO.P,U2,2,2_2*%
%TO.N,Net-(D32-A)*%
X222275000Y-85640000D03*
%TD*%
%TO.P,C1,1,1_1*%
%TO.N,/C4*%
X165965000Y-121545000D03*
%TO.P,C1,2,2_2*%
%TO.N,Net-(D55-A)*%
X159615000Y-124085000D03*
%TD*%
%TO.P,"'1,1,1_1*%
%TO.N,/C12*%
X310465000Y-102470000D03*
%TO.P,"'1,2,2_2*%
%TO.N,Net-(D50-A)*%
X304115000Y-105010000D03*
%TD*%
%TO.P,N10,1,1_1*%
%TO.N,/C7*%
X223490000Y-121445000D03*
%TO.P,N10,2,2_2*%
%TO.N,Net-(D58-A)*%
X217140000Y-123985000D03*
%TD*%
%TO.P,RIGHT1,1,1_1*%
%TO.N,/C11*%
X377115000Y-140820000D03*
%TO.P,RIGHT1,2,2_2*%
%TO.N,Net-(D74-A)*%
X370765000Y-143360000D03*
%TD*%
%TO.P,F2,1,1_1*%
%TO.N,/C3*%
X153195000Y-40160000D03*
%TO.P,F2,2,2_2*%
%TO.N,Net-(D3-A)*%
X146845000Y-42700000D03*
%TD*%
%TO.P,\u005C|1,1,1_1*%
%TO.N,/C12*%
X343845000Y-83095000D03*
%TO.P,\u005C|1,2,2_2*%
%TO.N,Net-(D38-A)*%
X337495000Y-85635000D03*
%TD*%
D15*
%TO.P,SW2,A,A_A*%
%TO.N,/A2*%
X332000000Y-43425000D03*
D16*
%TO.P,SW2,B,B_B*%
%TO.N,/B2*%
X332000000Y-48425000D03*
%TO.P,SW2,C,C_C*%
%TO.N,GND*%
X332000000Y-45925000D03*
D17*
%TO.P,SW2,MP*%
%TO.N,N/C*%
X339500000Y-40325000D03*
X339500000Y-51525000D03*
D16*
%TO.P,SW2,S1,S1_S1*%
%TO.N,/C12*%
X346500000Y-48425000D03*
%TO.P,SW2,S2,S2_S2*%
%TO.N,Net-(D76-A)*%
X346500000Y-43425000D03*
%TD*%
D15*
%TO.P,SW1,A,A_A*%
%TO.N,/A1*%
X304375000Y-43275000D03*
D16*
%TO.P,SW1,B,B_B*%
%TO.N,/B1*%
X304375000Y-48275000D03*
%TO.P,SW1,C,C_C*%
%TO.N,GND*%
X304375000Y-45775000D03*
D17*
%TO.P,SW1,MP*%
%TO.N,N/C*%
X311875000Y-40175000D03*
X311875000Y-51375000D03*
D16*
%TO.P,SW1,S1,S1_S1*%
%TO.N,/C11*%
X318875000Y-48275000D03*
%TO.P,SW1,S2,S2_S2*%
%TO.N,Net-(D75-A)*%
X318875000Y-43275000D03*
%TD*%
D18*
%TO.P,D152,1,K_1*%
%TO.N,/R1*%
X327475000Y-74185000D03*
D14*
%TO.P,D152,2,A_2*%
%TO.N,Net-(D152-A)*%
X327475000Y-66565000D03*
%TD*%
D18*
%TO.P,D69,1,K_1*%
%TO.N,/R6*%
X274175000Y-150185000D03*
D14*
%TO.P,D69,2,A_2*%
%TO.N,Net-(D69-A)*%
X274175000Y-142565000D03*
%TD*%
D18*
%TO.P,D56,1,K_1*%
%TO.N,/R5*%
X173200000Y-131220000D03*
D14*
%TO.P,D56,2,A_2*%
%TO.N,Net-(D56-A)*%
X173200000Y-123600000D03*
%TD*%
D18*
%TO.P,D38,1,K_1*%
%TO.N,/R6*%
X331500000Y-93010000D03*
D14*
%TO.P,D38,2,A_2*%
%TO.N,Net-(D38-A)*%
X331500000Y-85390000D03*
%TD*%
D18*
%TO.P,D47,1,K_1*%
%TO.N,/R4*%
X240725000Y-112435000D03*
D14*
%TO.P,D47,2,A_2*%
%TO.N,Net-(D47-A)*%
X240725000Y-104815000D03*
%TD*%
D18*
%TO.P,D57,1,K_1*%
%TO.N,/R5*%
X192475000Y-131470000D03*
D14*
%TO.P,D57,2,A_2*%
%TO.N,Net-(D57-A)*%
X192475000Y-123850000D03*
%TD*%
D18*
%TO.P,D76,1,K_1*%
%TO.N,/R1*%
X328175000Y-50410000D03*
D14*
%TO.P,D76,2,A_2*%
%TO.N,Net-(D76-A)*%
X328175000Y-42790000D03*
%TD*%
D18*
%TO.P,D59,1,K_1*%
%TO.N,/R5*%
X230525000Y-130860000D03*
D14*
%TO.P,D59,2,A_2*%
%TO.N,Net-(D59-A)*%
X230525000Y-123240000D03*
%TD*%
D18*
%TO.P,D42,1,K_1*%
%TO.N,/R4*%
X144500000Y-112210000D03*
D14*
%TO.P,D42,2,A_2*%
%TO.N,Net-(D42-A)*%
X144500000Y-104590000D03*
%TD*%
D18*
%TO.P,D3,1,K_1*%
%TO.N,/R1*%
X141850000Y-50300000D03*
D14*
%TO.P,D3,2,A_2*%
%TO.N,Net-(D3-A)*%
X141850000Y-42680000D03*
%TD*%
D18*
%TO.P,D71,1,K_1*%
%TO.N,/R6*%
X318225000Y-151495000D03*
D14*
%TO.P,D71,2,A_2*%
%TO.N,Net-(D71-A)*%
X318225000Y-143875000D03*
%TD*%
D18*
%TO.P,D6,1,K_1*%
%TO.N,/R1*%
X215850000Y-50365000D03*
D14*
%TO.P,D6,2,A_2*%
%TO.N,Net-(D6-A)*%
X215850000Y-42745000D03*
%TD*%
D18*
%TO.P,D99,1,K_1*%
%TO.N,/R6*%
X363650000Y-114685000D03*
D14*
%TO.P,D99,2,A_2*%
%TO.N,Net-(D99-A)*%
X363650000Y-107065000D03*
%TD*%
D18*
%TO.P,D1,1,K_1*%
%TO.N,/R1*%
X94985000Y-49625000D03*
D14*
%TO.P,D1,2,A_2*%
%TO.N,Net-(D1-A)*%
X94985000Y-42005000D03*
%TD*%
D18*
%TO.P,D5,1,K_1*%
%TO.N,/R1*%
X196950000Y-50550000D03*
D14*
%TO.P,D5,2,A_2*%
%TO.N,Net-(D5-A)*%
X196950000Y-42930000D03*
%TD*%
D18*
%TO.P,D40,1,K_1*%
%TO.N,/R4*%
X105725000Y-111210000D03*
D14*
%TO.P,D40,2,A_2*%
%TO.N,Net-(D40-A)*%
X105725000Y-103590000D03*
%TD*%
D18*
%TO.P,D62,1,K_1*%
%TO.N,/R5*%
X288750000Y-132185000D03*
D14*
%TO.P,D62,2,A_2*%
%TO.N,Net-(D62-A)*%
X288750000Y-124565000D03*
%TD*%
D18*
%TO.P,D70,1,K_1*%
%TO.N,/R6*%
X294350000Y-150700000D03*
D14*
%TO.P,D70,2,A_2*%
%TO.N,Net-(D70-A)*%
X294350000Y-143080000D03*
%TD*%
D18*
%TO.P,D17,1,K_1*%
%TO.N,/R2*%
X206650000Y-74150000D03*
D14*
%TO.P,D17,2,A_2*%
%TO.N,Net-(D17-A)*%
X206650000Y-66530000D03*
%TD*%
D18*
%TO.P,D35,1,K_1*%
%TO.N,/R3*%
X274250000Y-92150000D03*
D14*
%TO.P,D35,2,A_2*%
%TO.N,Net-(D35-A)*%
X274250000Y-84530000D03*
%TD*%
D18*
%TO.P,D25,1,K_1*%
%TO.N,/R3*%
X75675000Y-92435000D03*
D14*
%TO.P,D25,2,A_2*%
%TO.N,Net-(D25-A)*%
X75675000Y-84815000D03*
%TD*%
D18*
%TO.P,D13,1,K_1*%
%TO.N,/R2*%
X129900000Y-73450000D03*
D14*
%TO.P,D13,2,A_2*%
%TO.N,Net-(D13-A)*%
X129900000Y-65830000D03*
%TD*%
D18*
%TO.P,D61,1,K_1*%
%TO.N,/R5*%
X269450000Y-130860000D03*
D14*
%TO.P,D61,2,A_2*%
%TO.N,Net-(D61-A)*%
X269450000Y-123240000D03*
%TD*%
D18*
%TO.P,D33,1,K_1*%
%TO.N,/R3*%
X235125000Y-93685000D03*
D14*
%TO.P,D33,2,A_2*%
%TO.N,Net-(D33-A)*%
X235125000Y-86065000D03*
%TD*%
D18*
%TO.P,D65,1,K_1*%
%TO.N,/R6*%
X93100000Y-150335000D03*
D14*
%TO.P,D65,2,A_2*%
%TO.N,Net-(D65-A)*%
X93100000Y-142715000D03*
%TD*%
D18*
%TO.P,D30,1,K_1*%
%TO.N,/R3*%
X178125000Y-92860000D03*
D14*
%TO.P,D30,2,A_2*%
%TO.N,Net-(D30-A)*%
X178125000Y-85240000D03*
%TD*%
D18*
%TO.P,D55,1,K_1*%
%TO.N,/R5*%
X154150000Y-131470000D03*
D14*
%TO.P,D55,2,A_2*%
%TO.N,Net-(D55-A)*%
X154150000Y-123850000D03*
%TD*%
D18*
%TO.P,D58,1,K_1*%
%TO.N,/R5*%
X211825000Y-130985000D03*
D14*
%TO.P,D58,2,A_2*%
%TO.N,Net-(D58-A)*%
X211825000Y-123365000D03*
%TD*%
D18*
%TO.P,D16,1,K_1*%
%TO.N,/R2*%
X187350000Y-73750000D03*
D14*
%TO.P,D16,2,A_2*%
%TO.N,Net-(D16-A)*%
X187350000Y-66130000D03*
%TD*%
D18*
%TO.P,D27,1,K_1*%
%TO.N,/R3*%
X120675000Y-92435000D03*
D14*
%TO.P,D27,2,A_2*%
%TO.N,Net-(D27-A)*%
X120675000Y-84815000D03*
%TD*%
D18*
%TO.P,D64,1,K_1*%
%TO.N,/R6*%
X73975000Y-150785000D03*
D14*
%TO.P,D64,2,A_2*%
%TO.N,Net-(D64-A)*%
X73975000Y-143165000D03*
%TD*%
D18*
%TO.P,D21,1,K_1*%
%TO.N,/R2*%
X283350000Y-73650000D03*
D14*
%TO.P,D21,2,A_2*%
%TO.N,Net-(D21-A)*%
X283350000Y-66030000D03*
%TD*%
D18*
%TO.P,D36,1,K_1*%
%TO.N,/R3*%
X294000000Y-92485000D03*
D14*
%TO.P,D36,2,A_2*%
%TO.N,Net-(D36-A)*%
X294000000Y-84865000D03*
%TD*%
D18*
%TO.P,D11,1,K_1*%
%TO.N,/R2*%
X93450000Y-74325000D03*
D14*
%TO.P,D11,2,A_2*%
%TO.N,Net-(D11-A)*%
X93450000Y-66705000D03*
%TD*%
D18*
%TO.P,D32,1,K_1*%
%TO.N,/R3*%
X215850000Y-92860000D03*
D14*
%TO.P,D32,2,A_2*%
%TO.N,Net-(D32-A)*%
X215850000Y-85240000D03*
%TD*%
D18*
%TO.P,D72,1,K_1*%
%TO.N,/R6*%
X345825000Y-130925000D03*
D14*
%TO.P,D72,2,A_2*%
%TO.N,Net-(D72-A)*%
X345825000Y-123305000D03*
%TD*%
D18*
%TO.P,D67,1,K_1*%
%TO.N,/R6*%
X131950000Y-151120000D03*
D14*
%TO.P,D67,2,A_2*%
%TO.N,Net-(D67-A)*%
X131950000Y-143500000D03*
%TD*%
D18*
%TO.P,D20,1,K_1*%
%TO.N,/R2*%
X264350000Y-74175000D03*
D14*
%TO.P,D20,2,A_2*%
%TO.N,Net-(D20-A)*%
X264350000Y-66555000D03*
%TD*%
D18*
%TO.P,D68,1,K_1*%
%TO.N,/R6*%
X151650000Y-152110000D03*
D14*
%TO.P,D68,2,A_2*%
%TO.N,Net-(D68-A)*%
X151650000Y-144490000D03*
%TD*%
D18*
%TO.P,D14,1,K_1*%
%TO.N,/R2*%
X149450000Y-73925000D03*
D14*
%TO.P,D14,2,A_2*%
%TO.N,Net-(D14-A)*%
X149450000Y-66305000D03*
%TD*%
D18*
%TO.P,D18,1,K_1*%
%TO.N,/R2*%
X226725000Y-74150000D03*
D14*
%TO.P,D18,2,A_2*%
%TO.N,Net-(D18-A)*%
X226725000Y-66530000D03*
%TD*%
D18*
%TO.P,D39,1,K_1*%
%TO.N,/R4*%
X98700000Y-111185000D03*
D14*
%TO.P,D39,2,A_2*%
%TO.N,Net-(D39-A)*%
X98700000Y-103565000D03*
%TD*%
D18*
%TO.P,D48,1,K_1*%
%TO.N,/R4*%
X259800000Y-112110000D03*
D14*
%TO.P,D48,2,A_2*%
%TO.N,Net-(D48-A)*%
X259800000Y-104490000D03*
%TD*%
D18*
%TO.P,D43,1,K_1*%
%TO.N,/R4*%
X163400000Y-112985000D03*
D14*
%TO.P,D43,2,A_2*%
%TO.N,Net-(D43-A)*%
X163400000Y-105365000D03*
%TD*%
D18*
%TO.P,D46,1,K_1*%
%TO.N,/R4*%
X221025000Y-111860000D03*
D14*
%TO.P,D46,2,A_2*%
%TO.N,Net-(D46-A)*%
X221025000Y-104240000D03*
%TD*%
D18*
%TO.P,D44,1,K_1*%
%TO.N,/R4*%
X182900000Y-112795000D03*
D14*
%TO.P,D44,2,A_2*%
%TO.N,Net-(D44-A)*%
X182900000Y-105175000D03*
%TD*%
D18*
%TO.P,D2,1,K_1*%
%TO.N,/R1*%
X120200000Y-49550000D03*
D14*
%TO.P,D2,2,A_2*%
%TO.N,Net-(D2-A)*%
X120200000Y-41930000D03*
%TD*%
D18*
%TO.P,D49,1,K_1*%
%TO.N,/R4*%
X278875000Y-111785000D03*
D14*
%TO.P,D49,2,A_2*%
%TO.N,Net-(D49-A)*%
X278875000Y-104165000D03*
%TD*%
D18*
%TO.P,D19,1,K_1*%
%TO.N,/R2*%
X244825000Y-73750000D03*
D14*
%TO.P,D19,2,A_2*%
%TO.N,Net-(D19-A)*%
X244825000Y-66130000D03*
%TD*%
D18*
%TO.P,D51,1,K_1*%
%TO.N,/R4*%
X321325000Y-111460000D03*
D14*
%TO.P,D51,2,A_2*%
%TO.N,Net-(D51-A)*%
X321325000Y-103840000D03*
%TD*%
D18*
%TO.P,D7,1,K_1*%
%TO.N,/R1*%
X233525000Y-48760000D03*
D14*
%TO.P,D7,2,A_2*%
%TO.N,Net-(D7-A)*%
X233525000Y-41140000D03*
%TD*%
D18*
%TO.P,D24,1,K_1*%
%TO.N,/R2*%
X302350000Y-72625000D03*
D14*
%TO.P,D24,2,A_2*%
%TO.N,Net-(D24-A)*%
X302350000Y-65005000D03*
%TD*%
D18*
%TO.P,D29,1,K_1*%
%TO.N,/R3*%
X159250000Y-92470000D03*
D14*
%TO.P,D29,2,A_2*%
%TO.N,Net-(D29-A)*%
X159250000Y-84850000D03*
%TD*%
D18*
%TO.P,D12,1,K_1*%
%TO.N,/R2*%
X110975000Y-73875000D03*
D14*
%TO.P,D12,2,A_2*%
%TO.N,Net-(D12-A)*%
X110975000Y-66255000D03*
%TD*%
D18*
%TO.P,D37,1,K_1*%
%TO.N,/R3*%
X312575000Y-92150000D03*
D14*
%TO.P,D37,2,A_2*%
%TO.N,Net-(D37-A)*%
X312575000Y-84530000D03*
%TD*%
D18*
%TO.P,D45,1,K_1*%
%TO.N,/R4*%
X201825000Y-112435000D03*
D14*
%TO.P,D45,2,A_2*%
%TO.N,Net-(D45-A)*%
X201825000Y-104815000D03*
%TD*%
D18*
%TO.P,D66,1,K_1*%
%TO.N,/R6*%
X110825000Y-151120000D03*
D14*
%TO.P,D66,2,A_2*%
%TO.N,Net-(D66-A)*%
X110825000Y-143500000D03*
%TD*%
D18*
%TO.P,D75,1,K_1*%
%TO.N,/R1*%
X325025000Y-50310000D03*
D14*
%TO.P,D75,2,A_2*%
%TO.N,Net-(D75-A)*%
X325025000Y-42690000D03*
%TD*%
D18*
%TO.P,D54,1,K_1*%
%TO.N,/R5*%
X134850000Y-131970000D03*
D14*
%TO.P,D54,2,A_2*%
%TO.N,Net-(D54-A)*%
X134850000Y-124350000D03*
%TD*%
D18*
%TO.P,D63,1,K_1*%
%TO.N,/R5*%
X314600000Y-131185000D03*
D14*
%TO.P,D63,2,A_2*%
%TO.N,Net-(D63-A)*%
X314600000Y-123565000D03*
%TD*%
D19*
%TO.P,D73,1,K_1*%
%TO.N,/R6*%
X344315000Y-136850000D03*
D14*
%TO.P,D73,2,A_2*%
%TO.N,Net-(D73-A)*%
X351935000Y-136850000D03*
%TD*%
D18*
%TO.P,D34,1,K_1*%
%TO.N,/R3*%
X255675000Y-91710000D03*
D14*
%TO.P,D34,2,A_2*%
%TO.N,Net-(D34-A)*%
X255675000Y-84090000D03*
%TD*%
D18*
%TO.P,D31,1,K_1*%
%TO.N,/R3*%
X196975000Y-93285000D03*
D14*
%TO.P,D31,2,A_2*%
%TO.N,Net-(D31-A)*%
X196975000Y-85665000D03*
%TD*%
D18*
%TO.P,D4,1,K_1*%
%TO.N,/R1*%
X160600000Y-50115000D03*
D14*
%TO.P,D4,2,A_2*%
%TO.N,Net-(D4-A)*%
X160600000Y-42495000D03*
%TD*%
D18*
%TO.P,D15,1,K_1*%
%TO.N,/R2*%
X169075000Y-73925000D03*
D14*
%TO.P,D15,2,A_2*%
%TO.N,Net-(D15-A)*%
X169075000Y-66305000D03*
%TD*%
D18*
%TO.P,D26,1,K_1*%
%TO.N,/R3*%
X101175000Y-92535000D03*
D14*
%TO.P,D26,2,A_2*%
%TO.N,Net-(D26-A)*%
X101175000Y-84915000D03*
%TD*%
D18*
%TO.P,D52,1,K_1*%
%TO.N,/R5*%
X104150000Y-131035000D03*
D14*
%TO.P,D52,2,A_2*%
%TO.N,Net-(D52-A)*%
X104150000Y-123415000D03*
%TD*%
D18*
%TO.P,D50,1,K_1*%
%TO.N,unconnected-(D50-K-Pad1)*%
X298300000Y-112250000D03*
D14*
%TO.P,D50,2,A_2*%
%TO.N,Net-(D50-A)*%
X298300000Y-104630000D03*
%TD*%
D18*
%TO.P,D10,1,K_1*%
%TO.N,/R2*%
X90525000Y-74285000D03*
D14*
%TO.P,D10,2,A_2*%
%TO.N,Net-(D10-A)*%
X90525000Y-66665000D03*
%TD*%
D18*
%TO.P,D60,1,K_1*%
%TO.N,/R5*%
X250500000Y-131535000D03*
D14*
%TO.P,D60,2,A_2*%
%TO.N,Net-(D60-A)*%
X250500000Y-123915000D03*
%TD*%
D18*
%TO.P,D28,1,K_1*%
%TO.N,/R3*%
X139125000Y-92470000D03*
D14*
%TO.P,D28,2,A_2*%
%TO.N,Net-(D28-A)*%
X139125000Y-84850000D03*
%TD*%
D18*
%TO.P,D98,1,K_1*%
%TO.N,/R5*%
X363825000Y-100010000D03*
D14*
%TO.P,D98,2,A_2*%
%TO.N,Net-(D98-A)*%
X363825000Y-92390000D03*
%TD*%
D18*
%TO.P,D41,1,K_1*%
%TO.N,/R4*%
X125050000Y-111560000D03*
D14*
%TO.P,D41,2,A_2*%
%TO.N,Net-(D41-A)*%
X125050000Y-103940000D03*
%TD*%
D20*
%TO.P,D74,1,K_1*%
%TO.N,/R6*%
X363575000Y-136865000D03*
D14*
%TO.P,D74,2,A_2*%
%TO.N,Net-(D74-A)*%
X363575000Y-144485000D03*
%TD*%
D18*
%TO.P,D53,1,K_1*%
%TO.N,/R5*%
X109800000Y-131720000D03*
D14*
%TO.P,D53,2,A_2*%
%TO.N,Net-(D53-A)*%
X109800000Y-124100000D03*
%TD*%
D21*
%TO.N,/C6*%
X214925000Y-136825000D03*
%TO.N,/C11*%
X280725000Y-54079011D03*
%TO.N,/C10*%
X312535000Y-136150000D03*
X343715000Y-140850000D03*
X297250000Y-136050000D03*
X313900000Y-136150000D03*
%TO.N,/C8*%
X360625000Y-48150000D03*
X357075000Y-53450589D03*
X342075000Y-98650000D03*
X357200000Y-60820648D03*
%TO.N,/C12*%
X347425000Y-60875000D03*
%TO.N,/C7*%
X232077500Y-136967500D03*
%TO.N,/C13*%
X341475000Y-116200000D03*
X329075000Y-73585000D03*
X347925000Y-56792766D03*
X318325000Y-74685000D03*
X346600735Y-116225735D03*
%TO.N,GND*%
X362120000Y-56150000D03*
X301125000Y-53450589D03*
X330700000Y-56192766D03*
X301100000Y-56192766D03*
X330700000Y-53450589D03*
X339050735Y-56324265D03*
%TO.N,+3.3V*%
X338485048Y-55758578D03*
X377725000Y-37000000D03*
%TO.N,/SCL*%
X265454265Y-44045735D03*
X337205481Y-54479011D03*
X376975000Y-45425000D03*
%TO.N,/SDA*%
X375099265Y-48149265D03*
X337771168Y-55044698D03*
%TO.N,/R4*%
X371400000Y-65550000D03*
%TO.N,/R5*%
X343700000Y-120075000D03*
X369986444Y-65760486D03*
X345450000Y-115600000D03*
X310125000Y-132175000D03*
%TO.N,/R6*%
X315709393Y-150015607D03*
X344494707Y-99819707D03*
X369988200Y-64161472D03*
X314985863Y-150989137D03*
%TO.N,/A1*%
X310550000Y-53450589D03*
X313825003Y-56792766D03*
X345945645Y-59620648D03*
X369779244Y-59401950D03*
%TO.N,/B1*%
X313025000Y-56792766D03*
X369845804Y-60199179D03*
X309575000Y-53450589D03*
X377625649Y-60199179D03*
X345345648Y-60220648D03*
X381500000Y-60685000D03*
%TO.N,/A2*%
X347217156Y-58585817D03*
X369702139Y-57804852D03*
X378557540Y-58145000D03*
X376750000Y-57800000D03*
%TO.N,/B2*%
X346545645Y-59020648D03*
X369769598Y-58602005D03*
%TD*%
%TO.N,Net-(D43-A)*%
D22*
X168780000Y-105365000D02*
X169235000Y-104910000D01*
X163400000Y-105365000D02*
X168780000Y-105365000D01*
%TO.N,/C6*%
X287765000Y-140770000D02*
X218870000Y-140770000D01*
X218870000Y-140770000D02*
X214925000Y-136825000D01*
%TO.N,Net-(D57-A)*%
X192810000Y-124185000D02*
X192475000Y-123850000D01*
X197985000Y-124185000D02*
X192810000Y-124185000D01*
%TO.N,Net-(D67-A)*%
X131950000Y-143500000D02*
X137955000Y-143500000D01*
X137955000Y-143500000D02*
X138245000Y-143210000D01*
%TO.N,Net-(D68-A)*%
X164565000Y-149785000D02*
X164675000Y-149675000D01*
X164675000Y-149675000D02*
X164525000Y-149675000D01*
X156945000Y-149785000D02*
X164565000Y-149785000D01*
X202250000Y-149675000D02*
X164675000Y-149675000D01*
X208622500Y-143302500D02*
X202250000Y-149675000D01*
X151650000Y-144490000D02*
X156945000Y-149785000D01*
X209865000Y-143302500D02*
X208622500Y-143302500D01*
%TO.N,/C11*%
X377115000Y-140820000D02*
X376272056Y-140820000D01*
X280725000Y-54079011D02*
X280725000Y-59685000D01*
X313135000Y-148289744D02*
X313135000Y-134170000D01*
X376272056Y-140820000D02*
X361642056Y-155450000D01*
X361642056Y-155450000D02*
X320295256Y-155450000D01*
X313135000Y-134170000D02*
X300585000Y-121620000D01*
X280725000Y-59685000D02*
X276515000Y-63895000D01*
X320295256Y-155450000D02*
X313135000Y-148289744D01*
%TO.N,Net-(D35-A)*%
X274250000Y-84530000D02*
X278885000Y-84530000D01*
X278885000Y-84530000D02*
X280090000Y-85735000D01*
%TO.N,/C10*%
X339825000Y-136150000D02*
X343715000Y-140040000D01*
X297250000Y-136050000D02*
X312435000Y-136050000D01*
X313900000Y-136150000D02*
X339825000Y-136150000D01*
X312435000Y-136050000D02*
X312535000Y-136150000D01*
X343715000Y-140040000D02*
X343715000Y-140850000D01*
%TO.N,Net-(D61-A)*%
X269450000Y-123240000D02*
X274195000Y-123240000D01*
X274195000Y-123240000D02*
X274965000Y-124010000D01*
%TO.N,Net-(D19-A)*%
X244825000Y-66130000D02*
X250405000Y-66130000D01*
X250405000Y-66130000D02*
X250785000Y-66510000D01*
%TO.N,Net-(D69-A)*%
X274175000Y-142565000D02*
X280670000Y-142565000D01*
X280670000Y-142565000D02*
X281415000Y-143310000D01*
%TO.N,Net-(D20-A)*%
X264350000Y-66555000D02*
X270045000Y-66555000D01*
X270045000Y-66555000D02*
X270165000Y-66435000D01*
%TO.N,/C8*%
X357200000Y-60820648D02*
X357200000Y-65893628D01*
X360625000Y-48150000D02*
X360625000Y-49900589D01*
X357200000Y-65893628D02*
X349500000Y-73593628D01*
X349500000Y-94434314D02*
X345084314Y-98850000D01*
X349500000Y-73593628D02*
X349500000Y-94434314D01*
X344884314Y-98650000D02*
X342075000Y-98650000D01*
X360625000Y-49900589D02*
X357075000Y-53450589D01*
X345084314Y-98850000D02*
X344884314Y-98650000D01*
%TO.N,Net-(D59-A)*%
X230525000Y-123240000D02*
X235740000Y-123240000D01*
X235740000Y-123240000D02*
X236510000Y-124010000D01*
%TO.N,Net-(D54-A)*%
X134850000Y-124350000D02*
X140200000Y-124350000D01*
X140200000Y-124350000D02*
X140465000Y-124085000D01*
%TO.N,Net-(D56-A)*%
X173200000Y-123600000D02*
X178255000Y-123600000D01*
X178255000Y-123600000D02*
X178765000Y-124110000D01*
%TO.N,Net-(D13-A)*%
X129900000Y-65830000D02*
X135315000Y-65830000D01*
X135315000Y-65830000D02*
X135995000Y-66510000D01*
%TO.N,Net-(D28-A)*%
X139125000Y-84850000D02*
X144360000Y-84850000D01*
X144360000Y-84850000D02*
X145325000Y-85815000D01*
%TO.N,Net-(D29-A)*%
X163635000Y-84850000D02*
X164670000Y-85885000D01*
X159250000Y-84850000D02*
X163635000Y-84850000D01*
%TO.N,Net-(D27-A)*%
X120675000Y-84815000D02*
X125145000Y-84815000D01*
X125145000Y-84815000D02*
X126065000Y-85735000D01*
%TO.N,/C12*%
X343845000Y-83095000D02*
X343845000Y-64455000D01*
X343845000Y-64455000D02*
X347425000Y-60875000D01*
%TO.N,Net-(D36-A)*%
X298325000Y-84865000D02*
X299200000Y-85740000D01*
X294000000Y-84865000D02*
X298325000Y-84865000D01*
%TO.N,Net-(D11-A)*%
X97420000Y-66705000D02*
X97575000Y-66550000D01*
X93450000Y-66705000D02*
X97420000Y-66705000D01*
%TO.N,Net-(D64-A)*%
X78365000Y-143165000D02*
X78375000Y-143175000D01*
X73975000Y-143165000D02*
X78365000Y-143165000D01*
%TO.N,Net-(D5-A)*%
X202180000Y-42930000D02*
X202245000Y-42865000D01*
X196950000Y-42930000D02*
X202180000Y-42930000D01*
%TO.N,/C7*%
X305567500Y-136967500D02*
X309395000Y-140795000D01*
X232077500Y-136967500D02*
X305567500Y-136967500D01*
%TO.N,Net-(D16-A)*%
X193030000Y-66130000D02*
X193385000Y-66485000D01*
X187350000Y-66130000D02*
X193030000Y-66130000D01*
%TO.N,Net-(D48-A)*%
X259800000Y-104490000D02*
X265245000Y-104490000D01*
X265245000Y-104490000D02*
X265690000Y-104935000D01*
%TO.N,Net-(D17-A)*%
X212445000Y-66530000D02*
X212490000Y-66485000D01*
X206650000Y-66530000D02*
X212445000Y-66530000D01*
%TO.N,Net-(D70-A)*%
X302790000Y-143080000D02*
X303045000Y-143335000D01*
X294350000Y-143080000D02*
X302790000Y-143080000D01*
%TO.N,Net-(D44-A)*%
X182900000Y-105175000D02*
X188195000Y-105175000D01*
X188195000Y-105175000D02*
X188460000Y-104910000D01*
%TO.N,/C13*%
X318325000Y-74685000D02*
X318325000Y-76655000D01*
X318325000Y-76655000D02*
X324740000Y-83070000D01*
X346575000Y-116200000D02*
X346600735Y-116225735D01*
X341475000Y-116200000D02*
X346575000Y-116200000D01*
X329075000Y-73585000D02*
X329075000Y-78735000D01*
X347925000Y-56792766D02*
X340797766Y-63920000D01*
X378015000Y-109140000D02*
X378030000Y-109155000D01*
X324740000Y-83070000D02*
X324740000Y-90440000D01*
X329075000Y-78735000D02*
X324740000Y-83070000D01*
X324740000Y-90440000D02*
X336770000Y-102470000D01*
X378015000Y-90045000D02*
X378015000Y-109140000D01*
X340797766Y-63920000D02*
X339095000Y-63920000D01*
%TO.N,Net-(D152-A)*%
X332745000Y-66460000D02*
X327580000Y-66460000D01*
X327580000Y-66460000D02*
X327475000Y-66565000D01*
%TO.N,Net-(D34-A)*%
X255675000Y-84090000D02*
X259190000Y-84090000D01*
X259190000Y-84090000D02*
X260860000Y-85760000D01*
%TO.N,Net-(D21-A)*%
X288965000Y-66030000D02*
X289470000Y-66535000D01*
X283350000Y-66030000D02*
X288965000Y-66030000D01*
%TO.N,Net-(D4-A)*%
X160600000Y-42495000D02*
X165745000Y-42495000D01*
X165745000Y-42495000D02*
X165975000Y-42725000D01*
%TO.N,Net-(D62-A)*%
X288750000Y-124565000D02*
X293830000Y-124565000D01*
X293830000Y-124565000D02*
X294235000Y-124160000D01*
%TO.N,Net-(D99-A)*%
X367050000Y-107065000D02*
X371680000Y-111695000D01*
X363650000Y-107065000D02*
X367050000Y-107065000D01*
%TO.N,Net-(D71-A)*%
X332275000Y-143290000D02*
X318810000Y-143290000D01*
X318810000Y-143290000D02*
X318225000Y-143875000D01*
%TO.N,Net-(D41-A)*%
X125050000Y-103940000D02*
X129945000Y-103940000D01*
X129945000Y-103940000D02*
X130890000Y-104885000D01*
%TO.N,Net-(D26-A)*%
X106070000Y-84915000D02*
X106890000Y-85735000D01*
X101175000Y-84915000D02*
X106070000Y-84915000D01*
%TO.N,GND*%
X301125000Y-53450589D02*
X301125000Y-56167766D01*
X339182234Y-56192766D02*
X339050735Y-56324265D01*
X330700000Y-53450589D02*
X330700000Y-56192766D01*
X301125000Y-56167766D02*
X301100000Y-56192766D01*
X362077234Y-56192766D02*
X339182234Y-56192766D01*
X362120000Y-56150000D02*
X362077234Y-56192766D01*
%TO.N,+3.3V*%
X368547059Y-55550000D02*
X338693626Y-55550000D01*
X377725000Y-46372059D02*
X368547059Y-55550000D01*
X338693626Y-55550000D02*
X338485048Y-55758578D01*
X377725000Y-37000000D02*
X377725000Y-46372059D01*
%TO.N,/SCL*%
X337633903Y-54050589D02*
X337205481Y-54479011D01*
X265245000Y-44255000D02*
X262275000Y-44255000D01*
X376975000Y-45425000D02*
X368349411Y-54050589D01*
X368349411Y-54050589D02*
X337633903Y-54050589D01*
X265454265Y-44045735D02*
X265245000Y-44255000D01*
%TO.N,/SDA*%
X375000000Y-48050000D02*
X368200000Y-54850000D01*
X375099265Y-48149265D02*
X375000000Y-48050000D01*
X368200000Y-54850000D02*
X337965866Y-54850000D01*
X337965866Y-54850000D02*
X337771168Y-55044698D01*
%TO.N,/C9*%
X355465000Y-119325000D02*
X264385000Y-119325000D01*
X264385000Y-119325000D02*
X262140000Y-121570000D01*
X357810000Y-121670000D02*
X355465000Y-119325000D01*
%TO.N,Net-(D18-A)*%
X231670000Y-66530000D02*
X231690000Y-66510000D01*
X226725000Y-66530000D02*
X231670000Y-66530000D01*
%TO.N,Net-(D51-A)*%
X329250000Y-103840000D02*
X330420000Y-105010000D01*
X321325000Y-103840000D02*
X329250000Y-103840000D01*
%TO.N,Net-(D39-A)*%
X97455000Y-104810000D02*
X98700000Y-103565000D01*
X85420000Y-104810000D02*
X97455000Y-104810000D01*
%TO.N,Net-(D47-A)*%
X240725000Y-104815000D02*
X246290000Y-104815000D01*
X246290000Y-104815000D02*
X246460000Y-104985000D01*
%TO.N,Net-(D31-A)*%
X196975000Y-85665000D02*
X202840000Y-85665000D01*
X202840000Y-85665000D02*
X202860000Y-85685000D01*
%TO.N,Net-(D10-A)*%
X90445000Y-66585000D02*
X90525000Y-66665000D01*
X78290000Y-66585000D02*
X90445000Y-66585000D01*
%TO.N,Net-(D25-A)*%
X82150000Y-84815000D02*
X83020000Y-85685000D01*
X75675000Y-84815000D02*
X82150000Y-84815000D01*
%TO.N,Net-(D24-A)*%
X302350000Y-65005000D02*
X307340000Y-65005000D01*
X307340000Y-65005000D02*
X308795000Y-66460000D01*
%TO.N,Net-(D40-A)*%
X105725000Y-103590000D02*
X110440000Y-103590000D01*
X110440000Y-103590000D02*
X111735000Y-104885000D01*
%TO.N,Net-(D73-A)*%
X351935000Y-142890000D02*
X351465000Y-143360000D01*
X351935000Y-136850000D02*
X351935000Y-142890000D01*
%TO.N,Net-(D1-A)*%
X83385000Y-42005000D02*
X82755000Y-42635000D01*
X94985000Y-42005000D02*
X83385000Y-42005000D01*
%TO.N,Net-(D98-A)*%
X363825000Y-92390000D02*
X371470000Y-92390000D01*
X371470000Y-92390000D02*
X371665000Y-92585000D01*
%TO.N,Net-(D66-A)*%
X116320000Y-143500000D02*
X116610000Y-143210000D01*
X110825000Y-143500000D02*
X116320000Y-143500000D01*
%TO.N,Net-(D49-A)*%
X278875000Y-104165000D02*
X284045000Y-104165000D01*
X284045000Y-104165000D02*
X284865000Y-104985000D01*
%TO.N,Net-(D53-A)*%
X109800000Y-124100000D02*
X121200000Y-124100000D01*
X121200000Y-124100000D02*
X121225000Y-124075000D01*
%TO.N,Net-(D65-A)*%
X97065000Y-142715000D02*
X97435000Y-143085000D01*
X93100000Y-142715000D02*
X97065000Y-142715000D01*
%TO.N,Net-(D15-A)*%
X174110000Y-66305000D02*
X174365000Y-66560000D01*
X169075000Y-66305000D02*
X174110000Y-66305000D01*
%TO.N,Net-(D37-A)*%
X312575000Y-84530000D02*
X317310000Y-84530000D01*
X317310000Y-84530000D02*
X318390000Y-85610000D01*
%TO.N,Net-(D45-A)*%
X207590000Y-104815000D02*
X207685000Y-104910000D01*
X201825000Y-104815000D02*
X207590000Y-104815000D01*
%TO.N,Net-(D63-A)*%
X324677500Y-123565000D02*
X325290000Y-124177500D01*
X314600000Y-123565000D02*
X324677500Y-123565000D01*
%TO.N,Net-(D46-A)*%
X221025000Y-104240000D02*
X226520000Y-104240000D01*
X226520000Y-104240000D02*
X227165000Y-104885000D01*
%TO.N,Net-(D14-A)*%
X154835000Y-66305000D02*
X155065000Y-66535000D01*
X149450000Y-66305000D02*
X154835000Y-66305000D01*
%TO.N,Net-(D60-A)*%
X255595000Y-123915000D02*
X255790000Y-124110000D01*
X250500000Y-123915000D02*
X255595000Y-123915000D01*
%TO.N,Net-(D52-A)*%
X90165000Y-123995000D02*
X103570000Y-123995000D01*
X103570000Y-123995000D02*
X104150000Y-123415000D01*
%TO.N,Net-(D42-A)*%
X144500000Y-104590000D02*
X149725000Y-104590000D01*
X149725000Y-104590000D02*
X150050000Y-104915000D01*
%TO.N,/R1*%
X141850000Y-50300000D02*
X160415000Y-50300000D01*
X94985000Y-49625000D02*
X120125000Y-49625000D01*
X316313478Y-52900000D02*
X318903478Y-50310000D01*
X318903478Y-50310000D02*
X325025000Y-50310000D01*
X325125000Y-50410000D02*
X325025000Y-50310000D01*
X197135000Y-50365000D02*
X196950000Y-50550000D01*
X316313478Y-63023478D02*
X316313478Y-52900000D01*
X215850000Y-50365000D02*
X197135000Y-50365000D01*
X120950000Y-50300000D02*
X120200000Y-49550000D01*
X160600000Y-50115000D02*
X196515000Y-50115000D01*
X327475000Y-74185000D02*
X316313478Y-63023478D01*
X141850000Y-50300000D02*
X120950000Y-50300000D01*
X215850000Y-50365000D02*
X231920000Y-50365000D01*
X233525000Y-48760000D02*
X237440000Y-52675000D01*
X237440000Y-52675000D02*
X316313478Y-52675000D01*
X196515000Y-50115000D02*
X196950000Y-50550000D01*
X120125000Y-49625000D02*
X120200000Y-49550000D01*
X316313478Y-52900000D02*
X316313478Y-52675000D01*
X328175000Y-50410000D02*
X325125000Y-50410000D01*
X231920000Y-50365000D02*
X233525000Y-48760000D01*
X160415000Y-50300000D02*
X160600000Y-50115000D01*
%TO.N,/R2*%
X148975000Y-73450000D02*
X149450000Y-73925000D01*
X149450000Y-73925000D02*
X169075000Y-73925000D01*
X93410000Y-74285000D02*
X93450000Y-74325000D01*
X206650000Y-74150000D02*
X187750000Y-74150000D01*
X129900000Y-73450000D02*
X148975000Y-73450000D01*
X187750000Y-74150000D02*
X187350000Y-73750000D01*
X187175000Y-73925000D02*
X187350000Y-73750000D01*
X244825000Y-73750000D02*
X301225000Y-73750000D01*
X90525000Y-74285000D02*
X93410000Y-74285000D01*
X169075000Y-73925000D02*
X187175000Y-73925000D01*
X129900000Y-73450000D02*
X111400000Y-73450000D01*
X206650000Y-74150000D02*
X244425000Y-74150000D01*
X93450000Y-74325000D02*
X110525000Y-74325000D01*
X110525000Y-74325000D02*
X110975000Y-73875000D01*
X244425000Y-74150000D02*
X244825000Y-73750000D01*
X301225000Y-73750000D02*
X302350000Y-72625000D01*
X111400000Y-73450000D02*
X110975000Y-73875000D01*
%TO.N,/R3*%
X216675000Y-93685000D02*
X215850000Y-92860000D01*
X75675000Y-92435000D02*
X312290000Y-92435000D01*
X312290000Y-92435000D02*
X312575000Y-92150000D01*
X235125000Y-93685000D02*
X216675000Y-93685000D01*
%TO.N,/R4*%
X350310000Y-94852944D02*
X350310000Y-73915000D01*
X145275000Y-112985000D02*
X144500000Y-112210000D01*
X370810948Y-64960948D02*
X369959171Y-64960948D01*
X317700000Y-115085000D02*
X282175000Y-115085000D01*
X221025000Y-111860000D02*
X202400000Y-111860000D01*
X144500000Y-112210000D02*
X125700000Y-112210000D01*
X321325000Y-111460000D02*
X317700000Y-115085000D01*
X282175000Y-115085000D02*
X278875000Y-111785000D01*
X359264052Y-64960948D02*
X369959171Y-64960948D01*
X163950000Y-112435000D02*
X163400000Y-112985000D01*
X371400000Y-65550000D02*
X370810948Y-64960948D01*
X240725000Y-112435000D02*
X221600000Y-112435000D01*
X98700000Y-111185000D02*
X124675000Y-111185000D01*
X333702944Y-111460000D02*
X350310000Y-94852944D01*
X125700000Y-112210000D02*
X125050000Y-111560000D01*
X221600000Y-112435000D02*
X221025000Y-111860000D01*
X163400000Y-112985000D02*
X145275000Y-112985000D01*
X252090000Y-112435000D02*
X240725000Y-112435000D01*
X124675000Y-111185000D02*
X125050000Y-111560000D01*
X321325000Y-111460000D02*
X333702944Y-111460000D01*
X252740000Y-111785000D02*
X252090000Y-112435000D01*
X350310000Y-73915000D02*
X359264052Y-64960948D01*
X202400000Y-111860000D02*
X201825000Y-112435000D01*
X201825000Y-112435000D02*
X163950000Y-112435000D01*
X278875000Y-111785000D02*
X252740000Y-111785000D01*
%TO.N,/R5*%
X104150000Y-131035000D02*
X109115000Y-131035000D01*
X251175000Y-130860000D02*
X250500000Y-131535000D01*
X314600000Y-131185000D02*
X332590000Y-131185000D01*
X358389899Y-123070000D02*
X357230101Y-123070000D01*
X362000000Y-116275000D02*
X362125000Y-116400000D01*
X173200000Y-131220000D02*
X230165000Y-131220000D01*
X363825000Y-100010000D02*
X362000000Y-101835000D01*
X350710000Y-74213578D02*
X359163092Y-65760486D01*
X288750000Y-132185000D02*
X310115000Y-132185000D01*
X357230101Y-123070000D02*
X354235101Y-120075000D01*
X269450000Y-130860000D02*
X251175000Y-130860000D01*
X362125000Y-119334899D02*
X358389899Y-123070000D01*
X249825000Y-130860000D02*
X250500000Y-131535000D01*
X172700000Y-131720000D02*
X173200000Y-131220000D01*
X354235101Y-120075000D02*
X343700000Y-120075000D01*
X332590000Y-131185000D02*
X343700000Y-120075000D01*
X362000000Y-101835000D02*
X362000000Y-116275000D01*
X350710000Y-94775000D02*
X350710000Y-95240000D01*
X350710000Y-94775000D02*
X350710000Y-74213578D01*
X288750000Y-132185000D02*
X270775000Y-132185000D01*
X270775000Y-132185000D02*
X269450000Y-130860000D01*
X362125000Y-116400000D02*
X362125000Y-119334899D01*
X343350000Y-113500000D02*
X345450000Y-115600000D01*
X359163092Y-65760486D02*
X369986444Y-65760486D01*
X350710000Y-95240000D02*
X343350000Y-102600000D01*
X310115000Y-132185000D02*
X310125000Y-132175000D01*
X230165000Y-131220000D02*
X230525000Y-130860000D01*
X109800000Y-131720000D02*
X172700000Y-131720000D01*
X363665000Y-100010000D02*
X363825000Y-100010000D01*
X109115000Y-131035000D02*
X109800000Y-131720000D01*
X230525000Y-130860000D02*
X249825000Y-130860000D01*
X343350000Y-102600000D02*
X343350000Y-113500000D01*
%TO.N,/R6*%
X363650000Y-136790000D02*
X363575000Y-136865000D01*
X349910000Y-94590000D02*
X345250000Y-99250000D01*
X349910000Y-73749314D02*
X349910000Y-94590000D01*
X345250000Y-99250000D02*
X337700000Y-99250000D01*
X363650000Y-114685000D02*
X363650000Y-136790000D01*
X345825000Y-130925000D02*
X345825000Y-135340000D01*
X359497842Y-64161472D02*
X349910000Y-73749314D01*
X93885000Y-151120000D02*
X93100000Y-150335000D01*
X369988200Y-64161472D02*
X359497842Y-64161472D01*
X344494707Y-99819707D02*
X344680293Y-99819707D01*
X357635000Y-130925000D02*
X363575000Y-136865000D01*
X110825000Y-151120000D02*
X93885000Y-151120000D01*
X338400000Y-151725000D02*
X344315000Y-145810000D01*
X317185942Y-151495000D02*
X315709393Y-150018451D01*
X314696726Y-150700000D02*
X294350000Y-150700000D01*
X318455000Y-151725000D02*
X338400000Y-151725000D01*
X345825000Y-130925000D02*
X357635000Y-130925000D01*
X318225000Y-151495000D02*
X317185942Y-151495000D01*
X314985863Y-150989137D02*
X314696726Y-150700000D01*
X344315000Y-145810000D02*
X344315000Y-136850000D01*
X331500000Y-93010000D02*
X331500000Y-93050000D01*
X274690000Y-150700000D02*
X274175000Y-150185000D01*
X153575000Y-150185000D02*
X151650000Y-152110000D01*
X344680293Y-99819707D02*
X345250000Y-99250000D01*
X345825000Y-135340000D02*
X344315000Y-136850000D01*
X331500000Y-93050000D02*
X337700000Y-99250000D01*
X73975000Y-150785000D02*
X92650000Y-150785000D01*
X294350000Y-150700000D02*
X274690000Y-150700000D01*
X274175000Y-150185000D02*
X153575000Y-150185000D01*
X315709393Y-150018451D02*
X315709393Y-150015607D01*
X150660000Y-151120000D02*
X151650000Y-152110000D01*
X110825000Y-151120000D02*
X150660000Y-151120000D01*
X318225000Y-151495000D02*
X318455000Y-151725000D01*
X92650000Y-150785000D02*
X93100000Y-150335000D01*
%TO.N,/A1*%
X357529352Y-59620648D02*
X357550000Y-59600000D01*
X310550000Y-53450589D02*
X313825003Y-56725592D01*
X357748050Y-59401950D02*
X357550000Y-59600000D01*
X313825003Y-56725592D02*
X313825003Y-56792766D01*
X345945645Y-59620648D02*
X357529352Y-59620648D01*
X369779244Y-59401950D02*
X357748050Y-59401950D01*
%TO.N,/B1*%
X358254352Y-60220648D02*
X345345648Y-60220648D01*
X378111470Y-60685000D02*
X377625649Y-60199179D01*
X309575000Y-53450589D02*
X312917177Y-56792766D01*
X381323235Y-60861765D02*
X381500000Y-60685000D01*
X312917177Y-56792766D02*
X313025000Y-56792766D01*
X381500000Y-60685000D02*
X378111470Y-60685000D01*
X369845804Y-60199179D02*
X358275821Y-60199179D01*
X358275821Y-60199179D02*
X358254352Y-60220648D01*
%TO.N,/A2*%
X376750000Y-57800000D02*
X378212540Y-57800000D01*
X356158410Y-58820648D02*
X357174206Y-57804852D01*
X378212540Y-57800000D02*
X378557540Y-58145000D01*
X369702139Y-57804852D02*
X357174206Y-57804852D01*
X347451987Y-58820648D02*
X356158410Y-58820648D01*
X347217156Y-58585817D02*
X347451987Y-58820648D01*
%TO.N,/B2*%
X346545645Y-59020648D02*
X346745645Y-59220648D01*
X357326745Y-58602005D02*
X369769598Y-58602005D01*
X356708102Y-59220648D02*
X357326745Y-58602005D01*
X346745645Y-59220648D02*
X356708102Y-59220648D01*
%TO.N,Net-(D6-A)*%
X215995000Y-42890000D02*
X215850000Y-42745000D01*
X221425000Y-42890000D02*
X215995000Y-42890000D01*
%TO.N,Net-(D33-A)*%
X235125000Y-86065000D02*
X241110000Y-86065000D01*
X241110000Y-86065000D02*
X241565000Y-85610000D01*
%TO.N,Net-(D7-A)*%
X240635000Y-42910000D02*
X235295000Y-42910000D01*
X235295000Y-42910000D02*
X233525000Y-41140000D01*
%TO.N,Net-(D30-A)*%
X178125000Y-85240000D02*
X183090000Y-85240000D01*
X183090000Y-85240000D02*
X183710000Y-85860000D01*
%TO.N,Net-(D2-A)*%
X120200000Y-41930000D02*
X126870000Y-41930000D01*
X126870000Y-41930000D02*
X127640000Y-42700000D01*
%TO.N,Net-(D72-A)*%
X345825000Y-123305000D02*
X350555000Y-123305000D01*
X350555000Y-123305000D02*
X351460000Y-124210000D01*
%TO.N,Net-(D12-A)*%
X110975000Y-66255000D02*
X116560000Y-66255000D01*
X116560000Y-66255000D02*
X116840000Y-66535000D01*
%TO.N,Net-(D32-A)*%
X215850000Y-85240000D02*
X221875000Y-85240000D01*
X221875000Y-85240000D02*
X222275000Y-85640000D01*
%TO.N,Net-(D55-A)*%
X159380000Y-123850000D02*
X159615000Y-124085000D01*
X154150000Y-123850000D02*
X159380000Y-123850000D01*
%TO.N,Net-(D50-A)*%
X298300000Y-104630000D02*
X303735000Y-104630000D01*
X303735000Y-104630000D02*
X304115000Y-105010000D01*
%TO.N,Net-(D58-A)*%
X211825000Y-123365000D02*
X216520000Y-123365000D01*
X216520000Y-123365000D02*
X217140000Y-123985000D01*
%TO.N,Net-(D74-A)*%
X370765000Y-143360000D02*
X364700000Y-143360000D01*
X364700000Y-143360000D02*
X363575000Y-144485000D01*
%TO.N,Net-(D3-A)*%
X141850000Y-42680000D02*
X146825000Y-42680000D01*
X146825000Y-42680000D02*
X146845000Y-42700000D01*
%TO.N,Net-(D38-A)*%
X331745000Y-85635000D02*
X331500000Y-85390000D01*
X337495000Y-85635000D02*
X331745000Y-85635000D01*
%TO.N,Net-(D76-A)*%
X328840000Y-42125000D02*
X328175000Y-42790000D01*
X346500000Y-43425000D02*
X345200000Y-42125000D01*
X345200000Y-42125000D02*
X328840000Y-42125000D01*
%TO.N,Net-(D75-A)*%
X319460000Y-42690000D02*
X318875000Y-43275000D01*
X325025000Y-42690000D02*
X319460000Y-42690000D01*
%TD*%
M02*
