M48
; DRILL file KiCad 10.0.4 date 2026-08-13T14:30:02
; FORMAT={-:-/ absolute / metric / decimal}
; #@! TF.CreationDate,2026-08-13T14:30:02-04:00
; #@! TF.GenerationSoftware,Kicad,Pcbnew,10.0.4
; #@! TF.FileFunction,NonPlated,1,2,NPTH
FMAT,2
METRIC
; #@! TA.AperFunction,NonPlated,NPTH,ComponentDrill
T1C1.700
; #@! TA.AperFunction,NonPlated,NPTH,ComponentDrill
T2C1.850
; #@! TA.AperFunction,NonPlated,NPTH,ComponentDrill
T3C2.200
; #@! TA.AperFunction,NonPlated,NPTH,ComponentDrill
T4C3.050
; #@! TA.AperFunction,NonPlated,NPTH,ComponentDrill
T5C4.000
%
G90
G05
T1
X77.02Y-69.125
X77.105Y-145.715
X81.485Y-45.175
X81.75Y-88.225
X84.15Y-107.35
X87.18Y-69.125
X87.265Y-145.715
X88.895Y-126.535
X91.645Y-45.175
X91.91Y-88.225
X94.31Y-107.35
X96.165Y-145.625
X96.305Y-69.09
X99.055Y-126.535
X105.62Y-88.275
X106.325Y-145.625
X106.465Y-69.09
X110.465Y-107.425
X115.34Y-145.75
X115.57Y-69.075
X115.78Y-88.275
X119.955Y-126.615
X120.625Y-107.425
X124.795Y-88.275
X125.5Y-145.75
X125.73Y-69.075
X126.37Y-45.24
X129.62Y-107.425
X130.115Y-126.615
X134.725Y-69.05
X134.955Y-88.275
X136.53Y-45.24
X136.975Y-145.75
X139.195Y-126.625
X139.78Y-107.425
X144.055Y-88.355
X144.885Y-69.05
X145.575Y-45.24
X147.135Y-145.75
X148.78Y-107.455
X149.355Y-126.625
X153.795Y-69.075
X154.215Y-88.355
X155.735Y-45.24
X158.345Y-126.625
X158.94Y-107.455
X163.4Y-88.425
X163.955Y-69.075
X164.705Y-45.265
X167.965Y-107.45
X168.505Y-126.625
X173.095Y-69.1
X173.56Y-88.425
X174.865Y-45.265
X177.495Y-126.65
X178.125Y-107.45
X182.44Y-88.4
X183.255Y-69.1
X187.19Y-107.45
X187.655Y-126.65
X192.115Y-69.025
X192.6Y-88.4
X196.715Y-126.725
X197.35Y-107.45
X200.975Y-45.405
X201.59Y-88.225
X202.275Y-69.025
X206.415Y-107.45
X206.875Y-126.725
X208.595Y-145.843
X211.135Y-45.405
X211.22Y-69.025
X211.75Y-88.225
X215.87Y-126.525
X216.575Y-107.45
X218.755Y-145.843
X220.155Y-45.43
X221.005Y-88.18
X221.38Y-69.025
X225.895Y-107.425
X226.03Y-126.525
X230.315Y-45.43
X230.42Y-69.05
X231.165Y-88.18
X235.24Y-126.55
X236.055Y-107.425
X239.365Y-45.45
X240.295Y-88.15
X240.58Y-69.05
X245.19Y-107.525
X245.4Y-126.55
X249.515Y-69.05
X249.525Y-45.45
X250.455Y-88.15
X254.52Y-126.65
X255.35Y-107.525
X259.59Y-88.3
X259.675Y-69.05
X264.42Y-107.475
X264.68Y-126.65
X268.895Y-68.975
X269.75Y-88.3
X273.695Y-126.55
X274.58Y-107.475
X278.82Y-88.275
X279.055Y-68.975
X280.145Y-145.85
X283.595Y-107.525
X283.855Y-126.55
X288.2Y-69.075
X288.98Y-88.275
X290.305Y-145.85
X292.965Y-126.7
X293.755Y-107.525
X297.93Y-88.28
X298.36Y-69.075
X301.775Y-145.875
X302.845Y-107.55
X303.125Y-126.7
X307.525Y-69.0
X308.09Y-88.28
X311.935Y-145.875
X313.005Y-107.55
X317.12Y-88.15
X317.685Y-69.0
X324.02Y-126.718
X327.28Y-88.15
X329.15Y-107.55
X331.005Y-145.83
X331.475Y-69.0
X334.18Y-126.718
X336.225Y-88.175
X339.31Y-107.55
X341.165Y-145.83
X341.635Y-69.0
X346.385Y-88.175
X350.19Y-126.75
X350.195Y-145.9
X360.35Y-126.75
X360.355Y-145.9
X369.495Y-145.9
X370.395Y-95.125
X370.41Y-114.235
X379.655Y-145.9
X380.555Y-95.125
X380.57Y-114.235
T2
X369.385Y-28.285
X374.235Y-28.285
T3
X369.085Y-25.255
X374.535Y-25.255
T4
X82.075Y-119.535
X105.875Y-119.535
X163.675Y-138.843
X263.675Y-138.843
T5
X82.075Y-134.775
X82.1Y-69.125
X82.185Y-145.715
X86.565Y-45.175
X86.83Y-88.225
X89.23Y-107.35
X93.975Y-126.535
X101.245Y-145.625
X101.385Y-69.09
X105.875Y-134.775
X110.7Y-88.275
X115.545Y-107.425
X120.42Y-145.75
X120.65Y-69.075
X125.035Y-126.615
X129.875Y-88.275
X131.45Y-45.24
X134.7Y-107.425
X139.805Y-69.05
X142.055Y-145.75
X144.275Y-126.625
X149.135Y-88.355
X150.655Y-45.24
X153.86Y-107.455
X158.875Y-69.075
X163.425Y-126.625
X163.675Y-154.082
X168.48Y-88.425
X169.785Y-45.265
X173.045Y-107.45
X178.175Y-69.1
X182.575Y-126.65
X187.52Y-88.4
X192.27Y-107.45
X197.195Y-69.025
X201.795Y-126.725
X206.055Y-45.405
X206.67Y-88.225
X211.495Y-107.45
X213.675Y-145.843
X216.3Y-69.025
X220.95Y-126.525
X225.235Y-45.43
X226.085Y-88.18
X230.975Y-107.425
X235.5Y-69.05
X240.32Y-126.55
X244.445Y-45.45
X245.375Y-88.15
X250.27Y-107.525
X254.595Y-69.05
X259.6Y-126.65
X263.675Y-154.082
X264.67Y-88.3
X269.5Y-107.475
X273.975Y-68.975
X278.775Y-126.55
X283.9Y-88.275
X285.225Y-145.85
X288.675Y-107.525
X293.28Y-69.075
X298.045Y-126.7
X303.01Y-88.28
X306.855Y-145.875
X307.925Y-107.55
X312.605Y-69.0
X322.2Y-88.15
X329.1Y-126.718
X334.23Y-107.55
X336.085Y-145.83
X336.555Y-69.0
X341.305Y-88.175
X355.27Y-126.75
X355.275Y-145.9
X374.575Y-145.9
X375.475Y-95.125
X375.49Y-114.235
M30
