%TF.GenerationSoftware,KiCad,Pcbnew,10.0.4*%
%TF.CreationDate,2026-08-13T14:30:01-04:00*%
%TF.ProjectId,keyboard,6b657962-6f61-4726-942e-6b696361645f,rev?*%
%TF.SameCoordinates,Original*%
%TF.FileFunction,Soldermask,Bot*%
%TF.FilePolarity,Negative*%
%FSLAX46Y46*%
G04 Gerber Fmt 4.6, Leading zero omitted, Abs format (unit mm)*
G04 Created by KiCad (PCBNEW 10.0.4) date 2026-08-13 14:30:01*
%MOMM*%
%LPD*%
G01*
G04 APERTURE LIST*
G04 Aperture macros list*
%AMRoundRect*
0 Rectangle with rounded corners*
0 $1 Rounding radius*
0 $2 $3 $4 $5 $6 $7 $8 $9 X,Y pos of 4 corners*
0 Add a 4 corners polygon primitive as box body*
4,1,4,$2,$3,$4,$5,$6,$7,$8,$9,$2,$3,0*
0 Add four circle primitives for the rounded corners*
1,1,$1+$1,$2,$3*
1,1,$1+$1,$4,$5*
1,1,$1+$1,$6,$7*
1,1,$1+$1,$8,$9*
0 Add four rect primitives between the rounded corners*
20,1,$1+$1,$2,$3,$4,$5,0*
20,1,$1+$1,$4,$5,$6,$7,0*
20,1,$1+$1,$6,$7,$8,$9,0*
20,1,$1+$1,$8,$9,$2,$3,0*%
G04 Aperture macros list end*
%ADD10C,1.700000*%
%ADD11C,4.000000*%
%ADD12C,2.200000*%
%ADD13C,3.050000*%
%ADD14RoundRect,0.170000X0.680000X-0.680000X0.680000X0.680000X-0.680000X0.680000X-0.680000X-0.680000X0*%
%ADD15C,1.850000*%
%ADD16RoundRect,0.200000X-0.600000X-0.600000X0.600000X-0.600000X0.600000X0.600000X-0.600000X0.600000X0*%
%ADD17C,1.600000*%
%ADD18R,2.000000X2.000000*%
%ADD19C,2.000000*%
%ADD20R,3.200000X2.000000*%
%ADD21RoundRect,0.250000X0.550000X-0.550000X0.550000X0.550000X-0.550000X0.550000X-0.550000X-0.550000X0*%
%ADD22RoundRect,0.250000X-0.550000X-0.550000X0.550000X-0.550000X0.550000X0.550000X-0.550000X0.550000X0*%
%ADD23RoundRect,0.250000X-0.550000X0.550000X-0.550000X-0.550000X0.550000X-0.550000X0.550000X0.550000X0*%
G04 APERTURE END LIST*
D10*
%TO.C,F9*%
X167965000Y-107450000D03*
D11*
X173045000Y-107450000D03*
D10*
X178125000Y-107450000D03*
D12*
X175585000Y-102370000D03*
X169235000Y-104910000D03*
%TD*%
D10*
%TO.C,B1*%
X196715000Y-126725000D03*
D11*
X201795000Y-126725000D03*
D10*
X206875000Y-126725000D03*
D12*
X204335000Y-121645000D03*
X197985000Y-124185000D03*
%TD*%
D10*
%TO.C,CMD1*%
X136975000Y-145750000D03*
D11*
X142055000Y-145750000D03*
D10*
X147135000Y-145750000D03*
D12*
X144595000Y-140670000D03*
X138245000Y-143210000D03*
%TD*%
D13*
%TO.C,SPACE1*%
X163675000Y-138842500D03*
D11*
X163675000Y-154082500D03*
D10*
X208595000Y-145842500D03*
D11*
X213675000Y-145842500D03*
D10*
X218755000Y-145842500D03*
D13*
X263675000Y-138842500D03*
D11*
X263675000Y-154082500D03*
D12*
X216215000Y-140762500D03*
X209865000Y-143302500D03*
%TD*%
D10*
%TO.C,P1*%
X278820000Y-88275000D03*
D11*
X283900000Y-88275000D03*
D10*
X288980000Y-88275000D03*
D12*
X286440000Y-83195000D03*
X280090000Y-85735000D03*
%TD*%
D10*
%TO.C,>1*%
X273695000Y-126550000D03*
D11*
X278775000Y-126550000D03*
D10*
X283855000Y-126550000D03*
D12*
X281315000Y-121470000D03*
X274965000Y-124010000D03*
%TD*%
D10*
%TO.C,N9*%
X249515000Y-69050000D03*
D11*
X254595000Y-69050000D03*
D10*
X259675000Y-69050000D03*
D12*
X257135000Y-63970000D03*
X250785000Y-66510000D03*
%TD*%
D10*
%TO.C,RCMD1*%
X280145000Y-145850000D03*
D11*
X285225000Y-145850000D03*
D10*
X290305000Y-145850000D03*
D12*
X287765000Y-140770000D03*
X281415000Y-143310000D03*
%TD*%
D10*
%TO.C,N0*%
X268895000Y-68975000D03*
D11*
X273975000Y-68975000D03*
D10*
X279055000Y-68975000D03*
D12*
X276515000Y-63895000D03*
X270165000Y-66435000D03*
%TD*%
D10*
%TO.C,M1*%
X235240000Y-126550000D03*
D11*
X240320000Y-126550000D03*
D10*
X245400000Y-126550000D03*
D12*
X242860000Y-121470000D03*
X236510000Y-124010000D03*
%TD*%
D10*
%TO.C,X1*%
X139195000Y-126625000D03*
D11*
X144275000Y-126625000D03*
D10*
X149355000Y-126625000D03*
D12*
X146815000Y-121545000D03*
X140465000Y-124085000D03*
%TD*%
D10*
%TO.C,V1*%
X177495000Y-126650000D03*
D11*
X182575000Y-126650000D03*
D10*
X187655000Y-126650000D03*
D12*
X185115000Y-121570000D03*
X178765000Y-124110000D03*
%TD*%
D10*
%TO.C,N3*%
X134725000Y-69050000D03*
D11*
X139805000Y-69050000D03*
D10*
X144885000Y-69050000D03*
D12*
X142345000Y-63970000D03*
X135995000Y-66510000D03*
%TD*%
D10*
%TO.C,E1*%
X144055000Y-88355000D03*
D11*
X149135000Y-88355000D03*
D10*
X154215000Y-88355000D03*
D12*
X151675000Y-83275000D03*
X145325000Y-85815000D03*
%TD*%
D10*
%TO.C,R1*%
X163400000Y-88425000D03*
D11*
X168480000Y-88425000D03*
D10*
X173560000Y-88425000D03*
D12*
X171020000Y-83345000D03*
X164670000Y-85885000D03*
%TD*%
D10*
%TO.C,W1*%
X124795000Y-88275000D03*
D11*
X129875000Y-88275000D03*
D10*
X134955000Y-88275000D03*
D12*
X132415000Y-83195000D03*
X126065000Y-85735000D03*
%TD*%
D10*
%TO.C,{1*%
X297930000Y-88280000D03*
D11*
X303010000Y-88280000D03*
D10*
X308090000Y-88280000D03*
D12*
X305550000Y-83200000D03*
X299200000Y-85740000D03*
%TD*%
D10*
%TO.C,N1*%
X96305000Y-69090000D03*
D11*
X101385000Y-69090000D03*
D10*
X106465000Y-69090000D03*
D12*
X103925000Y-64010000D03*
X97575000Y-66550000D03*
%TD*%
D10*
%TO.C,LFN1*%
X77105000Y-145715000D03*
D11*
X82185000Y-145715000D03*
D10*
X87265000Y-145715000D03*
D12*
X84725000Y-140635000D03*
X78375000Y-143175000D03*
%TD*%
D10*
%TO.C,F4*%
X200975000Y-45405000D03*
D11*
X206055000Y-45405000D03*
D10*
X211135000Y-45405000D03*
D12*
X208595000Y-40325000D03*
X202245000Y-42865000D03*
%TD*%
D10*
%TO.C,N6*%
X192115000Y-69025000D03*
D11*
X197195000Y-69025000D03*
D10*
X202275000Y-69025000D03*
D12*
X199735000Y-63945000D03*
X193385000Y-66485000D03*
%TD*%
D10*
%TO.C,L1*%
X264420000Y-107475000D03*
D11*
X269500000Y-107475000D03*
D10*
X274580000Y-107475000D03*
D12*
X272040000Y-102395000D03*
X265690000Y-104935000D03*
%TD*%
D10*
%TO.C,N7*%
X211220000Y-69025000D03*
D11*
X216300000Y-69025000D03*
D10*
X221380000Y-69025000D03*
D12*
X218840000Y-63945000D03*
X212490000Y-66485000D03*
%TD*%
D10*
%TO.C,ROPTION1*%
X301775000Y-145875000D03*
D11*
X306855000Y-145875000D03*
D10*
X311935000Y-145875000D03*
D12*
X309395000Y-140795000D03*
X303045000Y-143335000D03*
%TD*%
D10*
%TO.C,G1*%
X187190000Y-107450000D03*
D11*
X192270000Y-107450000D03*
D10*
X197350000Y-107450000D03*
D12*
X194810000Y-102370000D03*
X188460000Y-104910000D03*
%TD*%
D10*
%TO.C,DELL1*%
X331475000Y-69000000D03*
D11*
X336555000Y-69000000D03*
D10*
X341635000Y-69000000D03*
D12*
X339095000Y-63920000D03*
X332745000Y-66460000D03*
%TD*%
D10*
%TO.C,O1*%
X259590000Y-88300000D03*
D11*
X264670000Y-88300000D03*
D10*
X269750000Y-88300000D03*
D12*
X267210000Y-83220000D03*
X260860000Y-85760000D03*
%TD*%
D10*
%TO.C,-1*%
X288200000Y-69075000D03*
D11*
X293280000Y-69075000D03*
D10*
X298360000Y-69075000D03*
D12*
X295820000Y-63995000D03*
X289470000Y-66535000D03*
%TD*%
D10*
%TO.C,F3*%
X164705000Y-45265000D03*
D11*
X169785000Y-45265000D03*
D10*
X174865000Y-45265000D03*
D12*
X172325000Y-40185000D03*
X165975000Y-42725000D03*
%TD*%
D10*
%TO.C,?/1*%
X292965000Y-126700000D03*
D11*
X298045000Y-126700000D03*
D10*
X303125000Y-126700000D03*
D12*
X300585000Y-121620000D03*
X294235000Y-124160000D03*
%TD*%
D10*
%TO.C,RSHIFT3*%
X370410000Y-114235000D03*
D11*
X375490000Y-114235000D03*
D10*
X380570000Y-114235000D03*
D12*
X378030000Y-109155000D03*
X371680000Y-111695000D03*
%TD*%
D10*
%TO.C,LEFT1*%
X331005000Y-145830000D03*
D11*
X336085000Y-145830000D03*
D10*
X341165000Y-145830000D03*
D12*
X338625000Y-140750000D03*
X332275000Y-143290000D03*
%TD*%
D10*
%TO.C,S1*%
X129620000Y-107425000D03*
D11*
X134700000Y-107425000D03*
D10*
X139780000Y-107425000D03*
D12*
X137240000Y-102345000D03*
X130890000Y-104885000D03*
%TD*%
D10*
%TO.C,Q1*%
X105620000Y-88275000D03*
D11*
X110700000Y-88275000D03*
D10*
X115780000Y-88275000D03*
D12*
X113240000Y-83195000D03*
X106890000Y-85735000D03*
%TD*%
D14*
%TO.C,U1*%
X262275000Y-49335000D03*
D10*
X262275000Y-46795000D03*
X262275000Y-44255000D03*
X262275000Y-41715000D03*
%TD*%
%TO.C,N8*%
X230420000Y-69050000D03*
D11*
X235500000Y-69050000D03*
D10*
X240580000Y-69050000D03*
D12*
X238040000Y-63970000D03*
X231690000Y-66510000D03*
%TD*%
D10*
%TO.C,ENTER1*%
X329150000Y-107550000D03*
D11*
X334230000Y-107550000D03*
D10*
X339310000Y-107550000D03*
D12*
X336770000Y-102470000D03*
X330420000Y-105010000D03*
%TD*%
D10*
%TO.C,CAPS1*%
X84150000Y-107350000D03*
D11*
X89230000Y-107350000D03*
D10*
X94310000Y-107350000D03*
D12*
X91770000Y-102270000D03*
X85420000Y-104810000D03*
%TD*%
D10*
%TO.C,K1*%
X245190000Y-107525000D03*
D11*
X250270000Y-107525000D03*
D10*
X255350000Y-107525000D03*
D12*
X252810000Y-102445000D03*
X246460000Y-104985000D03*
%TD*%
D10*
%TO.C,Y1*%
X201590000Y-88225000D03*
D11*
X206670000Y-88225000D03*
D10*
X211750000Y-88225000D03*
D12*
X209210000Y-83145000D03*
X202860000Y-85685000D03*
%TD*%
D10*
%TO.C,abovetab1*%
X77020000Y-69125000D03*
D11*
X82100000Y-69125000D03*
D10*
X87180000Y-69125000D03*
D12*
X84640000Y-64045000D03*
X78290000Y-66585000D03*
%TD*%
D10*
%TO.C,Tab1*%
X81750000Y-88225000D03*
D11*
X86830000Y-88225000D03*
D10*
X91910000Y-88225000D03*
D12*
X89370000Y-83145000D03*
X83020000Y-85685000D03*
%TD*%
D10*
%TO.C,=2*%
X307525000Y-69000000D03*
D11*
X312605000Y-69000000D03*
D10*
X317685000Y-69000000D03*
D12*
X315145000Y-63920000D03*
X308795000Y-66460000D03*
%TD*%
D10*
%TO.C,A2*%
X110465000Y-107425000D03*
D11*
X115545000Y-107425000D03*
D10*
X120625000Y-107425000D03*
D12*
X118085000Y-102345000D03*
X111735000Y-104885000D03*
%TD*%
D10*
%TO.C,DOWN1*%
X350195000Y-145900000D03*
D11*
X355275000Y-145900000D03*
D10*
X360355000Y-145900000D03*
D12*
X357815000Y-140820000D03*
X351465000Y-143360000D03*
%TD*%
D10*
%TO.C,ESC1*%
X81485000Y-45175000D03*
D11*
X86565000Y-45175000D03*
D10*
X91645000Y-45175000D03*
D12*
X89105000Y-40095000D03*
X82755000Y-42635000D03*
%TD*%
D10*
%TO.C,RSHIFT2*%
X370395000Y-95125000D03*
D11*
X375475000Y-95125000D03*
D10*
X380555000Y-95125000D03*
D12*
X378015000Y-90045000D03*
X371665000Y-92585000D03*
%TD*%
D10*
%TO.C,OPTION1*%
X115340000Y-145750000D03*
D11*
X120420000Y-145750000D03*
D10*
X125500000Y-145750000D03*
D12*
X122960000Y-140670000D03*
X116610000Y-143210000D03*
%TD*%
D10*
%TO.C,:;1*%
X283595000Y-107525000D03*
D11*
X288675000Y-107525000D03*
D10*
X293755000Y-107525000D03*
D12*
X291215000Y-102445000D03*
X284865000Y-104985000D03*
%TD*%
D10*
%TO.C,Z1*%
X119955000Y-126615000D03*
D11*
X125035000Y-126615000D03*
D10*
X130115000Y-126615000D03*
D12*
X127575000Y-121535000D03*
X121225000Y-124075000D03*
%TD*%
D10*
%TO.C,LCRTL1*%
X96165000Y-145625000D03*
D11*
X101245000Y-145625000D03*
D10*
X106325000Y-145625000D03*
D12*
X103785000Y-140545000D03*
X97435000Y-143085000D03*
%TD*%
D10*
%TO.C,N5*%
X173095000Y-69100000D03*
D11*
X178175000Y-69100000D03*
D10*
X183255000Y-69100000D03*
D12*
X180715000Y-64020000D03*
X174365000Y-66560000D03*
%TD*%
D10*
%TO.C,}1*%
X317120000Y-88150000D03*
D11*
X322200000Y-88150000D03*
D10*
X327280000Y-88150000D03*
D12*
X324740000Y-83070000D03*
X318390000Y-85610000D03*
%TD*%
D10*
%TO.C,H1*%
X206415000Y-107450000D03*
D11*
X211495000Y-107450000D03*
D10*
X216575000Y-107450000D03*
D12*
X214035000Y-102370000D03*
X207685000Y-104910000D03*
%TD*%
D10*
%TO.C,RSHIFT1*%
X324020000Y-126717500D03*
D11*
X329100000Y-126717500D03*
D10*
X334180000Y-126717500D03*
D12*
X331640000Y-121637500D03*
X325290000Y-124177500D03*
%TD*%
D10*
%TO.C,J1*%
X225895000Y-107425000D03*
D11*
X230975000Y-107425000D03*
D10*
X236055000Y-107425000D03*
D12*
X233515000Y-102345000D03*
X227165000Y-104885000D03*
%TD*%
D10*
%TO.C,N4*%
X153795000Y-69075000D03*
D11*
X158875000Y-69075000D03*
D10*
X163955000Y-69075000D03*
D12*
X161415000Y-63995000D03*
X155065000Y-66535000D03*
%TD*%
D10*
%TO.C,<1*%
X254520000Y-126650000D03*
D11*
X259600000Y-126650000D03*
D10*
X264680000Y-126650000D03*
D12*
X262140000Y-121570000D03*
X255790000Y-124110000D03*
%TD*%
D13*
%TO.C,LSHIFT1*%
X82075000Y-119535000D03*
D11*
X82075000Y-134775000D03*
D10*
X88895000Y-126535000D03*
D11*
X93975000Y-126535000D03*
D10*
X99055000Y-126535000D03*
D13*
X105875000Y-119535000D03*
D11*
X105875000Y-134775000D03*
D12*
X96515000Y-121455000D03*
X90165000Y-123995000D03*
%TD*%
D10*
%TO.C,D151*%
X148780000Y-107455000D03*
D11*
X153860000Y-107455000D03*
D10*
X158940000Y-107455000D03*
D12*
X156400000Y-102375000D03*
X150050000Y-104915000D03*
%TD*%
%TO.C,A1*%
X369085000Y-25255000D03*
D15*
X369385000Y-28285000D03*
X374235000Y-28285000D03*
D12*
X374535000Y-25255000D03*
D16*
X372394100Y-54955000D03*
D17*
X374934100Y-54955000D03*
X377474100Y-54955000D03*
%TD*%
D10*
%TO.C,F5*%
X220155000Y-45430000D03*
D11*
X225235000Y-45430000D03*
D10*
X230315000Y-45430000D03*
D12*
X227775000Y-40350000D03*
X221425000Y-42890000D03*
%TD*%
D10*
%TO.C,I1*%
X240295000Y-88150000D03*
D11*
X245375000Y-88150000D03*
D10*
X250455000Y-88150000D03*
D12*
X247915000Y-83070000D03*
X241565000Y-85610000D03*
%TD*%
D10*
%TO.C,F6*%
X239365000Y-45450000D03*
D11*
X244445000Y-45450000D03*
D10*
X249525000Y-45450000D03*
D12*
X246985000Y-40370000D03*
X240635000Y-42910000D03*
%TD*%
D10*
%TO.C,T1*%
X182440000Y-88400000D03*
D11*
X187520000Y-88400000D03*
D10*
X192600000Y-88400000D03*
D12*
X190060000Y-83320000D03*
X183710000Y-85860000D03*
%TD*%
D10*
%TO.C,F1*%
X126370000Y-45240000D03*
D11*
X131450000Y-45240000D03*
D10*
X136530000Y-45240000D03*
D12*
X133990000Y-40160000D03*
X127640000Y-42700000D03*
%TD*%
D10*
%TO.C,UP1*%
X350190000Y-126750000D03*
D11*
X355270000Y-126750000D03*
D10*
X360350000Y-126750000D03*
D12*
X357810000Y-121670000D03*
X351460000Y-124210000D03*
%TD*%
D10*
%TO.C,N2*%
X115570000Y-69075000D03*
D11*
X120650000Y-69075000D03*
D10*
X125730000Y-69075000D03*
D12*
X123190000Y-63995000D03*
X116840000Y-66535000D03*
%TD*%
D10*
%TO.C,U2*%
X221005000Y-88180000D03*
D11*
X226085000Y-88180000D03*
D10*
X231165000Y-88180000D03*
D12*
X228625000Y-83100000D03*
X222275000Y-85640000D03*
%TD*%
D10*
%TO.C,C1*%
X158345000Y-126625000D03*
D11*
X163425000Y-126625000D03*
D10*
X168505000Y-126625000D03*
D12*
X165965000Y-121545000D03*
X159615000Y-124085000D03*
%TD*%
D10*
%TO.C,"'1*%
X302845000Y-107550000D03*
D11*
X307925000Y-107550000D03*
D10*
X313005000Y-107550000D03*
D12*
X310465000Y-102470000D03*
X304115000Y-105010000D03*
%TD*%
D10*
%TO.C,N10*%
X215870000Y-126525000D03*
D11*
X220950000Y-126525000D03*
D10*
X226030000Y-126525000D03*
D12*
X223490000Y-121445000D03*
X217140000Y-123985000D03*
%TD*%
D10*
%TO.C,RIGHT1*%
X369495000Y-145900000D03*
D11*
X374575000Y-145900000D03*
D10*
X379655000Y-145900000D03*
D12*
X377115000Y-140820000D03*
X370765000Y-143360000D03*
%TD*%
D10*
%TO.C,F2*%
X145575000Y-45240000D03*
D11*
X150655000Y-45240000D03*
D10*
X155735000Y-45240000D03*
D12*
X153195000Y-40160000D03*
X146845000Y-42700000D03*
%TD*%
D10*
%TO.C,\u005C|1*%
X336225000Y-88175000D03*
D11*
X341305000Y-88175000D03*
D10*
X346385000Y-88175000D03*
D12*
X343845000Y-83095000D03*
X337495000Y-85635000D03*
%TD*%
D18*
%TO.C,SW2*%
X332000000Y-43425000D03*
D19*
X332000000Y-48425000D03*
X332000000Y-45925000D03*
D20*
X339500000Y-40325000D03*
X339500000Y-51525000D03*
D19*
X346500000Y-48425000D03*
X346500000Y-43425000D03*
%TD*%
D18*
%TO.C,SW1*%
X304375000Y-43275000D03*
D19*
X304375000Y-48275000D03*
X304375000Y-45775000D03*
D20*
X311875000Y-40175000D03*
X311875000Y-51375000D03*
D19*
X318875000Y-48275000D03*
X318875000Y-43275000D03*
%TD*%
D21*
%TO.C,D152*%
X327475000Y-74185000D03*
D17*
X327475000Y-66565000D03*
%TD*%
D21*
%TO.C,D69*%
X274175000Y-150185000D03*
D17*
X274175000Y-142565000D03*
%TD*%
D21*
%TO.C,D56*%
X173200000Y-131220000D03*
D17*
X173200000Y-123600000D03*
%TD*%
D21*
%TO.C,D38*%
X331500000Y-93010000D03*
D17*
X331500000Y-85390000D03*
%TD*%
D21*
%TO.C,D47*%
X240725000Y-112435000D03*
D17*
X240725000Y-104815000D03*
%TD*%
D21*
%TO.C,D57*%
X192475000Y-131470000D03*
D17*
X192475000Y-123850000D03*
%TD*%
D21*
%TO.C,D76*%
X328175000Y-50410000D03*
D17*
X328175000Y-42790000D03*
%TD*%
D21*
%TO.C,D59*%
X230525000Y-130860000D03*
D17*
X230525000Y-123240000D03*
%TD*%
D21*
%TO.C,D42*%
X144500000Y-112210000D03*
D17*
X144500000Y-104590000D03*
%TD*%
D21*
%TO.C,D3*%
X141850000Y-50300000D03*
D17*
X141850000Y-42680000D03*
%TD*%
D21*
%TO.C,D71*%
X318225000Y-151495000D03*
D17*
X318225000Y-143875000D03*
%TD*%
D21*
%TO.C,D6*%
X215850000Y-50365000D03*
D17*
X215850000Y-42745000D03*
%TD*%
D21*
%TO.C,D99*%
X363650000Y-114685000D03*
D17*
X363650000Y-107065000D03*
%TD*%
D21*
%TO.C,D1*%
X94985000Y-49625000D03*
D17*
X94985000Y-42005000D03*
%TD*%
D21*
%TO.C,D5*%
X196950000Y-50550000D03*
D17*
X196950000Y-42930000D03*
%TD*%
D21*
%TO.C,D40*%
X105725000Y-111210000D03*
D17*
X105725000Y-103590000D03*
%TD*%
D21*
%TO.C,D62*%
X288750000Y-132185000D03*
D17*
X288750000Y-124565000D03*
%TD*%
D21*
%TO.C,D70*%
X294350000Y-150700000D03*
D17*
X294350000Y-143080000D03*
%TD*%
D21*
%TO.C,D17*%
X206650000Y-74150000D03*
D17*
X206650000Y-66530000D03*
%TD*%
D21*
%TO.C,D35*%
X274250000Y-92150000D03*
D17*
X274250000Y-84530000D03*
%TD*%
D21*
%TO.C,D25*%
X75675000Y-92435000D03*
D17*
X75675000Y-84815000D03*
%TD*%
D21*
%TO.C,D13*%
X129900000Y-73450000D03*
D17*
X129900000Y-65830000D03*
%TD*%
D21*
%TO.C,D61*%
X269450000Y-130860000D03*
D17*
X269450000Y-123240000D03*
%TD*%
D21*
%TO.C,D33*%
X235125000Y-93685000D03*
D17*
X235125000Y-86065000D03*
%TD*%
D21*
%TO.C,D65*%
X93100000Y-150335000D03*
D17*
X93100000Y-142715000D03*
%TD*%
D21*
%TO.C,D30*%
X178125000Y-92860000D03*
D17*
X178125000Y-85240000D03*
%TD*%
D21*
%TO.C,D55*%
X154150000Y-131470000D03*
D17*
X154150000Y-123850000D03*
%TD*%
D21*
%TO.C,D58*%
X211825000Y-130985000D03*
D17*
X211825000Y-123365000D03*
%TD*%
D21*
%TO.C,D16*%
X187350000Y-73750000D03*
D17*
X187350000Y-66130000D03*
%TD*%
D21*
%TO.C,D27*%
X120675000Y-92435000D03*
D17*
X120675000Y-84815000D03*
%TD*%
D21*
%TO.C,D64*%
X73975000Y-150785000D03*
D17*
X73975000Y-143165000D03*
%TD*%
D21*
%TO.C,D21*%
X283350000Y-73650000D03*
D17*
X283350000Y-66030000D03*
%TD*%
D21*
%TO.C,D36*%
X294000000Y-92485000D03*
D17*
X294000000Y-84865000D03*
%TD*%
D21*
%TO.C,D11*%
X93450000Y-74325000D03*
D17*
X93450000Y-66705000D03*
%TD*%
D21*
%TO.C,D32*%
X215850000Y-92860000D03*
D17*
X215850000Y-85240000D03*
%TD*%
D21*
%TO.C,D72*%
X345825000Y-130925000D03*
D17*
X345825000Y-123305000D03*
%TD*%
D21*
%TO.C,D67*%
X131950000Y-151120000D03*
D17*
X131950000Y-143500000D03*
%TD*%
D21*
%TO.C,D20*%
X264350000Y-74175000D03*
D17*
X264350000Y-66555000D03*
%TD*%
D21*
%TO.C,D68*%
X151650000Y-152110000D03*
D17*
X151650000Y-144490000D03*
%TD*%
D21*
%TO.C,D14*%
X149450000Y-73925000D03*
D17*
X149450000Y-66305000D03*
%TD*%
D21*
%TO.C,D18*%
X226725000Y-74150000D03*
D17*
X226725000Y-66530000D03*
%TD*%
D21*
%TO.C,D39*%
X98700000Y-111185000D03*
D17*
X98700000Y-103565000D03*
%TD*%
D21*
%TO.C,D48*%
X259800000Y-112110000D03*
D17*
X259800000Y-104490000D03*
%TD*%
D21*
%TO.C,D43*%
X163400000Y-112985000D03*
D17*
X163400000Y-105365000D03*
%TD*%
D21*
%TO.C,D46*%
X221025000Y-111860000D03*
D17*
X221025000Y-104240000D03*
%TD*%
D21*
%TO.C,D44*%
X182900000Y-112795000D03*
D17*
X182900000Y-105175000D03*
%TD*%
D21*
%TO.C,D2*%
X120200000Y-49550000D03*
D17*
X120200000Y-41930000D03*
%TD*%
D21*
%TO.C,D49*%
X278875000Y-111785000D03*
D17*
X278875000Y-104165000D03*
%TD*%
D21*
%TO.C,D19*%
X244825000Y-73750000D03*
D17*
X244825000Y-66130000D03*
%TD*%
D21*
%TO.C,D51*%
X321325000Y-111460000D03*
D17*
X321325000Y-103840000D03*
%TD*%
D21*
%TO.C,D7*%
X233525000Y-48760000D03*
D17*
X233525000Y-41140000D03*
%TD*%
D21*
%TO.C,D24*%
X302350000Y-72625000D03*
D17*
X302350000Y-65005000D03*
%TD*%
D21*
%TO.C,D29*%
X159250000Y-92470000D03*
D17*
X159250000Y-84850000D03*
%TD*%
D21*
%TO.C,D12*%
X110975000Y-73875000D03*
D17*
X110975000Y-66255000D03*
%TD*%
D21*
%TO.C,D37*%
X312575000Y-92150000D03*
D17*
X312575000Y-84530000D03*
%TD*%
D21*
%TO.C,D45*%
X201825000Y-112435000D03*
D17*
X201825000Y-104815000D03*
%TD*%
D21*
%TO.C,D66*%
X110825000Y-151120000D03*
D17*
X110825000Y-143500000D03*
%TD*%
D21*
%TO.C,D75*%
X325025000Y-50310000D03*
D17*
X325025000Y-42690000D03*
%TD*%
D21*
%TO.C,D54*%
X134850000Y-131970000D03*
D17*
X134850000Y-124350000D03*
%TD*%
D21*
%TO.C,D63*%
X314600000Y-131185000D03*
D17*
X314600000Y-123565000D03*
%TD*%
D22*
%TO.C,D73*%
X344315000Y-136850000D03*
D17*
X351935000Y-136850000D03*
%TD*%
D21*
%TO.C,D34*%
X255675000Y-91710000D03*
D17*
X255675000Y-84090000D03*
%TD*%
D21*
%TO.C,D31*%
X196975000Y-93285000D03*
D17*
X196975000Y-85665000D03*
%TD*%
D21*
%TO.C,D4*%
X160600000Y-50115000D03*
D17*
X160600000Y-42495000D03*
%TD*%
D21*
%TO.C,D15*%
X169075000Y-73925000D03*
D17*
X169075000Y-66305000D03*
%TD*%
D21*
%TO.C,D26*%
X101175000Y-92535000D03*
D17*
X101175000Y-84915000D03*
%TD*%
D21*
%TO.C,D52*%
X104150000Y-131035000D03*
D17*
X104150000Y-123415000D03*
%TD*%
D21*
%TO.C,D50*%
X298300000Y-112250000D03*
D17*
X298300000Y-104630000D03*
%TD*%
D21*
%TO.C,D10*%
X90525000Y-74285000D03*
D17*
X90525000Y-66665000D03*
%TD*%
D21*
%TO.C,D60*%
X250500000Y-131535000D03*
D17*
X250500000Y-123915000D03*
%TD*%
D21*
%TO.C,D28*%
X139125000Y-92470000D03*
D17*
X139125000Y-84850000D03*
%TD*%
D21*
%TO.C,D98*%
X363825000Y-100010000D03*
D17*
X363825000Y-92390000D03*
%TD*%
D21*
%TO.C,D41*%
X125050000Y-111560000D03*
D17*
X125050000Y-103940000D03*
%TD*%
D23*
%TO.C,D74*%
X363575000Y-136865000D03*
D17*
X363575000Y-144485000D03*
%TD*%
D21*
%TO.C,D53*%
X109800000Y-131720000D03*
D17*
X109800000Y-124100000D03*
%TD*%
M02*
