%TF.GenerationSoftware,KiCad,Pcbnew,10.0.4*%
%TF.CreationDate,2026-08-13T14:30:01-04:00*%
%TF.ProjectId,keyboard,6b657962-6f61-4726-942e-6b696361645f,rev?*%
%TF.SameCoordinates,Original*%
%TF.FileFunction,Copper,L1,Top*%
%TF.FilePolarity,Positive*%
%FSLAX46Y46*%
G04 Gerber Fmt 4.6, Leading zero omitted, Abs format (unit mm)*
G04 Created by KiCad (PCBNEW 10.0.4) date 2026-08-13 14:30:01*
%MOMM*%
%LPD*%
G01*
G04 APERTURE LIST*
G04 Aperture macros list*
%AMRoundRect*
0 Rectangle with rounded corners*
0 $1 Rounding radius*
0 $2 $3 $4 $5 $6 $7 $8 $9 X,Y pos of 4 corners*
0 Add a 4 corners polygon primitive as box body*
4,1,4,$2,$3,$4,$5,$6,$7,$8,$9,$2,$3,0*
0 Add four circle primitives for the rounded corners*
1,1,$1+$1,$2,$3*
1,1,$1+$1,$4,$5*
1,1,$1+$1,$6,$7*
1,1,$1+$1,$8,$9*
0 Add four rect primitives between the rounded corners*
20,1,$1+$1,$2,$3,$4,$5,0*
20,1,$1+$1,$4,$5,$6,$7,0*
20,1,$1+$1,$6,$7,$8,$9,0*
20,1,$1+$1,$8,$9,$2,$3,0*%
%AMFreePoly0*
4,1,37,0.800000,0.796148,0.878414,0.796148,1.032228,0.765552,1.177117,0.705537,1.307515,0.618408,1.418408,0.507515,1.505537,0.377117,1.565552,0.232228,1.596148,0.078414,1.596148,-0.078414,1.565552,-0.232228,1.505537,-0.377117,1.418408,-0.507515,1.307515,-0.618408,1.177117,-0.705537,1.032228,-0.765552,0.878414,-0.796148,0.800000,-0.796148,0.800000,-0.800000,-1.400000,-0.800000,
-1.403843,-0.796157,-1.439018,-0.796157,-1.511114,-0.766294,-1.566294,-0.711114,-1.596157,-0.639018,-1.596157,-0.603843,-1.600000,-0.600000,-1.600000,0.600000,-1.596157,0.603843,-1.596157,0.639018,-1.566294,0.711114,-1.511114,0.766294,-1.439018,0.796157,-1.403843,0.796157,-1.400000,0.800000,0.800000,0.800000,0.800000,0.796148,0.800000,0.796148,$1*%
%AMFreePoly1*
4,1,37,1.403843,0.796157,1.439018,0.796157,1.511114,0.766294,1.566294,0.711114,1.596157,0.639018,1.596157,0.603843,1.600000,0.600000,1.600000,-0.600000,1.596157,-0.603843,1.596157,-0.639018,1.566294,-0.711114,1.511114,-0.766294,1.439018,-0.796157,1.403843,-0.796157,1.400000,-0.800000,-0.800000,-0.800000,-0.800000,-0.796148,-0.878414,-0.796148,-1.032228,-0.765552,-1.177117,-0.705537,
-1.307515,-0.618408,-1.418408,-0.507515,-1.505537,-0.377117,-1.565552,-0.232228,-1.596148,-0.078414,-1.596148,0.078414,-1.565552,0.232228,-1.505537,0.377117,-1.418408,0.507515,-1.307515,0.618408,-1.177117,0.705537,-1.032228,0.765552,-0.878414,0.796148,-0.800000,0.796148,-0.800000,0.800000,1.400000,0.800000,1.403843,0.796157,1.403843,0.796157,$1*%
G04 Aperture macros list end*
%TA.AperFunction,ComponentPad*%
%ADD10C,2.200000*%
%TD*%
%TA.AperFunction,ComponentPad*%
%ADD11RoundRect,0.170000X0.680000X-0.680000X0.680000X0.680000X-0.680000X0.680000X-0.680000X-0.680000X0*%
%TD*%
%TA.AperFunction,ComponentPad*%
%ADD12C,1.700000*%
%TD*%
%TA.AperFunction,SMDPad,CuDef*%
%ADD13FreePoly0,0.000000*%
%TD*%
%TA.AperFunction,SMDPad,CuDef*%
%ADD14RoundRect,0.800000X-0.800000X-0.000010X0.800000X-0.000010X0.800000X0.000010X-0.800000X0.000010X0*%
%TD*%
%TA.AperFunction,SMDPad,CuDef*%
%ADD15FreePoly1,0.000000*%
%TD*%
%TA.AperFunction,ComponentPad*%
%ADD16RoundRect,0.200000X-0.600000X-0.600000X0.600000X-0.600000X0.600000X0.600000X-0.600000X0.600000X0*%
%TD*%
%TA.AperFunction,ComponentPad*%
%ADD17C,1.600000*%
%TD*%
%TA.AperFunction,ComponentPad*%
%ADD18R,2.000000X2.000000*%
%TD*%
%TA.AperFunction,ComponentPad*%
%ADD19C,2.000000*%
%TD*%
%TA.AperFunction,ComponentPad*%
%ADD20R,3.200000X2.000000*%
%TD*%
%TA.AperFunction,ComponentPad*%
%ADD21RoundRect,0.250000X0.550000X-0.550000X0.550000X0.550000X-0.550000X0.550000X-0.550000X-0.550000X0*%
%TD*%
%TA.AperFunction,ComponentPad*%
%ADD22RoundRect,0.250000X-0.550000X-0.550000X0.550000X-0.550000X0.550000X0.550000X-0.550000X0.550000X0*%
%TD*%
%TA.AperFunction,ComponentPad*%
%ADD23RoundRect,0.250000X-0.550000X0.550000X-0.550000X-0.550000X0.550000X-0.550000X0.550000X0.550000X0*%
%TD*%
%TA.AperFunction,ViaPad*%
%ADD24C,0.600000*%
%TD*%
%TA.AperFunction,Conductor*%
%ADD25C,0.200000*%
%TD*%
G04 APERTURE END LIST*
D10*
%TO.P,F9,1,1_1*%
%TO.N,/C5*%
X175585000Y-102370000D03*
%TO.P,F9,2,2_2*%
%TO.N,Net-(D43-A)*%
X169235000Y-104910000D03*
%TD*%
%TO.P,B1,1,1_1*%
%TO.N,/C6*%
X204335000Y-121645000D03*
%TO.P,B1,2,2_2*%
%TO.N,Net-(D57-A)*%
X197985000Y-124185000D03*
%TD*%
%TO.P,CMD1,1,1_1*%
%TO.N,/C4*%
X144595000Y-140670000D03*
%TO.P,CMD1,2,2_2*%
%TO.N,Net-(D67-A)*%
X138245000Y-143210000D03*
%TD*%
%TO.P,SPACE1,1,1_1*%
%TO.N,/C5*%
X216215000Y-140762500D03*
%TO.P,SPACE1,2,2_2*%
%TO.N,Net-(D68-A)*%
X209865000Y-143302500D03*
%TD*%
%TO.P,P1,1,1_1*%
%TO.N,/C11*%
X286440000Y-83195000D03*
%TO.P,P1,2,2_2*%
%TO.N,Net-(D35-A)*%
X280090000Y-85735000D03*
%TD*%
%TO.P,>1,1,1_1*%
%TO.N,/C10*%
X281315000Y-121470000D03*
%TO.P,>1,2,2_2*%
%TO.N,Net-(D61-A)*%
X274965000Y-124010000D03*
%TD*%
%TO.P,N9,1,1_1*%
%TO.N,/C10*%
X257135000Y-63970000D03*
%TO.P,N9,2,2_2*%
%TO.N,Net-(D19-A)*%
X250785000Y-66510000D03*
%TD*%
%TO.P,RCMD1,1,1_1*%
%TO.N,/C6*%
X287765000Y-140770000D03*
%TO.P,RCMD1,2,2_2*%
%TO.N,Net-(D69-A)*%
X281415000Y-143310000D03*
%TD*%
%TO.P,N0,1,1_1*%
%TO.N,/C11*%
X276515000Y-63895000D03*
%TO.P,N0,2,2_2*%
%TO.N,Net-(D20-A)*%
X270165000Y-66435000D03*
%TD*%
%TO.P,M1,1,1_1*%
%TO.N,/C8*%
X242860000Y-121470000D03*
%TO.P,M1,2,2_2*%
%TO.N,Net-(D59-A)*%
X236510000Y-124010000D03*
%TD*%
%TO.P,X1,1,1_1*%
%TO.N,/C3*%
X146815000Y-121545000D03*
%TO.P,X1,2,2_2*%
%TO.N,Net-(D54-A)*%
X140465000Y-124085000D03*
%TD*%
%TO.P,V1,1,1_1*%
%TO.N,/C5*%
X185115000Y-121570000D03*
%TO.P,V1,2,2_2*%
%TO.N,Net-(D56-A)*%
X178765000Y-124110000D03*
%TD*%
%TO.P,N3,1,1_1*%
%TO.N,/C4*%
X142345000Y-63970000D03*
%TO.P,N3,2,2_2*%
%TO.N,Net-(D13-A)*%
X135995000Y-66510000D03*
%TD*%
%TO.P,E1,1,1_1*%
%TO.N,/C4*%
X151675000Y-83275000D03*
%TO.P,E1,2,2_2*%
%TO.N,Net-(D28-A)*%
X145325000Y-85815000D03*
%TD*%
%TO.P,R1,1,1_1*%
%TO.N,/C5*%
X171020000Y-83345000D03*
%TO.P,R1,2,2_2*%
%TO.N,Net-(D29-A)*%
X164670000Y-85885000D03*
%TD*%
%TO.P,W1,1,1_1*%
%TO.N,/C3*%
X132415000Y-83195000D03*
%TO.P,W1,2,2_2*%
%TO.N,Net-(D27-A)*%
X126065000Y-85735000D03*
%TD*%
%TO.P,{1,1,1_1*%
%TO.N,/C12*%
X305550000Y-83200000D03*
%TO.P,{1,2,2_2*%
%TO.N,Net-(D36-A)*%
X299200000Y-85740000D03*
%TD*%
%TO.P,N1,1,1_1*%
%TO.N,/C2*%
X103925000Y-64010000D03*
%TO.P,N1,2,2_2*%
%TO.N,Net-(D11-A)*%
X97575000Y-66550000D03*
%TD*%
%TO.P,LFN1,1,1_1*%
%TO.N,/C1*%
X84725000Y-140635000D03*
%TO.P,LFN1,2,2_2*%
%TO.N,Net-(D64-A)*%
X78375000Y-143175000D03*
%TD*%
%TO.P,F4,1,1_1*%
%TO.N,/C5*%
X208595000Y-40325000D03*
%TO.P,F4,2,2_2*%
%TO.N,Net-(D5-A)*%
X202245000Y-42865000D03*
%TD*%
%TO.P,N6,1,1_1*%
%TO.N,/C7*%
X199735000Y-63945000D03*
%TO.P,N6,2,2_2*%
%TO.N,Net-(D16-A)*%
X193385000Y-66485000D03*
%TD*%
%TO.P,L1,1,1_1*%
%TO.N,/C10*%
X272040000Y-102395000D03*
%TO.P,L1,2,2_2*%
%TO.N,Net-(D48-A)*%
X265690000Y-104935000D03*
%TD*%
%TO.P,N7,1,1_1*%
%TO.N,/C8*%
X218840000Y-63945000D03*
%TO.P,N7,2,2_2*%
%TO.N,Net-(D17-A)*%
X212490000Y-66485000D03*
%TD*%
%TO.P,ROPTION1,1,1_1*%
%TO.N,/C7*%
X309395000Y-140795000D03*
%TO.P,ROPTION1,2,2_2*%
%TO.N,Net-(D70-A)*%
X303045000Y-143335000D03*
%TD*%
%TO.P,G1,1,1_1*%
%TO.N,/C6*%
X194810000Y-102370000D03*
%TO.P,G1,2,2_2*%
%TO.N,Net-(D44-A)*%
X188460000Y-104910000D03*
%TD*%
%TO.P,DELL1,1,1_1*%
%TO.N,/C13*%
X339095000Y-63920000D03*
%TO.P,DELL1,2,2_2*%
%TO.N,Net-(D152-A)*%
X332745000Y-66460000D03*
%TD*%
%TO.P,O1,1,1_1*%
%TO.N,/C10*%
X267210000Y-83220000D03*
%TO.P,O1,2,2_2*%
%TO.N,Net-(D34-A)*%
X260860000Y-85760000D03*
%TD*%
%TO.P,-1,1,1_1*%
%TO.N,/C12*%
X295820000Y-63995000D03*
%TO.P,-1,2,2_2*%
%TO.N,Net-(D21-A)*%
X289470000Y-66535000D03*
%TD*%
%TO.P,F3,1,1_1*%
%TO.N,/C4*%
X172325000Y-40185000D03*
%TO.P,F3,2,2_2*%
%TO.N,Net-(D4-A)*%
X165975000Y-42725000D03*
%TD*%
%TO.P,?/1,1,1_1*%
%TO.N,/C11*%
X300585000Y-121620000D03*
%TO.P,?/1,2,2_2*%
%TO.N,Net-(D62-A)*%
X294235000Y-124160000D03*
%TD*%
%TO.P,RSHIFT3,1,1_1*%
%TO.N,/C13*%
X378030000Y-109155000D03*
%TO.P,RSHIFT3,2,2_2*%
%TO.N,Net-(D99-A)*%
X371680000Y-111695000D03*
%TD*%
%TO.P,LEFT1,1,1_1*%
%TO.N,/C8*%
X338625000Y-140750000D03*
%TO.P,LEFT1,2,2_2*%
%TO.N,Net-(D71-A)*%
X332275000Y-143290000D03*
%TD*%
%TO.P,S1,1,1_1*%
%TO.N,/C3*%
X137240000Y-102345000D03*
%TO.P,S1,2,2_2*%
%TO.N,Net-(D41-A)*%
X130890000Y-104885000D03*
%TD*%
%TO.P,Q1,1,1_1*%
%TO.N,/C2*%
X113240000Y-83195000D03*
%TO.P,Q1,2,2_2*%
%TO.N,Net-(D26-A)*%
X106890000Y-85735000D03*
%TD*%
D11*
%TO.P,U1,1,GND_1*%
%TO.N,GND*%
X262275000Y-49335000D03*
D12*
%TO.P,U1,2,VCC_2*%
%TO.N,+3.3V*%
X262275000Y-46795000D03*
%TO.P,U1,3,SCL_3*%
%TO.N,/SCL*%
X262275000Y-44255000D03*
%TO.P,U1,4,SDA_4*%
%TO.N,/SDA*%
X262275000Y-41715000D03*
%TD*%
D10*
%TO.P,N8,1,1_1*%
%TO.N,/C9*%
X238040000Y-63970000D03*
%TO.P,N8,2,2_2*%
%TO.N,Net-(D18-A)*%
X231690000Y-66510000D03*
%TD*%
%TO.P,ENTER1,1,1_1*%
%TO.N,/C13*%
X336770000Y-102470000D03*
%TO.P,ENTER1,2,2_2*%
%TO.N,Net-(D51-A)*%
X330420000Y-105010000D03*
%TD*%
%TO.P,CAPS1,1,1_1*%
%TO.N,/C1*%
X91770000Y-102270000D03*
%TO.P,CAPS1,2,2_2*%
%TO.N,Net-(D39-A)*%
X85420000Y-104810000D03*
%TD*%
%TO.P,K1,1,1_1*%
%TO.N,/C9*%
X252810000Y-102445000D03*
%TO.P,K1,2,2_2*%
%TO.N,Net-(D47-A)*%
X246460000Y-104985000D03*
%TD*%
%TO.P,Y1,1,1_1*%
%TO.N,/C7*%
X209210000Y-83145000D03*
%TO.P,Y1,2,2_2*%
%TO.N,Net-(D31-A)*%
X202860000Y-85685000D03*
%TD*%
%TO.P,abovetab1,1,1_1*%
%TO.N,/C1*%
X84640000Y-64045000D03*
%TO.P,abovetab1,2,2_2*%
%TO.N,Net-(D10-A)*%
X78290000Y-66585000D03*
%TD*%
%TO.P,Tab1,1,1_1*%
%TO.N,/C1*%
X89370000Y-83145000D03*
%TO.P,Tab1,2,2_2*%
%TO.N,Net-(D25-A)*%
X83020000Y-85685000D03*
%TD*%
%TO.P,=2,1,1_1*%
%TO.N,/C13*%
X315145000Y-63920000D03*
%TO.P,=2,2,2_2*%
%TO.N,Net-(D24-A)*%
X308795000Y-66460000D03*
%TD*%
%TO.P,A2,1,1_1*%
%TO.N,/C2*%
X118085000Y-102345000D03*
%TO.P,A2,2,2_2*%
%TO.N,Net-(D40-A)*%
X111735000Y-104885000D03*
%TD*%
%TO.P,DOWN1,1,1_1*%
%TO.N,/C10*%
X357815000Y-140820000D03*
%TO.P,DOWN1,2,2_2*%
%TO.N,Net-(D73-A)*%
X351465000Y-143360000D03*
%TD*%
%TO.P,ESC1,1,1_1*%
%TO.N,/C1*%
X89105000Y-40095000D03*
%TO.P,ESC1,2,2_2*%
%TO.N,Net-(D1-A)*%
X82755000Y-42635000D03*
%TD*%
%TO.P,RSHIFT2,1,1_1*%
%TO.N,/C13*%
X378015000Y-90045000D03*
%TO.P,RSHIFT2,2,2_2*%
%TO.N,Net-(D98-A)*%
X371665000Y-92585000D03*
%TD*%
%TO.P,OPTION1,1,1_1*%
%TO.N,/C3*%
X122960000Y-140670000D03*
%TO.P,OPTION1,2,2_2*%
%TO.N,Net-(D66-A)*%
X116610000Y-143210000D03*
%TD*%
%TO.P,:;1,1,1_1*%
%TO.N,/C11*%
X291215000Y-102445000D03*
%TO.P,:;1,2,2_2*%
%TO.N,Net-(D49-A)*%
X284865000Y-104985000D03*
%TD*%
%TO.P,Z1,1,1_1*%
%TO.N,/C2*%
X127575000Y-121535000D03*
%TO.P,Z1,2,2_2*%
%TO.N,Net-(D53-A)*%
X121225000Y-124075000D03*
%TD*%
%TO.P,LCRTL1,1,1_1*%
%TO.N,/C2*%
X103785000Y-140545000D03*
%TO.P,LCRTL1,2,2_2*%
%TO.N,Net-(D65-A)*%
X97435000Y-143085000D03*
%TD*%
%TO.P,N5,1,1_1*%
%TO.N,/C6*%
X180715000Y-64020000D03*
%TO.P,N5,2,2_2*%
%TO.N,Net-(D15-A)*%
X174365000Y-66560000D03*
%TD*%
%TO.P,}1,1,1_1*%
%TO.N,/C13*%
X324740000Y-83070000D03*
%TO.P,}1,2,2_2*%
%TO.N,Net-(D37-A)*%
X318390000Y-85610000D03*
%TD*%
%TO.P,H1,1,1_1*%
%TO.N,/C7*%
X214035000Y-102370000D03*
%TO.P,H1,2,2_2*%
%TO.N,Net-(D45-A)*%
X207685000Y-104910000D03*
%TD*%
%TO.P,RSHIFT1,1,1_1*%
%TO.N,/C12*%
X331640000Y-121637500D03*
%TO.P,RSHIFT1,2,2_2*%
%TO.N,Net-(D63-A)*%
X325290000Y-124177500D03*
%TD*%
%TO.P,J1,1,1_1*%
%TO.N,/C8*%
X233515000Y-102345000D03*
%TO.P,J1,2,2_2*%
%TO.N,Net-(D46-A)*%
X227165000Y-104885000D03*
%TD*%
%TO.P,N4,1,1_1*%
%TO.N,/C5*%
X161415000Y-63995000D03*
%TO.P,N4,2,2_2*%
%TO.N,Net-(D14-A)*%
X155065000Y-66535000D03*
%TD*%
%TO.P,<1,1,1_1*%
%TO.N,/C9*%
X262140000Y-121570000D03*
%TO.P,<1,2,2_2*%
%TO.N,Net-(D60-A)*%
X255790000Y-124110000D03*
%TD*%
%TO.P,LSHIFT1,1,1_1*%
%TO.N,/C1*%
X96515000Y-121455000D03*
%TO.P,LSHIFT1,2,2_2*%
%TO.N,Net-(D52-A)*%
X90165000Y-123995000D03*
%TD*%
%TO.P,D151,1,1_1*%
%TO.N,/C4*%
X156400000Y-102375000D03*
%TO.P,D151,2,2_2*%
%TO.N,Net-(D42-A)*%
X150050000Y-104915000D03*
%TD*%
D13*
%TO.P,A1,1,GPIO0_1*%
%TO.N,/C1*%
X362120000Y-25125000D03*
D14*
%TO.P,A1,2,GPIO1_2*%
%TO.N,/C2*%
X362120000Y-27665000D03*
D15*
%TO.P,A1,3,GND_3*%
%TO.N,GND*%
X362120000Y-30205000D03*
D14*
%TO.P,A1,4,GPIO2_4*%
%TO.N,/C3*%
X362120000Y-32745000D03*
%TO.P,A1,5,GPIO3_5*%
%TO.N,/C4*%
X362120000Y-35285000D03*
%TO.P,A1,6,GPIO4_6*%
%TO.N,/C5*%
X362120000Y-37825000D03*
%TO.P,A1,7,GPIO5_7*%
%TO.N,/C6*%
X362120000Y-40365000D03*
D15*
%TO.P,A1,8,GND_8*%
%TO.N,GND*%
X362120000Y-42905000D03*
D14*
%TO.P,A1,9,GPIO6_9*%
%TO.N,/C7*%
X362120000Y-45445000D03*
%TO.P,A1,10,GPIO7_10*%
%TO.N,/C8*%
X362120000Y-47985000D03*
%TO.P,A1,11,GPIO8_11*%
%TO.N,/C9*%
X362120000Y-50525000D03*
%TO.P,A1,12,GPIO9_12*%
%TO.N,/C10*%
X362120000Y-53065000D03*
D15*
%TO.P,A1,13,GND_13*%
%TO.N,GND*%
X362120000Y-55605000D03*
D14*
%TO.P,A1,14,GPIO10_14*%
%TO.N,/C11*%
X362120000Y-58145000D03*
%TO.P,A1,15,GPIO11_15*%
%TO.N,/C12*%
X362120000Y-60685000D03*
%TO.P,A1,16,GPIO12_16*%
%TO.N,/C13*%
X362120000Y-63225000D03*
%TO.P,A1,17,GPIO13_17*%
%TO.N,/R1*%
X362120000Y-65765000D03*
D15*
%TO.P,A1,18,GND_18*%
%TO.N,GND*%
X362120000Y-68305000D03*
D14*
%TO.P,A1,19,GPIO14_19*%
%TO.N,/R2*%
X362120000Y-70845000D03*
%TO.P,A1,20,GPIO15_20*%
%TO.N,/R3*%
X362120000Y-73385000D03*
%TO.P,A1,21,GPIO16_21*%
%TO.N,/R4*%
X381500000Y-73385000D03*
%TO.P,A1,22,GPIO17_22*%
%TO.N,/R5*%
X381500000Y-70845000D03*
D13*
%TO.P,A1,23,GND_23*%
%TO.N,GND*%
X381500000Y-68305000D03*
D14*
%TO.P,A1,24,GPIO18_24*%
%TO.N,/R6*%
X381500000Y-65765000D03*
%TO.P,A1,25,GPIO19_25*%
%TO.N,/A1*%
X381500000Y-63225000D03*
%TO.P,A1,26,GPIO20_26*%
%TO.N,/B1*%
X381500000Y-60685000D03*
%TO.P,A1,27,GPIO21_27*%
%TO.N,/A2*%
X381500000Y-58145000D03*
D13*
%TO.P,A1,28,GND_28*%
%TO.N,GND*%
X381500000Y-55605000D03*
D14*
%TO.P,A1,29,GPIO22_29*%
%TO.N,/B2*%
X381500000Y-53065000D03*
%TO.P,A1,30,RUN_30*%
%TO.N,unconnected-(A1-RUN-Pad30)*%
X381500000Y-50525000D03*
%TO.P,A1,31,GPIO26_ADC0_31*%
%TO.N,/SDA*%
X381500000Y-47985000D03*
%TO.P,A1,32,GPIO27_ADC1_32*%
%TO.N,/SCL*%
X381500000Y-45445000D03*
D13*
%TO.P,A1,33,AGND_33*%
%TO.N,unconnected-(A1-AGND-Pad33)*%
X381500000Y-42905000D03*
D14*
%TO.P,A1,34,GPIO28_ADC2_34*%
%TO.N,unconnected-(A1-GPIO28_ADC2-Pad34)*%
X381500000Y-40365000D03*
%TO.P,A1,35,ADC_VREF_35*%
%TO.N,unconnected-(A1-ADC_VREF-Pad35)*%
X381500000Y-37825000D03*
%TO.P,A1,36,3V3_36*%
%TO.N,+3.3V*%
X381500000Y-35285000D03*
%TO.P,A1,37,3V3_EN_37*%
%TO.N,unconnected-(A1-3V3_EN-Pad37)*%
X381500000Y-32745000D03*
D13*
%TO.P,A1,38,GND_38*%
%TO.N,GND*%
X381500000Y-30205000D03*
D14*
%TO.P,A1,39,VSYS_39*%
%TO.N,unconnected-(A1-VSYS-Pad39)*%
X381500000Y-27665000D03*
%TO.P,A1,40,VBUS_40*%
%TO.N,+5V*%
X381500000Y-25125000D03*
D16*
%TO.P,A1,D1*%
%TO.N,N/C*%
X372394100Y-54955000D03*
D17*
%TO.P,A1,D2*%
X374934100Y-54955000D03*
%TO.P,A1,D3*%
X377474100Y-54955000D03*
%TD*%
D10*
%TO.P,F5,1,1_1*%
%TO.N,/C6*%
X227775000Y-40350000D03*
%TO.P,F5,2,2_2*%
%TO.N,Net-(D6-A)*%
X221425000Y-42890000D03*
%TD*%
%TO.P,I1,1,1_1*%
%TO.N,/C9*%
X247915000Y-83070000D03*
%TO.P,I1,2,2_2*%
%TO.N,Net-(D33-A)*%
X241565000Y-85610000D03*
%TD*%
%TO.P,F6,1,1_1*%
%TO.N,/C7*%
X246985000Y-40370000D03*
%TO.P,F6,2,2_2*%
%TO.N,Net-(D7-A)*%
X240635000Y-42910000D03*
%TD*%
%TO.P,T1,1,1_1*%
%TO.N,/C6*%
X190060000Y-83320000D03*
%TO.P,T1,2,2_2*%
%TO.N,Net-(D30-A)*%
X183710000Y-85860000D03*
%TD*%
%TO.P,F1,1,1_1*%
%TO.N,/C2*%
X133990000Y-40160000D03*
%TO.P,F1,2,2_2*%
%TO.N,Net-(D2-A)*%
X127640000Y-42700000D03*
%TD*%
%TO.P,UP1,1,1_1*%
%TO.N,/C9*%
X357810000Y-121670000D03*
%TO.P,UP1,2,2_2*%
%TO.N,Net-(D72-A)*%
X351460000Y-124210000D03*
%TD*%
%TO.P,N2,1,1_1*%
%TO.N,/C3*%
X123190000Y-63995000D03*
%TO.P,N2,2,2_2*%
%TO.N,Net-(D12-A)*%
X116840000Y-66535000D03*
%TD*%
%TO.P,U2,1,1_1*%
%TO.N,/C8*%
X228625000Y-83100000D03*
%TO.P,U2,2,2_2*%
%TO.N,Net-(D32-A)*%
X222275000Y-85640000D03*
%TD*%
%TO.P,C1,1,1_1*%
%TO.N,/C4*%
X165965000Y-121545000D03*
%TO.P,C1,2,2_2*%
%TO.N,Net-(D55-A)*%
X159615000Y-124085000D03*
%TD*%
%TO.P,"'1,1,1_1*%
%TO.N,/C12*%
X310465000Y-102470000D03*
%TO.P,"'1,2,2_2*%
%TO.N,Net-(D50-A)*%
X304115000Y-105010000D03*
%TD*%
%TO.P,N10,1,1_1*%
%TO.N,/C7*%
X223490000Y-121445000D03*
%TO.P,N10,2,2_2*%
%TO.N,Net-(D58-A)*%
X217140000Y-123985000D03*
%TD*%
%TO.P,RIGHT1,1,1_1*%
%TO.N,/C11*%
X377115000Y-140820000D03*
%TO.P,RIGHT1,2,2_2*%
%TO.N,Net-(D74-A)*%
X370765000Y-143360000D03*
%TD*%
%TO.P,F2,1,1_1*%
%TO.N,/C3*%
X153195000Y-40160000D03*
%TO.P,F2,2,2_2*%
%TO.N,Net-(D3-A)*%
X146845000Y-42700000D03*
%TD*%
%TO.P,\u005C|1,1,1_1*%
%TO.N,/C12*%
X343845000Y-83095000D03*
%TO.P,\u005C|1,2,2_2*%
%TO.N,Net-(D38-A)*%
X337495000Y-85635000D03*
%TD*%
D18*
%TO.P,SW2,A,A_A*%
%TO.N,/A2*%
X332000000Y-43425000D03*
D19*
%TO.P,SW2,B,B_B*%
%TO.N,/B2*%
X332000000Y-48425000D03*
%TO.P,SW2,C,C_C*%
%TO.N,GND*%
X332000000Y-45925000D03*
D20*
%TO.P,SW2,MP*%
%TO.N,N/C*%
X339500000Y-40325000D03*
X339500000Y-51525000D03*
D19*
%TO.P,SW2,S1,S1_S1*%
%TO.N,/C12*%
X346500000Y-48425000D03*
%TO.P,SW2,S2,S2_S2*%
%TO.N,Net-(D76-A)*%
X346500000Y-43425000D03*
%TD*%
D18*
%TO.P,SW1,A,A_A*%
%TO.N,/A1*%
X304375000Y-43275000D03*
D19*
%TO.P,SW1,B,B_B*%
%TO.N,/B1*%
X304375000Y-48275000D03*
%TO.P,SW1,C,C_C*%
%TO.N,GND*%
X304375000Y-45775000D03*
D20*
%TO.P,SW1,MP*%
%TO.N,N/C*%
X311875000Y-40175000D03*
X311875000Y-51375000D03*
D19*
%TO.P,SW1,S1,S1_S1*%
%TO.N,/C11*%
X318875000Y-48275000D03*
%TO.P,SW1,S2,S2_S2*%
%TO.N,Net-(D75-A)*%
X318875000Y-43275000D03*
%TD*%
D21*
%TO.P,D152,1,K_1*%
%TO.N,/R1*%
X327475000Y-74185000D03*
D17*
%TO.P,D152,2,A_2*%
%TO.N,Net-(D152-A)*%
X327475000Y-66565000D03*
%TD*%
D21*
%TO.P,D69,1,K_1*%
%TO.N,/R6*%
X274175000Y-150185000D03*
D17*
%TO.P,D69,2,A_2*%
%TO.N,Net-(D69-A)*%
X274175000Y-142565000D03*
%TD*%
D21*
%TO.P,D56,1,K_1*%
%TO.N,/R5*%
X173200000Y-131220000D03*
D17*
%TO.P,D56,2,A_2*%
%TO.N,Net-(D56-A)*%
X173200000Y-123600000D03*
%TD*%
D21*
%TO.P,D38,1,K_1*%
%TO.N,/R6*%
X331500000Y-93010000D03*
D17*
%TO.P,D38,2,A_2*%
%TO.N,Net-(D38-A)*%
X331500000Y-85390000D03*
%TD*%
D21*
%TO.P,D47,1,K_1*%
%TO.N,/R4*%
X240725000Y-112435000D03*
D17*
%TO.P,D47,2,A_2*%
%TO.N,Net-(D47-A)*%
X240725000Y-104815000D03*
%TD*%
D21*
%TO.P,D57,1,K_1*%
%TO.N,/R5*%
X192475000Y-131470000D03*
D17*
%TO.P,D57,2,A_2*%
%TO.N,Net-(D57-A)*%
X192475000Y-123850000D03*
%TD*%
D21*
%TO.P,D76,1,K_1*%
%TO.N,/R1*%
X328175000Y-50410000D03*
D17*
%TO.P,D76,2,A_2*%
%TO.N,Net-(D76-A)*%
X328175000Y-42790000D03*
%TD*%
D21*
%TO.P,D59,1,K_1*%
%TO.N,/R5*%
X230525000Y-130860000D03*
D17*
%TO.P,D59,2,A_2*%
%TO.N,Net-(D59-A)*%
X230525000Y-123240000D03*
%TD*%
D21*
%TO.P,D42,1,K_1*%
%TO.N,/R4*%
X144500000Y-112210000D03*
D17*
%TO.P,D42,2,A_2*%
%TO.N,Net-(D42-A)*%
X144500000Y-104590000D03*
%TD*%
D21*
%TO.P,D3,1,K_1*%
%TO.N,/R1*%
X141850000Y-50300000D03*
D17*
%TO.P,D3,2,A_2*%
%TO.N,Net-(D3-A)*%
X141850000Y-42680000D03*
%TD*%
D21*
%TO.P,D71,1,K_1*%
%TO.N,/R6*%
X318225000Y-151495000D03*
D17*
%TO.P,D71,2,A_2*%
%TO.N,Net-(D71-A)*%
X318225000Y-143875000D03*
%TD*%
D21*
%TO.P,D6,1,K_1*%
%TO.N,/R1*%
X215850000Y-50365000D03*
D17*
%TO.P,D6,2,A_2*%
%TO.N,Net-(D6-A)*%
X215850000Y-42745000D03*
%TD*%
D21*
%TO.P,D99,1,K_1*%
%TO.N,/R6*%
X363650000Y-114685000D03*
D17*
%TO.P,D99,2,A_2*%
%TO.N,Net-(D99-A)*%
X363650000Y-107065000D03*
%TD*%
D21*
%TO.P,D1,1,K_1*%
%TO.N,/R1*%
X94985000Y-49625000D03*
D17*
%TO.P,D1,2,A_2*%
%TO.N,Net-(D1-A)*%
X94985000Y-42005000D03*
%TD*%
D21*
%TO.P,D5,1,K_1*%
%TO.N,/R1*%
X196950000Y-50550000D03*
D17*
%TO.P,D5,2,A_2*%
%TO.N,Net-(D5-A)*%
X196950000Y-42930000D03*
%TD*%
D21*
%TO.P,D40,1,K_1*%
%TO.N,/R4*%
X105725000Y-111210000D03*
D17*
%TO.P,D40,2,A_2*%
%TO.N,Net-(D40-A)*%
X105725000Y-103590000D03*
%TD*%
D21*
%TO.P,D62,1,K_1*%
%TO.N,/R5*%
X288750000Y-132185000D03*
D17*
%TO.P,D62,2,A_2*%
%TO.N,Net-(D62-A)*%
X288750000Y-124565000D03*
%TD*%
D21*
%TO.P,D70,1,K_1*%
%TO.N,/R6*%
X294350000Y-150700000D03*
D17*
%TO.P,D70,2,A_2*%
%TO.N,Net-(D70-A)*%
X294350000Y-143080000D03*
%TD*%
D21*
%TO.P,D17,1,K_1*%
%TO.N,/R2*%
X206650000Y-74150000D03*
D17*
%TO.P,D17,2,A_2*%
%TO.N,Net-(D17-A)*%
X206650000Y-66530000D03*
%TD*%
D21*
%TO.P,D35,1,K_1*%
%TO.N,/R3*%
X274250000Y-92150000D03*
D17*
%TO.P,D35,2,A_2*%
%TO.N,Net-(D35-A)*%
X274250000Y-84530000D03*
%TD*%
D21*
%TO.P,D25,1,K_1*%
%TO.N,/R3*%
X75675000Y-92435000D03*
D17*
%TO.P,D25,2,A_2*%
%TO.N,Net-(D25-A)*%
X75675000Y-84815000D03*
%TD*%
D21*
%TO.P,D13,1,K_1*%
%TO.N,/R2*%
X129900000Y-73450000D03*
D17*
%TO.P,D13,2,A_2*%
%TO.N,Net-(D13-A)*%
X129900000Y-65830000D03*
%TD*%
D21*
%TO.P,D61,1,K_1*%
%TO.N,/R5*%
X269450000Y-130860000D03*
D17*
%TO.P,D61,2,A_2*%
%TO.N,Net-(D61-A)*%
X269450000Y-123240000D03*
%TD*%
D21*
%TO.P,D33,1,K_1*%
%TO.N,/R3*%
X235125000Y-93685000D03*
D17*
%TO.P,D33,2,A_2*%
%TO.N,Net-(D33-A)*%
X235125000Y-86065000D03*
%TD*%
D21*
%TO.P,D65,1,K_1*%
%TO.N,/R6*%
X93100000Y-150335000D03*
D17*
%TO.P,D65,2,A_2*%
%TO.N,Net-(D65-A)*%
X93100000Y-142715000D03*
%TD*%
D21*
%TO.P,D30,1,K_1*%
%TO.N,/R3*%
X178125000Y-92860000D03*
D17*
%TO.P,D30,2,A_2*%
%TO.N,Net-(D30-A)*%
X178125000Y-85240000D03*
%TD*%
D21*
%TO.P,D55,1,K_1*%
%TO.N,/R5*%
X154150000Y-131470000D03*
D17*
%TO.P,D55,2,A_2*%
%TO.N,Net-(D55-A)*%
X154150000Y-123850000D03*
%TD*%
D21*
%TO.P,D58,1,K_1*%
%TO.N,/R5*%
X211825000Y-130985000D03*
D17*
%TO.P,D58,2,A_2*%
%TO.N,Net-(D58-A)*%
X211825000Y-123365000D03*
%TD*%
D21*
%TO.P,D16,1,K_1*%
%TO.N,/R2*%
X187350000Y-73750000D03*
D17*
%TO.P,D16,2,A_2*%
%TO.N,Net-(D16-A)*%
X187350000Y-66130000D03*
%TD*%
D21*
%TO.P,D27,1,K_1*%
%TO.N,/R3*%
X120675000Y-92435000D03*
D17*
%TO.P,D27,2,A_2*%
%TO.N,Net-(D27-A)*%
X120675000Y-84815000D03*
%TD*%
D21*
%TO.P,D64,1,K_1*%
%TO.N,/R6*%
X73975000Y-150785000D03*
D17*
%TO.P,D64,2,A_2*%
%TO.N,Net-(D64-A)*%
X73975000Y-143165000D03*
%TD*%
D21*
%TO.P,D21,1,K_1*%
%TO.N,/R2*%
X283350000Y-73650000D03*
D17*
%TO.P,D21,2,A_2*%
%TO.N,Net-(D21-A)*%
X283350000Y-66030000D03*
%TD*%
D21*
%TO.P,D36,1,K_1*%
%TO.N,/R3*%
X294000000Y-92485000D03*
D17*
%TO.P,D36,2,A_2*%
%TO.N,Net-(D36-A)*%
X294000000Y-84865000D03*
%TD*%
D21*
%TO.P,D11,1,K_1*%
%TO.N,/R2*%
X93450000Y-74325000D03*
D17*
%TO.P,D11,2,A_2*%
%TO.N,Net-(D11-A)*%
X93450000Y-66705000D03*
%TD*%
D21*
%TO.P,D32,1,K_1*%
%TO.N,/R3*%
X215850000Y-92860000D03*
D17*
%TO.P,D32,2,A_2*%
%TO.N,Net-(D32-A)*%
X215850000Y-85240000D03*
%TD*%
D21*
%TO.P,D72,1,K_1*%
%TO.N,/R6*%
X345825000Y-130925000D03*
D17*
%TO.P,D72,2,A_2*%
%TO.N,Net-(D72-A)*%
X345825000Y-123305000D03*
%TD*%
D21*
%TO.P,D67,1,K_1*%
%TO.N,/R6*%
X131950000Y-151120000D03*
D17*
%TO.P,D67,2,A_2*%
%TO.N,Net-(D67-A)*%
X131950000Y-143500000D03*
%TD*%
D21*
%TO.P,D20,1,K_1*%
%TO.N,/R2*%
X264350000Y-74175000D03*
D17*
%TO.P,D20,2,A_2*%
%TO.N,Net-(D20-A)*%
X264350000Y-66555000D03*
%TD*%
D21*
%TO.P,D68,1,K_1*%
%TO.N,/R6*%
X151650000Y-152110000D03*
D17*
%TO.P,D68,2,A_2*%
%TO.N,Net-(D68-A)*%
X151650000Y-144490000D03*
%TD*%
D21*
%TO.P,D14,1,K_1*%
%TO.N,/R2*%
X149450000Y-73925000D03*
D17*
%TO.P,D14,2,A_2*%
%TO.N,Net-(D14-A)*%
X149450000Y-66305000D03*
%TD*%
D21*
%TO.P,D18,1,K_1*%
%TO.N,/R2*%
X226725000Y-74150000D03*
D17*
%TO.P,D18,2,A_2*%
%TO.N,Net-(D18-A)*%
X226725000Y-66530000D03*
%TD*%
D21*
%TO.P,D39,1,K_1*%
%TO.N,/R4*%
X98700000Y-111185000D03*
D17*
%TO.P,D39,2,A_2*%
%TO.N,Net-(D39-A)*%
X98700000Y-103565000D03*
%TD*%
D21*
%TO.P,D48,1,K_1*%
%TO.N,/R4*%
X259800000Y-112110000D03*
D17*
%TO.P,D48,2,A_2*%
%TO.N,Net-(D48-A)*%
X259800000Y-104490000D03*
%TD*%
D21*
%TO.P,D43,1,K_1*%
%TO.N,/R4*%
X163400000Y-112985000D03*
D17*
%TO.P,D43,2,A_2*%
%TO.N,Net-(D43-A)*%
X163400000Y-105365000D03*
%TD*%
D21*
%TO.P,D46,1,K_1*%
%TO.N,/R4*%
X221025000Y-111860000D03*
D17*
%TO.P,D46,2,A_2*%
%TO.N,Net-(D46-A)*%
X221025000Y-104240000D03*
%TD*%
D21*
%TO.P,D44,1,K_1*%
%TO.N,/R4*%
X182900000Y-112795000D03*
D17*
%TO.P,D44,2,A_2*%
%TO.N,Net-(D44-A)*%
X182900000Y-105175000D03*
%TD*%
D21*
%TO.P,D2,1,K_1*%
%TO.N,/R1*%
X120200000Y-49550000D03*
D17*
%TO.P,D2,2,A_2*%
%TO.N,Net-(D2-A)*%
X120200000Y-41930000D03*
%TD*%
D21*
%TO.P,D49,1,K_1*%
%TO.N,/R4*%
X278875000Y-111785000D03*
D17*
%TO.P,D49,2,A_2*%
%TO.N,Net-(D49-A)*%
X278875000Y-104165000D03*
%TD*%
D21*
%TO.P,D19,1,K_1*%
%TO.N,/R2*%
X244825000Y-73750000D03*
D17*
%TO.P,D19,2,A_2*%
%TO.N,Net-(D19-A)*%
X244825000Y-66130000D03*
%TD*%
D21*
%TO.P,D51,1,K_1*%
%TO.N,/R4*%
X321325000Y-111460000D03*
D17*
%TO.P,D51,2,A_2*%
%TO.N,Net-(D51-A)*%
X321325000Y-103840000D03*
%TD*%
D21*
%TO.P,D7,1,K_1*%
%TO.N,/R1*%
X233525000Y-48760000D03*
D17*
%TO.P,D7,2,A_2*%
%TO.N,Net-(D7-A)*%
X233525000Y-41140000D03*
%TD*%
D21*
%TO.P,D24,1,K_1*%
%TO.N,/R2*%
X302350000Y-72625000D03*
D17*
%TO.P,D24,2,A_2*%
%TO.N,Net-(D24-A)*%
X302350000Y-65005000D03*
%TD*%
D21*
%TO.P,D29,1,K_1*%
%TO.N,/R3*%
X159250000Y-92470000D03*
D17*
%TO.P,D29,2,A_2*%
%TO.N,Net-(D29-A)*%
X159250000Y-84850000D03*
%TD*%
D21*
%TO.P,D12,1,K_1*%
%TO.N,/R2*%
X110975000Y-73875000D03*
D17*
%TO.P,D12,2,A_2*%
%TO.N,Net-(D12-A)*%
X110975000Y-66255000D03*
%TD*%
D21*
%TO.P,D37,1,K_1*%
%TO.N,/R3*%
X312575000Y-92150000D03*
D17*
%TO.P,D37,2,A_2*%
%TO.N,Net-(D37-A)*%
X312575000Y-84530000D03*
%TD*%
D21*
%TO.P,D45,1,K_1*%
%TO.N,/R4*%
X201825000Y-112435000D03*
D17*
%TO.P,D45,2,A_2*%
%TO.N,Net-(D45-A)*%
X201825000Y-104815000D03*
%TD*%
D21*
%TO.P,D66,1,K_1*%
%TO.N,/R6*%
X110825000Y-151120000D03*
D17*
%TO.P,D66,2,A_2*%
%TO.N,Net-(D66-A)*%
X110825000Y-143500000D03*
%TD*%
D21*
%TO.P,D75,1,K_1*%
%TO.N,/R1*%
X325025000Y-50310000D03*
D17*
%TO.P,D75,2,A_2*%
%TO.N,Net-(D75-A)*%
X325025000Y-42690000D03*
%TD*%
D21*
%TO.P,D54,1,K_1*%
%TO.N,/R5*%
X134850000Y-131970000D03*
D17*
%TO.P,D54,2,A_2*%
%TO.N,Net-(D54-A)*%
X134850000Y-124350000D03*
%TD*%
D21*
%TO.P,D63,1,K_1*%
%TO.N,/R5*%
X314600000Y-131185000D03*
D17*
%TO.P,D63,2,A_2*%
%TO.N,Net-(D63-A)*%
X314600000Y-123565000D03*
%TD*%
D22*
%TO.P,D73,1,K_1*%
%TO.N,/R6*%
X344315000Y-136850000D03*
D17*
%TO.P,D73,2,A_2*%
%TO.N,Net-(D73-A)*%
X351935000Y-136850000D03*
%TD*%
D21*
%TO.P,D34,1,K_1*%
%TO.N,/R3*%
X255675000Y-91710000D03*
D17*
%TO.P,D34,2,A_2*%
%TO.N,Net-(D34-A)*%
X255675000Y-84090000D03*
%TD*%
D21*
%TO.P,D31,1,K_1*%
%TO.N,/R3*%
X196975000Y-93285000D03*
D17*
%TO.P,D31,2,A_2*%
%TO.N,Net-(D31-A)*%
X196975000Y-85665000D03*
%TD*%
D21*
%TO.P,D4,1,K_1*%
%TO.N,/R1*%
X160600000Y-50115000D03*
D17*
%TO.P,D4,2,A_2*%
%TO.N,Net-(D4-A)*%
X160600000Y-42495000D03*
%TD*%
D21*
%TO.P,D15,1,K_1*%
%TO.N,/R2*%
X169075000Y-73925000D03*
D17*
%TO.P,D15,2,A_2*%
%TO.N,Net-(D15-A)*%
X169075000Y-66305000D03*
%TD*%
D21*
%TO.P,D26,1,K_1*%
%TO.N,/R3*%
X101175000Y-92535000D03*
D17*
%TO.P,D26,2,A_2*%
%TO.N,Net-(D26-A)*%
X101175000Y-84915000D03*
%TD*%
D21*
%TO.P,D52,1,K_1*%
%TO.N,/R5*%
X104150000Y-131035000D03*
D17*
%TO.P,D52,2,A_2*%
%TO.N,Net-(D52-A)*%
X104150000Y-123415000D03*
%TD*%
D21*
%TO.P,D50,1,K_1*%
%TO.N,unconnected-(D50-K-Pad1)*%
X298300000Y-112250000D03*
D17*
%TO.P,D50,2,A_2*%
%TO.N,Net-(D50-A)*%
X298300000Y-104630000D03*
%TD*%
D21*
%TO.P,D10,1,K_1*%
%TO.N,/R2*%
X90525000Y-74285000D03*
D17*
%TO.P,D10,2,A_2*%
%TO.N,Net-(D10-A)*%
X90525000Y-66665000D03*
%TD*%
D21*
%TO.P,D60,1,K_1*%
%TO.N,/R5*%
X250500000Y-131535000D03*
D17*
%TO.P,D60,2,A_2*%
%TO.N,Net-(D60-A)*%
X250500000Y-123915000D03*
%TD*%
D21*
%TO.P,D28,1,K_1*%
%TO.N,/R3*%
X139125000Y-92470000D03*
D17*
%TO.P,D28,2,A_2*%
%TO.N,Net-(D28-A)*%
X139125000Y-84850000D03*
%TD*%
D21*
%TO.P,D98,1,K_1*%
%TO.N,/R5*%
X363825000Y-100010000D03*
D17*
%TO.P,D98,2,A_2*%
%TO.N,Net-(D98-A)*%
X363825000Y-92390000D03*
%TD*%
D21*
%TO.P,D41,1,K_1*%
%TO.N,/R4*%
X125050000Y-111560000D03*
D17*
%TO.P,D41,2,A_2*%
%TO.N,Net-(D41-A)*%
X125050000Y-103940000D03*
%TD*%
D23*
%TO.P,D74,1,K_1*%
%TO.N,/R6*%
X363575000Y-136865000D03*
D17*
%TO.P,D74,2,A_2*%
%TO.N,Net-(D74-A)*%
X363575000Y-144485000D03*
%TD*%
D21*
%TO.P,D53,1,K_1*%
%TO.N,/R5*%
X109800000Y-131720000D03*
D17*
%TO.P,D53,2,A_2*%
%TO.N,Net-(D53-A)*%
X109800000Y-124100000D03*
%TD*%
D24*
%TO.N,/C6*%
X214925000Y-136825000D03*
%TO.N,/C11*%
X280725000Y-54079011D03*
%TO.N,/C10*%
X312535000Y-136150000D03*
X343715000Y-140850000D03*
X297250000Y-136050000D03*
X313900000Y-136150000D03*
%TO.N,/C8*%
X360625000Y-48150000D03*
X357075000Y-53450589D03*
X342075000Y-98650000D03*
X357200000Y-60820648D03*
%TO.N,/C12*%
X347425000Y-60875000D03*
%TO.N,/C7*%
X232077500Y-136967500D03*
%TO.N,/C13*%
X341475000Y-116200000D03*
X329075000Y-73585000D03*
X347925000Y-56792766D03*
X318325000Y-74685000D03*
X346600735Y-116225735D03*
%TO.N,GND*%
X362120000Y-56150000D03*
X301125000Y-53450589D03*
X330700000Y-56192766D03*
X301100000Y-56192766D03*
X330700000Y-53450589D03*
X339050735Y-56324265D03*
%TO.N,+3.3V*%
X338485048Y-55758578D03*
X377725000Y-37000000D03*
%TO.N,/SCL*%
X265454265Y-44045735D03*
X337205481Y-54479011D03*
X376975000Y-45425000D03*
%TO.N,/SDA*%
X375099265Y-48149265D03*
X337771168Y-55044698D03*
%TO.N,/R4*%
X371400000Y-65550000D03*
%TO.N,/R5*%
X343700000Y-120075000D03*
X369986444Y-65760486D03*
X345450000Y-115600000D03*
X310125000Y-132175000D03*
%TO.N,/R6*%
X315709393Y-150015607D03*
X344494707Y-99819707D03*
X369988200Y-64161472D03*
X314985863Y-150989137D03*
%TO.N,/A1*%
X310550000Y-53450589D03*
X313825003Y-56792766D03*
X345945645Y-59620648D03*
X369779244Y-59401950D03*
%TO.N,/B1*%
X313025000Y-56792766D03*
X369845804Y-60199179D03*
X309575000Y-53450589D03*
X377625649Y-60199179D03*
X345345648Y-60220648D03*
X381500000Y-60685000D03*
%TO.N,/A2*%
X347217156Y-58585817D03*
X369702139Y-57804852D03*
X378557540Y-58145000D03*
X376750000Y-57800000D03*
%TO.N,/B2*%
X346545645Y-59020648D03*
X369769598Y-58602005D03*
%TD*%
%TO.N,/C5*%
D25*
X175585000Y-112040000D02*
X185115000Y-121570000D01*
X185000000Y-40410000D02*
X185000000Y-40325000D01*
X185115000Y-121570000D02*
X204307500Y-140762500D01*
X208595000Y-40325000D02*
X185000000Y-40325000D01*
X171020000Y-97805000D02*
X175585000Y-102370000D01*
X360125000Y-37825000D02*
X358975000Y-36675000D01*
X161415000Y-63995000D02*
X161415000Y-65260000D01*
X161415000Y-63995000D02*
X185000000Y-40410000D01*
X212245000Y-36675000D02*
X208595000Y-40325000D01*
X358975000Y-36675000D02*
X212245000Y-36675000D01*
X362120000Y-37825000D02*
X360125000Y-37825000D01*
X161225000Y-65450000D02*
X161225000Y-73550000D01*
X161225000Y-73550000D02*
X171020000Y-83345000D01*
X204307500Y-140762500D02*
X216215000Y-140762500D01*
X171020000Y-83345000D02*
X171020000Y-97805000D01*
X175585000Y-102370000D02*
X175585000Y-112040000D01*
X161415000Y-65260000D02*
X161225000Y-65450000D01*
%TO.N,/C6*%
X219800635Y-40350000D02*
X196130635Y-64020000D01*
X194810000Y-112120000D02*
X204335000Y-121645000D01*
X196130635Y-64020000D02*
X180715000Y-64020000D01*
X227775000Y-40350000D02*
X219800635Y-40350000D01*
X231050000Y-37075000D02*
X227775000Y-40350000D01*
X214925000Y-136825000D02*
X204335000Y-126235000D01*
X185145000Y-83320000D02*
X190060000Y-83320000D01*
X190060000Y-97620000D02*
X194810000Y-102370000D01*
X362090000Y-40365000D02*
X358800000Y-37075000D01*
X180715000Y-78890000D02*
X185145000Y-83320000D01*
X194810000Y-102370000D02*
X194810000Y-112120000D01*
X190060000Y-83320000D02*
X190060000Y-97620000D01*
X362120000Y-40365000D02*
X362090000Y-40365000D01*
X204335000Y-126235000D02*
X204335000Y-121645000D01*
X180715000Y-64020000D02*
X180715000Y-78890000D01*
X358800000Y-37075000D02*
X231050000Y-37075000D01*
%TO.N,/C4*%
X152703402Y-140670000D02*
X165965000Y-127408402D01*
X142345000Y-63970000D02*
X166130000Y-40185000D01*
X362120000Y-35285000D02*
X360145686Y-35285000D01*
X176235000Y-36275000D02*
X172325000Y-40185000D01*
X166130000Y-40185000D02*
X172325000Y-40185000D01*
X165965000Y-111940000D02*
X156400000Y-102375000D01*
X156400000Y-88000000D02*
X151675000Y-83275000D01*
X359155685Y-36275000D02*
X176235000Y-36275000D01*
X151675000Y-83275000D02*
X151675000Y-73300000D01*
X144595000Y-140670000D02*
X152703402Y-140670000D01*
X360145686Y-35285000D02*
X359155685Y-36275000D01*
X165965000Y-127408402D02*
X165965000Y-121545000D01*
X151675000Y-73300000D02*
X142345000Y-63970000D01*
X156400000Y-102375000D02*
X156400000Y-88000000D01*
X165965000Y-121545000D02*
X165965000Y-111940000D01*
%TO.N,/C11*%
X334075000Y-39075000D02*
X325650000Y-39075000D01*
X286440000Y-97670000D02*
X291215000Y-102445000D01*
X358550000Y-54575000D02*
X358550000Y-43350000D01*
X313070989Y-54079011D02*
X280725000Y-54079011D01*
X300585000Y-111815000D02*
X291215000Y-102445000D01*
X342325000Y-41625000D02*
X336625000Y-41625000D01*
X286440000Y-83195000D02*
X286440000Y-97670000D01*
X318875000Y-45850000D02*
X318875000Y-48275000D01*
X318875000Y-48275000D02*
X313070989Y-54079011D01*
X325650000Y-39075000D02*
X318875000Y-45850000D01*
X358550000Y-43350000D02*
X358575000Y-43325000D01*
X336625000Y-41625000D02*
X334075000Y-39075000D01*
X357950000Y-39075000D02*
X344875000Y-39075000D01*
X286440000Y-83195000D02*
X286440000Y-73820000D01*
X358575000Y-43325000D02*
X358575000Y-39700000D01*
X344875000Y-39075000D02*
X342325000Y-41625000D01*
X362120000Y-58145000D02*
X358550000Y-54575000D01*
X286440000Y-73820000D02*
X276515000Y-63895000D01*
X358575000Y-39700000D02*
X357950000Y-39075000D01*
X300585000Y-121620000D02*
X300585000Y-111815000D01*
%TO.N,/C10*%
X267210000Y-83220000D02*
X267210000Y-97565000D01*
X362120000Y-53065000D02*
X358975000Y-49920000D01*
X272040000Y-102395000D02*
X272040000Y-112195000D01*
X259756372Y-38675000D02*
X257135000Y-41296372D01*
X358975000Y-49920000D02*
X358975000Y-39512744D01*
X343745000Y-140820000D02*
X357815000Y-140820000D01*
X267210000Y-97565000D02*
X272040000Y-102395000D01*
X281315000Y-121470000D02*
X295895000Y-136050000D01*
X343715000Y-140850000D02*
X343745000Y-140820000D01*
X358975000Y-39512744D02*
X358137256Y-38675000D01*
X358137256Y-38675000D02*
X259756372Y-38675000D01*
X257135000Y-73145000D02*
X267210000Y-83220000D01*
X312535000Y-136150000D02*
X313900000Y-136150000D01*
X257135000Y-63970000D02*
X257135000Y-41296372D01*
X257135000Y-63970000D02*
X257135000Y-73145000D01*
X295895000Y-136050000D02*
X297250000Y-136050000D01*
X272040000Y-112195000D02*
X281315000Y-121470000D01*
%TO.N,/C8*%
X233515000Y-87990000D02*
X233515000Y-102345000D01*
X357075000Y-53450589D02*
X357075000Y-60695648D01*
X228625000Y-83100000D02*
X233515000Y-87990000D01*
X259425000Y-37875000D02*
X244325000Y-52975000D01*
X360790000Y-47985000D02*
X360625000Y-48150000D01*
X342075000Y-137300000D02*
X338625000Y-140750000D01*
X362120000Y-47985000D02*
X359815000Y-45680000D01*
X244325000Y-52975000D02*
X229810000Y-52975000D01*
X218840000Y-73315000D02*
X228625000Y-83100000D01*
X233515000Y-102345000D02*
X233515000Y-112125000D01*
X218840000Y-63945000D02*
X218840000Y-73315000D01*
X357075000Y-60695648D02*
X357200000Y-60820648D01*
X362120000Y-47985000D02*
X360790000Y-47985000D01*
X359815000Y-39221372D02*
X358468628Y-37875000D01*
X342075000Y-98650000D02*
X342075000Y-137300000D01*
X358468628Y-37875000D02*
X259425000Y-37875000D01*
X233515000Y-112125000D02*
X242860000Y-121470000D01*
X229810000Y-52975000D02*
X218840000Y-63945000D01*
X359815000Y-45680000D02*
X359815000Y-39221372D01*
%TO.N,/C3*%
X135805000Y-127825000D02*
X122960000Y-140670000D01*
X358990000Y-35875000D02*
X157480000Y-35875000D01*
X123190000Y-63995000D02*
X123190000Y-73970000D01*
X362120000Y-32745000D02*
X358990000Y-35875000D01*
X157480000Y-35875000D02*
X153195000Y-40160000D01*
X153195000Y-40160000D02*
X153195000Y-46023402D01*
X137240000Y-102345000D02*
X146815000Y-111920000D01*
X123190000Y-73970000D02*
X132415000Y-83195000D01*
X146815000Y-111920000D02*
X146815000Y-121545000D01*
X146815000Y-121545000D02*
X145972056Y-121545000D01*
X135223402Y-63995000D02*
X123190000Y-63995000D01*
X137240000Y-88020000D02*
X137240000Y-102345000D01*
X153195000Y-46023402D02*
X135223402Y-63995000D01*
X139692056Y-127825000D02*
X135805000Y-127825000D01*
X145972056Y-121545000D02*
X139692056Y-127825000D01*
X132415000Y-83195000D02*
X137240000Y-88020000D01*
%TO.N,/C12*%
X310465000Y-103312944D02*
X310465000Y-102470000D01*
X326694899Y-83095000D02*
X323989899Y-85800000D01*
X347817156Y-60482844D02*
X347817156Y-57533451D01*
X295820000Y-73470000D02*
X295820000Y-63995000D01*
X343845000Y-83095000D02*
X326694899Y-83095000D01*
X358125000Y-39815686D02*
X357784314Y-39475000D01*
X310465000Y-96561598D02*
X310465000Y-102470000D01*
X345040686Y-39475000D02*
X342970343Y-41545343D01*
X310465000Y-102470000D02*
X310465000Y-88115000D01*
X358125000Y-56690000D02*
X358125000Y-39815686D01*
X328789556Y-121637500D02*
X310465000Y-103312944D01*
X357784314Y-39475000D02*
X345040686Y-39475000D01*
X347817156Y-57533451D02*
X346500000Y-56216295D01*
X346500000Y-56216295D02*
X346500000Y-48425000D01*
X362120000Y-60685000D02*
X358125000Y-56690000D01*
X323989899Y-85800000D02*
X321226598Y-85800000D01*
X331640000Y-121637500D02*
X328789556Y-121637500D01*
X347425000Y-60875000D02*
X347817156Y-60482844D01*
X305550000Y-83200000D02*
X295820000Y-73470000D01*
X342970343Y-44895343D02*
X346500000Y-48425000D01*
X342970343Y-41545343D02*
X342970343Y-44895343D01*
X310465000Y-88115000D02*
X305550000Y-83200000D01*
X321226598Y-85800000D02*
X310465000Y-96561598D01*
%TO.N,/C2*%
X359750000Y-30035000D02*
X359750000Y-34489214D01*
X358764213Y-35475000D02*
X138675000Y-35475000D01*
X103925000Y-64010000D02*
X109356598Y-64010000D01*
X118085000Y-111815000D02*
X118085000Y-102345000D01*
X118085000Y-102345000D02*
X118085000Y-88040000D01*
X359750000Y-34489214D02*
X358764213Y-35475000D01*
X109356598Y-64010000D02*
X133206598Y-40160000D01*
X126732056Y-121535000D02*
X127575000Y-121535000D01*
X127575000Y-121425000D02*
X118025000Y-111875000D01*
X113240000Y-73325000D02*
X103925000Y-64010000D01*
X118085000Y-88040000D02*
X113240000Y-83195000D01*
X113240000Y-83195000D02*
X113240000Y-73325000D01*
X133206598Y-40160000D02*
X133990000Y-40160000D01*
X118025000Y-111875000D02*
X118085000Y-111815000D01*
X127575000Y-121535000D02*
X127575000Y-121425000D01*
X138675000Y-35475000D02*
X133990000Y-40160000D01*
X103785000Y-140545000D02*
X107722056Y-140545000D01*
X362120000Y-27665000D02*
X359750000Y-30035000D01*
X107722056Y-140545000D02*
X126732056Y-121535000D01*
%TO.N,/C1*%
X84640000Y-64045000D02*
X84640000Y-78415000D01*
X89370000Y-83145000D02*
X89370000Y-99870000D01*
X84640000Y-78415000D02*
X89370000Y-83145000D01*
X89105000Y-40095000D02*
X89105000Y-59580000D01*
X358598528Y-35075000D02*
X94125000Y-35075000D01*
X89105000Y-59580000D02*
X84640000Y-64045000D01*
X95672056Y-121455000D02*
X84725000Y-132402056D01*
X359350000Y-27895000D02*
X359350000Y-34323528D01*
X91770000Y-116710000D02*
X96515000Y-121455000D01*
X96515000Y-121455000D02*
X95672056Y-121455000D01*
X84725000Y-132402056D02*
X84725000Y-140635000D01*
X359350000Y-34323528D02*
X358598528Y-35075000D01*
X91770000Y-102270000D02*
X91770000Y-116710000D01*
X94125000Y-35075000D02*
X89105000Y-40095000D01*
X89370000Y-99870000D02*
X91770000Y-102270000D01*
X362120000Y-25125000D02*
X359350000Y-27895000D01*
%TO.N,/C7*%
X358634314Y-37475000D02*
X249880000Y-37475000D01*
X246201598Y-40370000D02*
X246985000Y-40370000D01*
X214035000Y-102370000D02*
X214035000Y-87970000D01*
X223490000Y-121445000D02*
X223490000Y-111825000D01*
X214035000Y-87970000D02*
X209210000Y-83145000D01*
X233996598Y-52575000D02*
X246201598Y-40370000D01*
X199735000Y-63945000D02*
X211105000Y-52575000D01*
X223490000Y-134650000D02*
X223490000Y-121445000D01*
X225807500Y-136967500D02*
X232077500Y-136967500D01*
X225807500Y-136967500D02*
X223490000Y-134650000D01*
X209210000Y-83145000D02*
X209210000Y-73420000D01*
X211105000Y-52575000D02*
X233996598Y-52575000D01*
X209210000Y-73420000D02*
X199735000Y-63945000D01*
X360215000Y-39055686D02*
X358634314Y-37475000D01*
X223490000Y-111825000D02*
X214035000Y-102370000D01*
X360215000Y-43540000D02*
X360215000Y-39055686D01*
X362120000Y-45445000D02*
X360215000Y-43540000D01*
X249880000Y-37475000D02*
X246985000Y-40370000D01*
%TO.N,/C13*%
X347975000Y-56742766D02*
X347925000Y-56792766D01*
X362120000Y-63225000D02*
X357675000Y-58780000D01*
X357675000Y-58780000D02*
X357675000Y-40950000D01*
X339095000Y-70055000D02*
X335565000Y-73585000D01*
X351125000Y-39875000D02*
X347975000Y-43025000D01*
X377246598Y-109155000D02*
X378030000Y-109155000D01*
X356600000Y-39875000D02*
X351125000Y-39875000D01*
X346600735Y-116225735D02*
X359453579Y-116225735D01*
X341475000Y-107175000D02*
X341475000Y-116200000D01*
X336770000Y-102470000D02*
X341475000Y-107175000D01*
X315145000Y-71505000D02*
X318325000Y-74685000D01*
X359453579Y-116225735D02*
X359894314Y-115785000D01*
X335565000Y-73585000D02*
X329075000Y-73585000D01*
X315145000Y-63920000D02*
X315145000Y-71505000D01*
X359894314Y-115785000D02*
X370616598Y-115785000D01*
X347975000Y-43025000D02*
X347975000Y-56742766D01*
X339095000Y-63920000D02*
X339095000Y-70055000D01*
X357675000Y-40950000D02*
X356600000Y-39875000D01*
X370616598Y-115785000D02*
X377246598Y-109155000D01*
%TO.N,GND*%
X383405000Y-32110000D02*
X381500000Y-30205000D01*
X383400000Y-66405000D02*
X381500000Y-68305000D01*
X364020000Y-32105000D02*
X364020000Y-41005000D01*
X268763628Y-49335000D02*
X275621394Y-56192766D01*
X301125000Y-49025000D02*
X301125000Y-53450589D01*
X383400000Y-57505000D02*
X383400000Y-66405000D01*
X381500000Y-55605000D02*
X383405000Y-53700000D01*
X364020000Y-53705000D02*
X362120000Y-55605000D01*
X262275000Y-49335000D02*
X268763628Y-49335000D01*
X362120000Y-30205000D02*
X381500000Y-30205000D01*
X304375000Y-45775000D02*
X301125000Y-49025000D01*
X362120000Y-30205000D02*
X364020000Y-32105000D01*
X364020000Y-57505000D02*
X364020000Y-66405000D01*
X332000000Y-45925000D02*
X330700000Y-47225000D01*
X330700000Y-47225000D02*
X330700000Y-53450589D01*
X362120000Y-42905000D02*
X364020000Y-44805000D01*
X364020000Y-66405000D02*
X362120000Y-68305000D01*
X330865812Y-56358578D02*
X339016422Y-56358578D01*
X364020000Y-44805000D02*
X364020000Y-53705000D01*
X383405000Y-53700000D02*
X383405000Y-32110000D01*
X364020000Y-41005000D02*
X362120000Y-42905000D01*
X275621394Y-56192766D02*
X301100000Y-56192766D01*
X330700000Y-56192766D02*
X330865812Y-56358578D01*
X362120000Y-55605000D02*
X364020000Y-57505000D01*
X301100000Y-56192766D02*
X313717177Y-56192766D01*
X339016422Y-56358578D02*
X339050735Y-56324265D01*
X313717177Y-56192766D02*
X330700000Y-56192766D01*
X381500000Y-55605000D02*
X383400000Y-57505000D01*
%TO.N,+3.3V*%
X330921106Y-55565343D02*
X275559657Y-55565343D01*
X381500000Y-35285000D02*
X379440000Y-35285000D01*
X266789314Y-46795000D02*
X275544314Y-55550000D01*
X262275000Y-46795000D02*
X266789314Y-46795000D01*
X338485048Y-55758578D02*
X331114341Y-55758578D01*
X377725000Y-37000000D02*
X377675000Y-37050000D01*
X379440000Y-35285000D02*
X377725000Y-37000000D01*
X331114341Y-55758578D02*
X330921106Y-55565343D01*
%TO.N,/SCL*%
X337205481Y-54479011D02*
X337005481Y-54679011D01*
X376995000Y-45445000D02*
X376975000Y-45425000D01*
X381500000Y-45445000D02*
X376995000Y-45445000D01*
X276087541Y-54679011D02*
X265454265Y-44045735D01*
X337005481Y-54679011D02*
X276087541Y-54679011D01*
%TO.N,/SDA*%
X337736855Y-55079011D02*
X337771168Y-55044698D01*
X381500000Y-47985000D02*
X375263530Y-47985000D01*
X262275000Y-41715000D02*
X275639011Y-55079011D01*
X275639011Y-55079011D02*
X337736855Y-55079011D01*
X375263530Y-47985000D02*
X375099265Y-48149265D01*
%TO.N,/C9*%
X359375000Y-39347058D02*
X358302942Y-38275000D01*
X238040000Y-63970000D02*
X238040000Y-73195000D01*
X359375000Y-47780000D02*
X359375000Y-39347058D01*
X252810000Y-102445000D02*
X252810000Y-112240000D01*
X259590686Y-38275000D02*
X238040000Y-59825686D01*
X238040000Y-59825686D02*
X238040000Y-63970000D01*
X252810000Y-112240000D02*
X262140000Y-121570000D01*
X247915000Y-97550000D02*
X252810000Y-102445000D01*
X358302942Y-38275000D02*
X259590686Y-38275000D01*
X247915000Y-83070000D02*
X247915000Y-97550000D01*
X238040000Y-73195000D02*
X247915000Y-83070000D01*
X362120000Y-50525000D02*
X359375000Y-47780000D01*
%TO.N,/R1*%
X357440000Y-70445000D02*
X343205000Y-70445000D01*
X339465000Y-74185000D02*
X327475000Y-74185000D01*
X362120000Y-65765000D02*
X357440000Y-70445000D01*
X343205000Y-70445000D02*
X339465000Y-74185000D01*
%TO.N,/R2*%
X305010000Y-75285000D02*
X302350000Y-72625000D01*
X338930686Y-75285000D02*
X305010000Y-75285000D01*
X343370686Y-70845000D02*
X338930686Y-75285000D01*
X362120000Y-70845000D02*
X343370686Y-70845000D01*
%TO.N,/R3*%
X326270101Y-75750000D02*
X312575000Y-89445101D01*
X343536372Y-71245000D02*
X339031372Y-75750000D01*
X312575000Y-89445101D02*
X312575000Y-92150000D01*
X357275000Y-71245000D02*
X343536372Y-71245000D01*
X362120000Y-73385000D02*
X359415000Y-73385000D01*
X359415000Y-73385000D02*
X357275000Y-71245000D01*
X339031372Y-75750000D02*
X326270101Y-75750000D01*
%TO.N,/R4*%
X371400000Y-65550000D02*
X378346422Y-65550000D01*
X379010000Y-70895000D02*
X379010000Y-66213578D01*
X378346422Y-65550000D02*
X379010000Y-66213578D01*
X381500000Y-73385000D02*
X379010000Y-70895000D01*
%TO.N,/R5*%
X345450000Y-115600000D02*
X345450000Y-118225000D01*
X381500000Y-70845000D02*
X379525686Y-70845000D01*
X370139514Y-65760486D02*
X369986444Y-65760486D01*
X379525686Y-66163579D02*
X378312107Y-64950000D01*
X345450000Y-118225000D02*
X344950000Y-118725000D01*
X370950000Y-64950000D02*
X370139514Y-65760486D01*
X311115000Y-131185000D02*
X314600000Y-131185000D01*
X343700000Y-120075000D02*
X343700000Y-119975000D01*
X310125000Y-132175000D02*
X311115000Y-131185000D01*
X378312107Y-64950000D02*
X370950000Y-64950000D01*
X379525686Y-70845000D02*
X379525686Y-66163579D01*
X343700000Y-119975000D02*
X344950000Y-118725000D01*
%TO.N,/R6*%
X381500000Y-65765000D02*
X379692793Y-65765000D01*
X315709393Y-150015607D02*
X315709393Y-150265607D01*
X378477792Y-64550000D02*
X370725000Y-64550000D01*
X370336472Y-64161472D02*
X369988200Y-64161472D01*
X342475000Y-113300000D02*
X342475000Y-101425000D01*
X342475000Y-101425000D02*
X342889414Y-101425000D01*
X315709393Y-150265607D02*
X314985863Y-150989137D01*
X359360000Y-114685000D02*
X359245000Y-114800000D01*
X342889414Y-101425000D02*
X344494707Y-99819707D01*
X343975000Y-114800000D02*
X342475000Y-113300000D01*
X363650000Y-114685000D02*
X359360000Y-114685000D01*
X379692793Y-65765000D02*
X378477792Y-64550000D01*
X370725000Y-64550000D02*
X370336472Y-64161472D01*
X359245000Y-114800000D02*
X343975000Y-114800000D01*
%TO.N,/A1*%
X316732237Y-59700000D02*
X345017767Y-59700000D01*
X313825003Y-56792766D02*
X316732237Y-59700000D01*
X310450589Y-53450589D02*
X310550000Y-53450589D01*
X345097119Y-59620648D02*
X345945645Y-59620648D01*
X304375000Y-43275000D02*
X305900000Y-44800000D01*
X381500000Y-63225000D02*
X377676950Y-59401950D01*
X305900000Y-48900000D02*
X310450589Y-53450589D01*
X345017767Y-59700000D02*
X345097119Y-59620648D01*
X377676950Y-59401950D02*
X369779244Y-59401950D01*
X305900000Y-44800000D02*
X305900000Y-48900000D01*
%TO.N,/B1*%
X316417118Y-60220648D02*
X316410735Y-60214265D01*
X316410735Y-60214265D02*
X316400000Y-60225000D01*
X345345648Y-60220648D02*
X316417118Y-60220648D01*
X316400000Y-60225000D02*
X313025000Y-56850000D01*
X309550589Y-53450589D02*
X309575000Y-53450589D01*
X369845804Y-60199179D02*
X377625649Y-60199179D01*
X313025000Y-56850000D02*
X313025000Y-56792766D01*
X304375000Y-48275000D02*
X309550589Y-53450589D01*
%TO.N,/A2*%
X381500000Y-58145000D02*
X378557540Y-58145000D01*
X347051987Y-58420648D02*
X342868588Y-58420648D01*
X347217156Y-58585817D02*
X347051987Y-58420648D01*
X376745148Y-57804852D02*
X376750000Y-57800000D01*
X333782843Y-45207843D02*
X332000000Y-43425000D01*
X369702139Y-57804852D02*
X376745148Y-57804852D01*
X342868588Y-58420648D02*
X333782843Y-49334903D01*
X333782843Y-49334903D02*
X333782843Y-45207843D01*
%TO.N,/B2*%
X346545645Y-59020648D02*
X342595648Y-59020648D01*
X342595648Y-59020648D02*
X332000000Y-48425000D01*
X379350000Y-54634735D02*
X379350000Y-56504010D01*
X379350000Y-56504010D02*
X377252005Y-58602005D01*
X381500000Y-53065000D02*
X380919735Y-53065000D01*
X377252005Y-58602005D02*
X369769598Y-58602005D01*
X380919735Y-53065000D02*
X379350000Y-54634735D01*
%TD*%
M02*
