M48
; DRILL file KiCad 10.0.4 date 2026-08-13T14:30:02
; FORMAT={-:-/ absolute / metric / decimal}
; #@! TF.CreationDate,2026-08-13T14:30:02-04:00
; #@! TF.GenerationSoftware,Kicad,Pcbnew,10.0.4
; #@! TF.FileFunction,Plated,1,2,PTH
FMAT,2
METRIC
; #@! TA.AperFunction,Plated,PTH,ViaDrill
T1C0.300
; #@! TA.AperFunction,Plated,PTH,ComponentDrill
T2C0.800
; #@! TA.AperFunction,Plated,PTH,ComponentDrill
T3C1.000
; #@! TA.AperFunction,Plated,PTH,ComponentDrill
T4C1.500
%
G90
G05
T1
X214.925Y-136.825
X232.077Y-136.968
X265.454Y-44.046
X280.725Y-54.079
X297.25Y-136.05
X301.1Y-56.193
X301.125Y-53.451
X309.575Y-53.451
X310.125Y-132.175
X310.55Y-53.451
X312.535Y-136.15
X313.025Y-56.793
X313.825Y-56.793
X313.9Y-136.15
X314.986Y-150.989
X315.709Y-150.016
X318.325Y-74.685
X329.075Y-73.585
X330.7Y-53.451
X330.7Y-56.193
X337.205Y-54.479
X337.771Y-55.045
X338.485Y-55.759
X339.051Y-56.324
X341.475Y-116.2
X342.075Y-98.65
X343.7Y-120.075
X343.715Y-140.85
X344.495Y-99.82
X345.346Y-60.221
X345.45Y-115.6
X345.946Y-59.621
X346.546Y-59.021
X346.601Y-116.226
X347.217Y-58.586
X347.425Y-60.875
X347.925Y-56.793
X357.075Y-53.451
X357.2Y-60.821
X360.625Y-48.15
X362.12Y-56.15
X369.702Y-57.805
X369.77Y-58.602
X369.779Y-59.402
X369.846Y-60.199
X369.986Y-65.76
X369.988Y-64.161
X371.4Y-65.55
X375.099Y-48.149
X376.75Y-57.8
X376.975Y-45.425
X377.626Y-60.199
X377.725Y-37.0
X378.558Y-58.145
X381.5Y-60.685
T2
X73.975Y-143.165
X73.975Y-150.785
X75.675Y-84.815
X75.675Y-92.435
X90.525Y-66.665
X90.525Y-74.285
X93.1Y-142.715
X93.1Y-150.335
X93.45Y-66.705
X93.45Y-74.325
X94.985Y-42.005
X94.985Y-49.625
X98.7Y-103.565
X98.7Y-111.185
X101.175Y-84.915
X101.175Y-92.535
X104.15Y-123.415
X104.15Y-131.035
X105.725Y-103.59
X105.725Y-111.21
X109.8Y-124.1
X109.8Y-131.72
X110.825Y-143.5
X110.825Y-151.12
X110.975Y-66.255
X110.975Y-73.875
X120.2Y-41.93
X120.2Y-49.55
X120.675Y-84.815
X120.675Y-92.435
X125.05Y-103.94
X125.05Y-111.56
X129.9Y-65.83
X129.9Y-73.45
X131.95Y-143.5
X131.95Y-151.12
X134.85Y-124.35
X134.85Y-131.97
X139.125Y-84.85
X139.125Y-92.47
X141.85Y-42.68
X141.85Y-50.3
X144.5Y-104.59
X144.5Y-112.21
X149.45Y-66.305
X149.45Y-73.925
X151.65Y-144.49
X151.65Y-152.11
X154.15Y-123.85
X154.15Y-131.47
X159.25Y-84.85
X159.25Y-92.47
X160.6Y-42.495
X160.6Y-50.115
X163.4Y-105.365
X163.4Y-112.985
X169.075Y-66.305
X169.075Y-73.925
X173.2Y-123.6
X173.2Y-131.22
X178.125Y-85.24
X178.125Y-92.86
X182.9Y-105.175
X182.9Y-112.795
X187.35Y-66.13
X187.35Y-73.75
X192.475Y-123.85
X192.475Y-131.47
X196.95Y-42.93
X196.95Y-50.55
X196.975Y-85.665
X196.975Y-93.285
X201.825Y-104.815
X201.825Y-112.435
X206.65Y-66.53
X206.65Y-74.15
X211.825Y-123.365
X211.825Y-130.985
X215.85Y-42.745
X215.85Y-50.365
X215.85Y-85.24
X215.85Y-92.86
X221.025Y-104.24
X221.025Y-111.86
X226.725Y-66.53
X226.725Y-74.15
X230.525Y-123.24
X230.525Y-130.86
X233.525Y-41.14
X233.525Y-48.76
X235.125Y-86.065
X235.125Y-93.685
X240.725Y-104.815
X240.725Y-112.435
X244.825Y-66.13
X244.825Y-73.75
X250.5Y-123.915
X250.5Y-131.535
X255.675Y-84.09
X255.675Y-91.71
X259.8Y-104.49
X259.8Y-112.11
X264.35Y-66.555
X264.35Y-74.175
X269.45Y-123.24
X269.45Y-130.86
X274.175Y-142.565
X274.175Y-150.185
X274.25Y-84.53
X274.25Y-92.15
X278.875Y-104.165
X278.875Y-111.785
X283.35Y-66.03
X283.35Y-73.65
X288.75Y-124.565
X288.75Y-132.185
X294.0Y-84.865
X294.0Y-92.485
X294.35Y-143.08
X294.35Y-150.7
X298.3Y-104.63
X298.3Y-112.25
X302.35Y-65.005
X302.35Y-72.625
X312.575Y-84.53
X312.575Y-92.15
X314.6Y-123.565
X314.6Y-131.185
X318.225Y-143.875
X318.225Y-151.495
X321.325Y-103.84
X321.325Y-111.46
X325.025Y-42.69
X325.025Y-50.31
X327.475Y-66.565
X327.475Y-74.185
X328.175Y-42.79
X328.175Y-50.41
X331.5Y-85.39
X331.5Y-93.01
X344.315Y-136.85
X345.825Y-123.305
X345.825Y-130.925
X351.935Y-136.85
X363.575Y-136.865
X363.575Y-144.485
X363.65Y-107.065
X363.65Y-114.685
X363.825Y-92.39
X363.825Y-100.01
T3
X262.275Y-41.715
X262.275Y-44.255
X262.275Y-46.795
X262.275Y-49.335
X304.375Y-43.275
X304.375Y-45.775
X304.375Y-48.275
X318.875Y-43.275
X318.875Y-48.275
X332.0Y-43.425
X332.0Y-45.925
X332.0Y-48.425
X346.5Y-43.425
X346.5Y-48.425
X372.394Y-54.955
X374.934Y-54.955
X377.474Y-54.955
T4
X78.29Y-66.585
X78.375Y-143.175
X82.755Y-42.635
X83.02Y-85.685
X84.64Y-64.045
X84.725Y-140.635
X85.42Y-104.81
X89.105Y-40.095
X89.37Y-83.145
X90.165Y-123.995
X91.77Y-102.27
X96.515Y-121.455
X97.435Y-143.085
X97.575Y-66.55
X103.785Y-140.545
X103.925Y-64.01
X106.89Y-85.735
X111.735Y-104.885
X113.24Y-83.195
X116.61Y-143.21
X116.84Y-66.535
X118.085Y-102.345
X121.225Y-124.075
X122.96Y-140.67
X123.19Y-63.995
X126.065Y-85.735
X127.575Y-121.535
X127.64Y-42.7
X130.89Y-104.885
X132.415Y-83.195
X133.99Y-40.16
X135.995Y-66.51
X137.24Y-102.345
X138.245Y-143.21
X140.465Y-124.085
X142.345Y-63.97
X144.595Y-140.67
X145.325Y-85.815
X146.815Y-121.545
X146.845Y-42.7
X150.05Y-104.915
X151.675Y-83.275
X153.195Y-40.16
X155.065Y-66.535
X156.4Y-102.375
X159.615Y-124.085
X161.415Y-63.995
X164.67Y-85.885
X165.965Y-121.545
X165.975Y-42.725
X169.235Y-104.91
X171.02Y-83.345
X172.325Y-40.185
X174.365Y-66.56
X175.585Y-102.37
X178.765Y-124.11
X180.715Y-64.02
X183.71Y-85.86
X185.115Y-121.57
X188.46Y-104.91
X190.06Y-83.32
X193.385Y-66.485
X194.81Y-102.37
X197.985Y-124.185
X199.735Y-63.945
X202.245Y-42.865
X202.86Y-85.685
X204.335Y-121.645
X207.685Y-104.91
X208.595Y-40.325
X209.21Y-83.145
X209.865Y-143.302
X212.49Y-66.485
X214.035Y-102.37
X216.215Y-140.762
X217.14Y-123.985
X218.84Y-63.945
X221.425Y-42.89
X222.275Y-85.64
X223.49Y-121.445
X227.165Y-104.885
X227.775Y-40.35
X228.625Y-83.1
X231.69Y-66.51
X233.515Y-102.345
X236.51Y-124.01
X238.04Y-63.97
X240.635Y-42.91
X241.565Y-85.61
X242.86Y-121.47
X246.46Y-104.985
X246.985Y-40.37
X247.915Y-83.07
X250.785Y-66.51
X252.81Y-102.445
X255.79Y-124.11
X257.135Y-63.97
X260.86Y-85.76
X262.14Y-121.57
X265.69Y-104.935
X267.21Y-83.22
X270.165Y-66.435
X272.04Y-102.395
X274.965Y-124.01
X276.515Y-63.895
X280.09Y-85.735
X281.315Y-121.47
X281.415Y-143.31
X284.865Y-104.985
X286.44Y-83.195
X287.765Y-140.77
X289.47Y-66.535
X291.215Y-102.445
X294.235Y-124.16
X295.82Y-63.995
X299.2Y-85.74
X300.585Y-121.62
X303.045Y-143.335
X304.115Y-105.01
X305.55Y-83.2
X308.795Y-66.46
X309.395Y-140.795
X310.465Y-102.47
X315.145Y-63.92
X318.39Y-85.61
X324.74Y-83.07
X325.29Y-124.177
X330.42Y-105.01
X331.64Y-121.637
X332.275Y-143.29
X332.745Y-66.46
X336.77Y-102.47
X337.495Y-85.635
X338.625Y-140.75
X339.095Y-63.92
X343.845Y-83.095
X351.46Y-124.21
X351.465Y-143.36
X357.81Y-121.67
X357.815Y-140.82
X370.765Y-143.36
X371.665Y-92.585
X371.68Y-111.695
X377.115Y-140.82
X378.015Y-90.045
X378.03Y-109.155
T4
G00X311.225Y-40.175
M15
G01X312.525Y-40.175
M16
G05
G00X311.225Y-51.375
M15
G01X312.525Y-51.375
M16
G05
G00X338.85Y-40.325
M15
G01X340.15Y-40.325
M16
G05
G00X338.85Y-51.525
M15
G01X340.15Y-51.525
M16
G05
M30
